SplineFontDB: 3.0
FontName: LinLibertineI
FullName: Linux Libertine Italic
FamilyName: Linux Libertine
Weight: Book
Copyright: Linux Libertine by Philipp H. Poll, Open Font under Terms of following Free Software Licenses:\nGPL (General Public License) and OFL (Open Font License).\nCreated with FontForge 1.0 (http://fontforge.sf.net) Sept 2003, 2004, 2005, 2006, 2007
UComments: "2003-08-29: Created.+AAoA-2004-07-25: v(1.0) release candidate+AAoA-2005-12-28: v(1.1.0)stable+AAoA-2006-05-01: v(2.0.0)stable+AAoA-2007-01-10: v(2.3.0)stable" 
Version: 2.7.x
ItalicAngle: -11.5
UnderlinePosition: -200
UnderlineWidth: 30
Ascent: 1638
Descent: 410
LayerCount: 2
Layer: 0 0 "Back" 
Layer: 1 0 "Fore" 
NeedsXUIDChange: 1
XUID: [1021 975 16237491 13016554]
FSType: 0
OS2Version: 0
OS2_WeightWidthSlopeOnly: 0
OS2_UseTypoMetrics: 0
CreationTime: 1155510122
ModificationTime: 1213882830
PfmFamily: 17
TTFWeight: 400
TTFWidth: 5
LineGap: 135
VLineGap: 0
OS2TypoAscent: 1501
OS2TypoAOffset: 0
OS2TypoDescent: -499
OS2TypoDOffset: 0
OS2TypoLinegap: 0
OS2WinAscent: 1830
OS2WinAOffset: 0
OS2WinDescent: 500
OS2WinDOffset: 0
HheadAscent: 1830
HheadAOffset: 0
HheadDescent: -485
HheadDOffset: 0
OS2FamilyClass: 261
OS2Vendor: 'PfEd'
Lookup: 4 0 1 "'liga' Standard Ligatures in Latin NLD"  {"'liga' Standard Ligatures in Latin NLD-1"  } ['liga' ('latn' <'NLD ' > ) ]
Lookup: 4 0 1 "'liga' Standard Ligatures lookup 0"  {"'liga' Standard Ligatures lookup 0"  } ['liga' ('DFLT' <'dflt' > 'cyrl' <'dflt' > 'goth' <'dflt' > 'grek' <'dflt' > 'latn' <'dflt' > ) ]
Lookup: 4 0 1 "'liga' Standard Ligatures in Greek lookup 1"  {"'liga' Standard Ligatures in Greek lookup 1"  } ['liga' ('grek' <'dflt' > ) ]
Lookup: 4 0 1 "'liga' Standard Ligatures in Latin lookup 2"  {"'liga' Standard Ligatures in Latin lookup 2"  } ['liga' ('latn' <'dflt' > ) ]
Lookup: 4 0 1 "'liga' Standard Ligatures lookup 3"  {"'liga' Standard Ligatures lookup 3"  } ['liga' ('DFLT' <'dflt' > ) ]

StartChar: exclam
Encoding: 33 33 0
Width: 466
VWidth: 2047
Flags: HW
HStem: -27 218<214.584 366.131> 1341 20G<494 540.5>
LayerCount: 2
Fore
SplineSet
181 82 m 0
 192 142 249 191 309 191 c 0
 362 191 401 152 401 101 c 0
 401 95 400 89 399 82 c 0
 389 22 331 -27 271 -27 c 0
 217 -27 179 12 179 64 c 0
 179 70 180 76 181 82 c 0
517 1361 m 0
 564 1361 609 1326 609 1252 c 0
 609 1239 608 1226 605 1212 c 0
 581 1079 534 992 482 816 c 0
 417 596 392 473 384 445 c 0
 378 421 368 404 348 404 c 0
 327 404 324 414 324 425 c 0
 324 427 324 428 324 430 c 0
 327 472 349 657 361 816 c 0
 365 871 366 916 366 954 c 0
 366 987 365 1016 365 1045 c 0
 365 1096 367.258 1144.95 379 1212 c 0
 398.427 1322.93 471 1361 517 1361 c 0
EndSplineSet
EndChar

StartChar: quotedbl
Encoding: 34 34 1
Width: 690
VWidth: 2047
Flags: HW
HStem: 873 448<336 725>
LayerCount: 2
Fore
SplineSet
595 875 m 1
 595 875 598 1200 602 1219 c 0
 609 1263 663 1321 725 1321 c 0
 771 1321 785 1295 785 1267 c 0
 785 1262 785 1258 784 1253 c 0
 778 1221 651 882 651 882 c 1
 595 875 l 1
336 873 m 1
 336 873 339 1198 343 1217 c 0
 350 1261 404 1319 466 1319 c 0
 512 1319 526 1293 526 1265 c 0
 526 1260 526 1256 525 1251 c 0
 519 1219 392 880 392 880 c 1
 336 873 l 1
EndSplineSet
EndChar

StartChar: numbersign
Encoding: 35 35 2
Width: 899
VWidth: 999
Flags: HMW
HStem: 374 100<148 299 401 593 694 847> 699 100<257 408 509 702 803 955>
DStem2: 184 26 251 26 0.318258 0.948004<21.3233 366.505 493.768 709.297 836.241 1180.79> 478 26 545 26 0.316736 0.948514<21.2213 366.507 493.349 709.299 836.14 1180.48>
LayerCount: 2
Fore
SplineSet
770 699 m 1
 694 474 l 1
 879 474 l 1
 847 374 l 1
 663 374 l 1
 545 26 l 1
 478 26 l 1
 593 374 l 1
 369 374 l 1
 251 26 l 1
 184 26 l 1
 299 374 l 1
 115 374 l 1
 148 474 l 1
 334 474 l 1
 408 699 l 1
 223 699 l 1
 257 799 l 1
 442 799 l 1
 558 1146 l 1
 627 1146 l 1
 509 799 l 1
 736 799 l 1
 851 1146 l 1
 919 1146 l 1
 803 799 l 1
 988 799 l 1
 955 699 l 1
 770 699 l 1
628 474 m 1
 702 699 l 1
 477 699 l 1
 401 474 l 1
 628 474 l 1
EndSplineSet
EndChar

StartChar: dollar
Encoding: 36 36 3
Width: 899
VWidth: 2047
Flags: HW
HStem: -25 67<303.424 596.132> 1110 61<526.978 792.628>
VStem: 141 56<158.415 299> 865 55<862 891>
DStem2: 371 -165 441 -165 0.191033 0.981584<13.3723 148.884 217.133 716.172 867.348 1305.77 1367.75 1476.19>
LayerCount: 2
Fore
SplineSet
189 20 m 0
 158 20 158 -2 115 -2 c 1
 130 73 136 185 141 299 c 1
 197 305 l 1
 205.371 180.367 273.433 60.0587 411.645 43.8485 c 1
 508.34 540.694 l 1
 408.636 589.354 259.422 669.97 259.422 832.762 c 0
 259.422 850.51 261.196 869.234 265 889 c 0
 299.115 1066.25 492.442 1155.8 630.661 1169.22 c 1
 653 1284 l 1
 723 1284 l 1
 700.876 1170.32 l 1
 785.677 1167.07 856.647 1153.37 908.607 1153.37 c 0
 918.429 1153.37 927.571 1153.86 936 1155 c 1
 922 1063 922 962 920 862 c 1
 865 854 l 1
 861 891 l 2
 846.516 1024.98 799.396 1096.73 688.81 1108.32 c 1
 603.573 670.346 l 1
 702.289 628.907 884.968 543.317 884.968 369.801 c 0
 884.968 353.641 883.384 336.72 880 319 c 0
 867.295 252.472 799.078 -5.79988 468.443 -23.9888 c 1
 441 -165 l 1
 371 -165 l 1
 398.429 -24.0605 l 1
 287.978 -17.5993 230.134 20 189 20 c 0
573.008 513.294 m 1
 481.85 44.8986 l 1
 565.78 56.9986 691.862 110.027 721 260 c 0
 724.951 280.74 726.765 299.773 726.765 317.264 c 0
 726.765 438.137 640.117 485.358 573.008 513.294 c 1
539.214 699.335 m 1
 618.603 1107.26 l 1
 519.003 1092.36 421.064 1017.32 397 897 c 0
 395.349 888.314 394.569 879.886 394.569 871.713 c 0
 394.569 789.476 473.552 733.021 539.214 699.335 c 1
EndSplineSet
EndChar

StartChar: percent
Encoding: 37 37 4
Width: 1305
VWidth: 2047
Flags: HW
HStem: -38 59<920.054 1079.97> 447 64<1000.38 1136.05> 608 59<394.154 554.829> 978 76<816.849 995.374> 1092 65<471.277 632.482>
VStem: 268 105<684.368 969.319> 652 63<817.371 1020.99> 794 105<37.7608 323.739> 1178 62<171.5 426.816>
LayerCount: 2
Fore
SplineSet
899 157 m 0
 899 51 954 21 991 21 c 0
 1105 21 1178 209 1178 322 c 0
 1178 429 1115 447 1086 447 c 0
 986 447 899 275 899 157 c 0
794 187 m 0
 794 341 913 511 1064 511 c 0
 1146 511 1240 474 1240 325 c 0
 1240 187 1149 -38 979 -38 c 0
 854 -38 794 79 794 187 c 0
893 1054 m 0
 979 1054 1116 1076 1200 1165 c 1
 1268 1122 l 1
 285 -29 l 1
 207.899 -9.66667 l 1
 1084.71 1017 l 1
 1005.71 986 934 978 874 978 c 0
 825 978 748 999 709 1022 c 1
 713 1006 715 988 715 970 c 0
 715 838 626 608 454 608 c 0
 326 608 268 726 268 831 c 0
 268 988 389 1157 538 1157 c 0
 595 1157 653 1130 674 1106 c 1
 784 1054 857 1054 893 1054 c 0
373 802 m 0
 373 696 429 667 466 667 c 0
 578 667 652 850 652 968 c 0
 652 1070 596 1092 559 1092 c 0
 460 1092 373 921 373 802 c 0
EndSplineSet
EndChar

StartChar: parenleft
Encoding: 40 40 5
Width: 606
VWidth: 2047
Flags: HW
VStem: 163 151<163.879 397.749>
LayerCount: 2
Fore
SplineSet
208 -1 m 0
 179 103 163 208 163 316 c 0
 163 382 169 448 181 516 c 0
 214 702 282 870 391 1031 c 0
 452 1124 574 1295 780 1448 c 1
 810 1412 l 1
 637 1250 549 1092 506 1007 c 0
 425 853 371 692 340 516 c 0
 323 419 314 326 314 236 c 0
 314 162 320 91 332 22 c 0
 346 -65 378 -222 493 -383 c 1
 451 -417 l 1
 334 -297 254 -163 208 -1 c 0
EndSplineSet
Substitution2: "'sups' Superscript lookup 23" parenleft.superior
EndChar

StartChar: parenright
Encoding: 41 41 6
Width: 641
VWidth: 2047
Flags: HW
VStem: 544 151<634.251 868.121>
LayerCount: 2
Fore
SplineSet
650 1033 m 0
 679 929 695 824 695 716 c 0
 695 650 689 584 677 516 c 0
 644 330 576 162 467 1 c 0
 406 -92 284 -263 78 -416 c 1
 48 -380 l 1
 221 -218 309 -60 352 25 c 0
 433 179 487 340 518 516 c 0
 535 613 544 706 544 796 c 0
 544 870 538 941 526 1010 c 0
 512 1097 480 1254 365 1415 c 1
 407 1449 l 1
 524 1329 604 1195 650 1033 c 0
EndSplineSet
Substitution2: "'sups' Superscript lookup 23" parenright.superior
EndChar

StartChar: asterisk
Encoding: 42 42 7
Width: 887
VWidth: 2047
Flags: HW
HStem: 1169 138<378.236 542.22 782.546 860.611>
VStem: 631 117<1220.5 1441.26>
LayerCount: 2
Fore
SplineSet
611 1162 m 1
 585 1167 556 1169 525 1169 c 0
 433 1169 372 1181 372 1233 c 0
 372 1237 372 1241 373 1246 c 0
 378 1274 403 1307 451 1307 c 0
 521 1307 546 1240 630 1202 c 1
 631 1209 631 1217 631 1224 c 0
 631 1283 613 1327 613 1369 c 0
 613 1376 614 1383 615 1390 c 0
 623 1434 655 1470 692 1470 c 0
 724 1470 748 1453 748 1415 c 0
 748 1410 748 1405 747 1399 c 0
 737 1344 688 1262 672 1201 c 1
 773 1241 817 1306 886 1306 c 0
 933 1306 945 1275 945 1253 c 0
 945 1250 944 1248 944 1245 c 0
 933 1183 860 1170 790 1170 c 0
 750 1170 714 1167 677 1161 c 1
 728 1091 817 1068 817 999 c 0
 817 994 817 989 816 984 c 0
 809 947 774 923 745 923 c 0
 665 923 673 1056 637 1137 c 1
 569 1045 533 923 456 923 c 0
 425 923 405 946 405 973 c 0
 405 976 406 979 406 982 c 0
 422 1070 528 1085 611 1162 c 1
EndSplineSet
EndChar

StartChar: plus
Encoding: 43 43 8
Width: 1080
VWidth: 2047
Flags: HMW
HStem: 424 101<228 565 684 1020>
DStem2: 502 70 603 70 0.173647 0.984808<17.5383 359.562 479.691 823.511>
LayerCount: 2
Fore
SplineSet
684 525 m 1
 1038 525 l 1
 1020 424 l 1
 666 424 l 1
 603 70 l 1
 502 70 l 1
 565 424 l 1
 210 424 l 1
 228 525 l 1
 583 525 l 1
 645 881 l 1
 746 881 l 1
 684 525 l 1
EndSplineSet
Substitution2: "'sinf' Wissenschaftliche Indices lookup 22" plus.inferior
Substitution2: "'sups' Superscript lookup 23" plus.superior
EndChar

StartChar: slash
Encoding: 47 47 9
Width: 598
VWidth: 2047
Flags: HMW
HStem: 1376 20G<728.736 824>
DStem2: 0 -44 85 -44 0.45658 0.889682<38.8093 1618.56>
LayerCount: 2
Fore
SplineSet
824 1396 m 1
 85 -44 l 1
 0 -44 l 1
 739 1396 l 1
 824 1396 l 1
EndSplineSet
EndChar

StartChar: one
Encoding: 49 49 10
Width: 899
VWidth: 2047
Flags: HMW
HStem: -2 61<226.548 447.118 600.675 779> 1164 20G<710 807>
DStem2: 460 154 607 154 0.190615 0.981665<-56.3063 830.008>
LayerCount: 2
Fore
SplineSet
574 977 m 0
 536 977 438 941 390 919 c 1
 378 984 l 1
 573 1066 652 1111 768 1184 c 1
 807 1184 l 1
 607 154 l 2
 603.1 133.386 600.674 116.885 600.674 103.805 c 0
 600.674 69.9297 616.943 59 666 59 c 2
 773 59 l 2
 780 59 790 55 787 42 c 2
 779 -2 l 1
 498 2 l 1
 214 -2 l 1
 222 43 l 1
 225 50 228 59 241 59 c 2
 363 59 l 2
 441 59 448 94 460 154 c 2
 597 858 l 2
 602.744 888.932 607.903 915.763 607.903 936.078 c 0
 607.903 961.737 599.673 977 574 977 c 0
EndSplineSet
AlternateSubs2: "'aalt' Access All Alternates lookup 24" one.fitted one.oldstyle
Substitution2: "'sups' Superscript lookup 23" one.superior
Substitution2: "'sinf' Wissenschaftliche Indices lookup 22" one.inferior
Substitution2: "'pnum' Proportionalziffern lookup 21" one.fitted
Substitution2: "'onum' Minuskelziffern lookup 20" one.oldstyle
EndChar

StartChar: two
Encoding: 50 50 11
Width: 899
VWidth: 999
Flags: HW
HStem: 0 118<280 728.097> 1120 64<502.755 759.449>
DStem2: 402 398 474 360 0.773957 0.633238<-216.153 462.854>
LayerCount: 2
Fore
SplineSet
294 908 m 0
 317 1024 462 1184 677 1184 c 0
 817.272 1184 968.578 1137.5 968.578 961.222 c 0
 968.578 938.944 966.161 914.592 961 888 c 0
 931 734 835.911 656.109 705 549 c 2
 474 360 l 2
 462 350 299 215 280 118 c 1
 627 118 l 2
 697 118 740 154 791 266 c 1
 841 258 l 1
 750 0 l 1
 116 0 l 1
 138 114 174 202 402 398 c 2
 575 546 l 2
 712 664 777.907 755.018 802 880 c 0
 806.627 904.001 808.728 925.804 808.728 945.576 c 0
 808.728 1079.06 712.969 1120 652 1120 c 0
 510 1120 457 1046 448 997 c 0
 445 980 446 965 447 950 c 0
 449 936 450 921 447 906 c 0
 437 852 391 832 358 832 c 0
 319.05 832 292.638 858.643 292.638 893.894 c 0
 292.638 898.465 293.082 903.18 294 908 c 0
EndSplineSet
AlternateSubs2: "'aalt' Access All Alternates lookup 24" two.fitted two.oldstyle
Substitution2: "'sups' Superscript lookup 23" two.superior
Substitution2: "'sinf' Wissenschaftliche Indices lookup 22" two.inferior
Substitution2: "'pnum' Proportionalziffern lookup 21" two.fitted
Substitution2: "'onum' Minuskelziffern lookup 20" two.oldstyle
EndChar

StartChar: three
Encoding: 51 51 12
Width: 899
VWidth: 999
Flags: HMW
HStem: -25 63<285.724 534.631> 610 61<449 501.627> 1121 63<509.333 765.628>
LayerCount: 2
Fore
SplineSet
661 1121 m 0
 610 1121 453 1092 429 967 c 0
 421.714 929.054 396 867 341 867 c 0
 300.928 867 295.155 900.727 295.155 919.342 c 0
 295.155 925.348 295.756 929.78 296 931 c 0
 309 996 428 1184 713 1184 c 0
 884.336 1184 934.366 1090.4 934.366 1011.41 c 0
 934.366 999.116 933.155 987.177 931 976 c 0
 921 925 885 824 677 707 c 1
 775.674 691.282 889.599 624.475 889.599 466.628 c 0
 889.599 443.712 887.198 418.876 882 392 c 0
 829 121 597 -25 365 -25 c 0
 254.328 -25 109.977 22.333 109.977 94.4195 c 0
 109.977 97.8898 110.311 101.417 111 105 c 0
 117 135 154 171 195 171 c 0
 233 171 247.907 149.955 261 123 c 0
 278 88 304 38 402 38 c 0
 469 38 676 106 726 364 c 0
 731.028 390.338 733.347 414.01 733.347 435.277 c 0
 733.347 591.654 607.951 618 512 618 c 0
 492 618 471 615 447 610 c 1
 449 671 l 1
 613 698 773.983 851.003 793 947 c 0
 795.948 961.88 797.333 975.805 797.333 988.776 c 0
 797.333 1076.93 733.354 1121 661 1121 c 0
EndSplineSet
AlternateSubs2: "'aalt' Access All Alternates lookup 24" three.fitted three.oldstyle
Substitution2: "'sups' Superscript lookup 23" three.superior
Substitution2: "'sinf' Wissenschaftliche Indices lookup 22" three.inferior
Substitution2: "'pnum' Proportionalziffern lookup 21" three.fitted
Substitution2: "'onum' Minuskelziffern lookup 20" three.oldstyle
EndChar

StartChar: four
Encoding: 52 52 13
Width: 899
VWidth: 999
Flags: HMW
HStem: -2 59<399.843 400.766 400.766 545.911 689.998 804.904 804.904 805> 314 95<284 590 747 882> 1164 20G<753 758>
DStem2: 557 143 695 144 0.191355 0.981521<-50.0331 174.155 297.442 661.121>
LayerCount: 2
Fore
SplineSet
670 727 m 2
 673 741 678 757 697 768 c 0
 724 784 764 802 794 802 c 0
 810.941 802 816.517 793.95 816.517 778.507 c 0
 816.517 768.427 814.141 755.197 811 739 c 2
 747 409 l 1
 913 409 l 1
 882 314 l 1
 728 314 l 1
 695 144 l 2
 691.965 127.72 689.995 113.8 689.995 102.178 c 0
 689.995 71.6797 703.556 57 747 57 c 2
 801 57 l 2
 813 57 814 48 813 42 c 2
 805 -2 l 1
 805 -2 673 2 588 2 c 0
 511 2 389 -2 389 -2 c 1
 397 43 l 2
 398 48 402 57 414 57 c 2
 470 57 l 2
 534 57 545 83 557 143 c 2
 590 314 l 1
 187 314 l 2
 179 314 177 317 172 325 c 2
 160 348 l 1
 143 391 l 1
 142 392 143 394 143 396 c 0
 143 398 145 400 147 402 c 0
 309 548 634 1006 740 1173 c 0
 745.056 1180.96 749 1184 757 1184 c 0
 759 1184 799 1165 823 1162 c 1
 683 914 481 648 284 409 c 1
 609 409 l 1
 670 727 l 2
EndSplineSet
AlternateSubs2: "'aalt' Access All Alternates lookup 24" four.fitted four.oldstyle
Substitution2: "'sups' Superscript lookup 23" four.superior
Substitution2: "'sinf' Wissenschaftliche Indices lookup 22" four.inferior
Substitution2: "'pnum' Proportionalziffern lookup 21" four.fitted
Substitution2: "'onum' Minuskelziffern lookup 20" four.oldstyle
EndChar

StartChar: five
Encoding: 53 53 14
Width: 899
VWidth: 999
Flags: HMW
HStem: -25 70<314.119 539.886> 662 96<442.639 641.093> 1034 130<540.086 845.772>
DStem2: 265 615 387 728 0.297205 0.954814<144.153 482.576>
LayerCount: 2
Fore
SplineSet
700 346 m 0
 706.743 380.66 709.895 412.43 709.895 441.328 c 0
 709.895 589.306 627.251 662 521 662 c 0
 426 662 351 648 265 615 c 1
 439 1174 l 1
 505 1168 574 1164 646 1164 c 0
 748 1164 857 1171 970 1184 c 1
 981 1178 l 1
 924 1044 l 1
 842 1037 776 1034 719 1034 c 0
 627 1034 558 1042 488 1051 c 1
 387 728 l 1
 433 744 510 758 589 758 c 0
 774.232 758 863.326 622.293 863.326 464.922 c 0
 863.326 437.082 860.537 408.564 855 380 c 0
 810.807 152.037 616 -25 385 -25 c 0
 273.574 -25 125.868 33.9543 125.868 109.538 c 0
 125.868 113.319 126.238 117.141 127 121 c 0
 134 160 172 186 209 186 c 0
 250 186 269 156 289 123 c 0
 311.311 86.1867 337 45 402 45 c 0
 534 45 665.391 168.118 700 346 c 0
EndSplineSet
AlternateSubs2: "'aalt' Access All Alternates lookup 24" five.fitted five.oldstyle
Substitution2: "'sups' Superscript lookup 23" five.superior
Substitution2: "'sinf' Wissenschaftliche Indices lookup 22" five.inferior
Substitution2: "'pnum' Proportionalziffern lookup 21" five.fitted
Substitution2: "'onum' Minuskelziffern lookup 20" five.oldstyle
EndChar

StartChar: six
Encoding: 54 54 15
Width: 899
VWidth: 999
Flags: HW
HStem: -25 60<383.94 611.204> 628 67<444.554 690.089> 1131 53<756.685 992.138>
VStem: 168.395 138.947<116.704 399.356> 751 141<240.604 335 351 562.092>
LayerCount: 2
Fore
SplineSet
341 536 m 1
 336 516 329.043 484.992 325 464 c 0
 312.868 401.015 307.342 346.756 307.342 300.081 c 0
 307.342 91.7334 414.851 35 499 35 c 0
 593 35 709.855 122.028 751 335 c 0
 754.91 355.24 757.568 379.611 757.568 405.55 c 0
 757.568 505.221 718.525 628 563 628 c 0
 520 628 441 624 341 536 c 1
995 1131 m 1
 858 1118 738.018 1083.98 620 987 c 0
 508.017 894.98 414 758 358 594 c 1
 417 651 539 695 616 695 c 0
 853.602 695 899.351 540.656 899.351 429.186 c 0
 899.351 398.505 895.865 371.077 892 351 c 0
 864.86 210.027 749 -25 467 -25 c 0
 338.921 -25 168.395 39.0311 168.395 306.838 c 0
 168.395 354.765 174.037 409.184 186 471 c 0
 222.554 659.893 322 843 489 985 c 0
 648 1119 796 1173 999 1184 c 1
 995 1131 l 1
EndSplineSet
AlternateSubs2: "'aalt' Access All Alternates lookup 24" six.fitted six.oldstyle
Substitution2: "'sups' Superscript lookup 23" six.superior
Substitution2: "'sinf' Wissenschaftliche Indices lookup 22" six.inferior
Substitution2: "'pnum' Proportionalziffern lookup 21" six.fitted
Substitution2: "'onum' Minuskelziffern lookup 20" six.oldstyle
EndChar

StartChar: seven
Encoding: 55 55 16
Width: 899
VWidth: 999
Flags: HW
HStem: -25 21G<235 373> 900 21G<271 352.5> 1041 121<419.234 877> 1164 20G<361 421.5>
VStem: 239 806
LayerCount: 2
Fore
SplineSet
509 1041 m 2
 419 1041 382 1004 323 900 c 1
 271 907 l 1
 312 991 347 1070 375 1184 c 1
 419 1184 l 1
 424 1172 428 1162 475 1162 c 2
 866 1162 l 2
 939 1162 983 1164 1017 1173 c 1
 1045 1160 l 1
 725 630 549 312 373 -18 c 1
 239 -25 l 1
 235 -12 l 1
 422 282 654 663 877 1041 c 1
 509 1041 l 2
EndSplineSet
AlternateSubs2: "'aalt' Access All Alternates lookup 24" seven.fitted seven.oldstyle
Substitution2: "'sups' Superscript lookup 23" seven.superior
Substitution2: "'sinf' Wissenschaftliche Indices lookup 22" seven.inferior
Substitution2: "'pnum' Proportionalziffern lookup 21" seven.fitted
Substitution2: "'onum' Minuskelziffern lookup 20" seven.oldstyle
EndChar

StartChar: nine
Encoding: 57 57 17
Width: 899
VWidth: 999
Flags: HW
HStem: -25 53<122.862 358.315> 464 67<424.911 670.446> 1124 60<503.796 731.06>
VStem: 223 141<596.908 808 824 918.396> 807.658 138.947<759.644 1042.3>
LayerCount: 2
Fore
SplineSet
774 623 m 1
 779 643 785.957 674.008 790 695 c 0
 802.132 757.985 807.658 812.244 807.658 858.919 c 0
 807.658 1067.27 700.149 1124 616 1124 c 0
 522 1124 405.144 1036.97 364 824 c 0
 360.09 803.76 357.432 779.389 357.432 753.45 c 0
 357.432 653.779 396.475 531 552 531 c 0
 595 531 674 535 774 623 c 1
120 28 m 1
 257 41 376.982 75.0213 495 172 c 0
 606.983 264.02 701 401 757 565 c 1
 698 508 576 464 499 464 c 0
 261.398 464 215.649 618.344 215.649 729.814 c 0
 215.649 760.495 219.135 787.923 223 808 c 0
 250.139 948.973 366 1184 648 1184 c 0
 776.079 1184 946.605 1119.97 946.605 852.162 c 0
 946.605 804.235 940.962 749.816 929 688 c 0
 892.446 499.107 793 316 626 174 c 0
 467 40 319 -14 116 -25 c 1
 120 28 l 1
EndSplineSet
AlternateSubs2: "'aalt' Access All Alternates lookup 24" nine.fitted nine.oldstyle
Substitution2: "'sups' Superscript lookup 23" nine.superior
Substitution2: "'sinf' Wissenschaftliche Indices lookup 22" nine.inferior
Substitution2: "'pnum' Proportionalziffern lookup 21" nine.fitted
Substitution2: "'onum' Minuskelziffern lookup 20" nine.oldstyle
EndChar

StartChar: colon
Encoding: 58 58 18
Width: 450
VWidth: 2047
Flags: HW
HStem: 78 218<199.014 348.986> 616 218<292.274 444.416>
VStem: 163 222<113.595 260.405> 258 222<651.595 798.167>
LayerCount: 2
Fore
SplineSet
163 168 m 0
 163 228.493 220.75 296 293 296 c 0
 346 296 385 257 385 206 c 0
 385 145.507 327.25 78 255 78 c 0
 202 78 163 117 163 168 c 0
258 706 m 0
 258 769.324 317.413 834 388 834 c 0
 442 834 480 795 480 743 c 0
 480 685.7 423.833 616 350 616 c 0
 297 616 258 655 258 706 c 0
EndSplineSet
EndChar

StartChar: semicolon
Encoding: 59 59 19
Width: 450
VWidth: 2047
Flags: HW
HStem: -242 436<74 257 74 257> 616 218<292.584 444.726>
VStem: 74 274<-242 -9> 257 222<651.833 798.405>
LayerCount: 2
Fore
SplineSet
257 194 m 0
 319.931 194 356.195 144.509 356.195 63.5073 c 0
 356.195 41.5368 353.527 17.2481 348 -9 c 0
 317.891 -151.977 200 -220 74 -242 c 1
 74 -190 l 1
 187 -164 249 -102 258 -60 c 0
 259.204 -54.2213 259.77 -49.0224 259.77 -44.3386 c 0
 259.77 -10.1173 229.546 -3.39805 197 1 c 0
 165.242 6.29298 122.589 19.3681 122.589 68.3723 c 0
 122.589 74.9181 123.35 82.105 125 90 c 0
 137 147 192 194 257 194 c 0
387 834 m 0
 440 834 479 795 479 744 c 0
 479 680.676 419.587 616 349 616 c 0
 295 616 257 655 257 707 c 0
 257 764.3 313.167 834 387 834 c 0
EndSplineSet
EndChar

StartChar: less
Encoding: 60 60 20
Width: 999
VWidth: 2047
Flags: HMW
DStem2: 336 489 178 441 0.931794 -0.362988<0 651.627> 195 538 336 489 0.946433 0.322901<117.625 848.137>
LayerCount: 2
Fore
SplineSet
336 489 m 1
 943 252 l 1
 925 150 l 1
 178 441 l 1
 195 538 l 1
 1045 828 l 1
 1027 726 l 1
 336 489 l 1
EndSplineSet
EndChar

StartChar: equal
Encoding: 61 61 21
Width: 1080
VWidth: 2047
Flags: HMW
HStem: 294 101<205 997> 551 101<250 1042>
LayerCount: 2
Fore
SplineSet
1015 395 m 1
 997 294 l 1
 187 294 l 1
 205 395 l 1
 1015 395 l 1
1060 652 m 1
 1042 551 l 1
 232 551 l 1
 250 652 l 1
 1060 652 l 1
EndSplineSet
Substitution2: "'sinf' Wissenschaftliche Indices lookup 22" equal.inferior
Substitution2: "'sups' Superscript lookup 23" equal.superior
EndChar

StartChar: greater
Encoding: 62 62 22
Width: 999
VWidth: 2047
Flags: HMW
DStem2: 144 247 126 145 0.946433 0.322901<0 729.566> 245 823 227 721 0.931958 -0.362567<20.2065 671.833>
LayerCount: 2
Fore
SplineSet
834 484 m 1
 227 721 l 1
 245 823 l 1
 993 532 l 1
 976 435 l 1
 126 145 l 1
 144 247 l 1
 834 484 l 1
EndSplineSet
EndChar

StartChar: question
Encoding: 63 63 23
Width: 831
VWidth: 999
Flags: HW
HStem: -23 218<335.216 463.811> 1289 60<485.893 729.542>
VStem: 790 155<1037.94 1227.57>
DStem2: 409 377 461 377 0.177964 0.984037<0 231.384>
LayerCount: 2
Fore
SplineSet
290.164 86 m 0
 311.744 146 377.384 195 437.384 195 c 0
 484.423 195 515.018 164.279 515.018 121.713 c 0
 515.018 116.32 514.526 110.736 513.515 105 c 0
 512.456 99 510.398 93 508.164 86 c 0
 487.585 26 420.944 -23 360.944 -23 c 0
 313.246 -23 283.399 7.42752 283.399 50.3655 c 0
 283.399 56.039 283.92 61.931 284.99 68 c 0
 286.048 74 288.106 80 290.164 86 c 0
404 1171 m 0
 399 1141 402 1129 408 1118 c 0
 414 1107 417 1096 412 1069 c 0
 404 1022 359 997 319 997 c 0
 290 997 249 1010 249 1064 c 0
 249 1070 250 1077 251 1085 c 0
 265 1164 317.236 1219.67 387 1270 c 0
 457.238 1320.67 547 1349 655 1349 c 0
 840 1349 945 1253 945 1103 c 0
 945 1083 942.97 1063.01 939 1041 c 0
 909.78 879.04 774 789 666 719 c 0
 612 684 565 651 541 617 c 0
 505 566 486 516 477 467 c 2
 461 377 l 2
 459 363 447 356 431 356 c 0
 416 356 407 363 409 377 c 2
 426 471 l 2
 442 559 466.281 679.643 620 801 c 0
 715 876 768 936 785 1033 c 0
 788 1051 790 1068 790 1085 c 0
 790 1196 726 1289 624 1289 c 0
 507 1289 415 1232 404 1171 c 0
EndSplineSet
EndChar

StartChar: at
Encoding: 64 64 24
Width: 2057
VWidth: 2047
Flags: HW
HStem: -464 78<817.167 1323.7> -11 91<897.384 1076.51 1335.89 1624.68> 844 64<1147.53 1412.59> 1329 73<1022.47 1504.42>
VStem: 200 172<91.6987 629.613> 688 167<117.972 440.734> 1899 149<424.025 941.982>
DStem2: 1287 235 1443 256 0.334084 0.942543<601.907 703.416>
LayerCount: 2
Fore
SplineSet
1316 908 m 0
 1396 908 1476 862 1489 802 c 1
 1522 898 l 1
 1671 898 l 1
 1443 256 l 2
 1425.22 205.923 1393 112 1393 88 c 0
 1393 70 1411 68 1414 68 c 0
 1802 68 1899 410 1899 723 c 0
 1899 1087 1617 1329 1263 1329 c 0
 866 1329 372 976 372 367 c 0
 372 88 513 -386 1078 -386 c 0
 1280 -386 1445 -332 1587 -230 c 1
 1606 -265 l 1
 1609 -269 l 1
 1433 -401 1243 -464 1030 -464 c 0
 472 -464 200 -58 200 338 c 0
 200 916 673 1402 1277 1402 c 0
 1785 1402 2048 1053 2048 695 c 0
 2048 398 1903 -11 1314 -11 c 0
 1278 -11 1237 5 1237 68 c 0
 1237 101 1256 164 1287 235 c 1
 1242 165 1086 -6 937 -6 c 0
 731 -6 688 141 688 241 c 0
 688 323 739 638 1057 825 c 0
 1147 877 1226 908 1316 908 c 0
1444 709 m 0
 1444 786 1393 844 1316 844 c 0
 1010 844 855 449 855 251 c 0
 855 167 882 80 1014 80 c 0
 1076 80 1247 222 1332 390 c 0
 1366 458 1444 643 1444 709 c 0
EndSplineSet
EndChar

StartChar: A
Encoding: 65 65 25
Width: 1441
VWidth: 2047
Flags: HW
HStem: -2 59<32.0119 32.2415 32.2415 190.219 312.023 460.853 460.853 461 921.012 922.736 922.736 1095.43 1293.75 1359.2 1359.2 1422> 500 80<607.107 1014> 1336 20G<975.5 1000.5>
DStem2: 240 166 329 147 0.516404 0.856345<-17.9477 467.751 556.904 1167.57> 1042 1287 909 1126 0.196965 -0.98041<131.65 687.635 769.022 1150.03>
LayerCount: 2
Fore
SplineSet
329 147 m 2
 320.341 133.531 312 114.118 312 101 c 0
 312 72 343 57 399 57 c 2
 458 57 l 2
 467 57 472 50.25 472 40 c 1
 465 2 l 1
 461 -2 l 1
 461 -2 259 3 209 3 c 0
 157 3 25 -2 25 -2 c 1
 21 2 l 1
 28 40 l 2
 30.0254 50.9951 37 57 47 57 c 2
 71 57 l 2
 155 57 198 97 240 166 c 2
 916 1287 l 2
 946.111 1336.93 967 1356 984 1356 c 0
 1017 1356 1031 1340 1042 1287 c 2
 1265 177 l 2
 1281.07 97.0137 1315 57 1396 57 c 2
 1419 57 l 2
 1428 57 1436 50 1436 40 c 1
 1429 2 l 1
 1422 -2 l 1
 1422 -2 1267 3 1187 3 c 0
 1114 3 914 -2 914 -2 c 1
 910 2 l 1
 917 40 l 2
 919.025 50.995 926 57 936 57 c 2
 993 57 l 2
 1053.96 57 1100.09 77.667 1100.09 125.333 c 0
 1100.09 132.246 1099.23 139.623 1098 147 c 2
 1029 500 l 1
 599 500 l 2
 548 500 531.173 487.898 517 464 c 2
 329 147 l 2
649 580 m 2
 1014 580 l 1
 909 1126 l 1
 606 616 l 2
 602 609 600 604 600 599 c 0
 600 587 613 580 649 580 c 2
EndSplineSet
Substitution2: "'c2sc' Capitals to Small Capitals lookup 19" a.sc
EndChar

StartChar: B
Encoding: 66 66 26
Width: 1279
VWidth: 2047
Flags: HW
HStem: -2 57<107.095 125 125 298.29 470.393 516.465 493.429 860.878> 693 70<582 950.831> 1252 67<662.104 1024.06> 1270 55<334 457.616>
VStem: 1084 181<297.665 565.607 911.415 1185.08>
DStem2: 308 149 473 148 0.174003 0.984745<-1.92224 581.116 652.31 1077.53>
LayerCount: 2
Fore
SplineSet
1265 441 m 0
 1265 225 1122 -3 666 -3 c 0
 519 -3 424 2 363 2 c 2
 100 -2 l 1
 107 39 l 2
 109 46 113 55 125 55 c 2
 186 55 l 2
 267 55 296 77 308 149 c 2
 490 1177 l 2
 492 1190 493 1201 493 1211 c 0
 493 1254 469 1270 400 1270 c 2
 339 1270 l 2
 328 1271 325 1276 326 1284 c 2
 334 1325 l 1
 336 1325 531 1319 596 1319 c 0
 663 1319 783 1324 855 1324 c 0
 1181 1324 1256 1195 1256 1071 c 0
 1256 869 1072 762 1012 735 c 1
 1188 694 1265 587 1265 441 c 0
641 67 m 0
 981 67 1084 291 1084 440 c 0
 1084 591 975 693 762 693 c 2
 569 693 l 1
 473 148 l 2
 471.061 136.989 470 127 470 118 c 0
 470 76 502 67 641 67 c 0
744 763 m 2
 1026 763 1097 939 1097 1064 c 0
 1097 1222 960 1252 857 1252 c 0
 680 1252 667 1245 655 1178 c 2
 582 763 l 1
 744 763 l 2
EndSplineSet
Substitution2: "'c2sc' Capitals to Small Capitals lookup 19" b.sc
EndChar

StartChar: C
Encoding: 67 67 27
Width: 1340
VWidth: 2047
Flags: HW
HStem: -25 85<580.254 974.654> 1272 75<783.171 1169.08>
VStem: 198 183<292.882 645 684 755.395> 1342 64<917 1098.63>
LayerCount: 2
Fore
SplineSet
745 -25 m 0
 363 -25 198 230 198 512 c 0
 198 556 202.12 600.979 210 645 c 0
 282.102 1047.8 649 1347 988 1347 c 0
 1239 1347 1298 1256 1420 1255 c 1
 1406 917 l 1
 1342 910 l 1
 1327 1112 1249 1272 951 1272 c 0
 789 1272 468.201 1099.96 395 684 c 0
 386.024 632.996 381 582 381 532 c 0
 381 284 494 60 758 60 c 0
 948 60 1098 128 1271 286 c 1
 1313 256 l 1
 1142 74 942 -25 745 -25 c 0
EndSplineSet
Substitution2: "'c2sc' Capitals to Small Capitals lookup 19" c.sc
EndChar

StartChar: D
Encoding: 68 68 28
Width: 1494
VWidth: 2047
Flags: HW
HStem: -2 59<115.774 292.158 475.838 600.732 538.285 916.208> 1265 59<335 470.531 677.479 802.587 740.033 1046.82>
VStem: 1335 193<495.057 977.775>
DStem2: 309 149 474 148 0.173567 0.984822<3.82122 1076.5>
LayerCount: 2
Fore
SplineSet
474 148 m 2
 472 139 471 131 471 124 c 0
 471 78 511 68 685 68 c 0
 1205 68 1335 431 1335 743 c 0
 1335 1008 1209 1255 843 1255 c 0
 741 1255 668 1248 655 1175 c 2
 474 148 l 2
107 39 m 2
 109 49 116 57 126 57 c 2
 187 57 l 2
 264 57 297 83 309 149 c 2
 490 1174 l 2
 493 1189 494 1199 494 1210 c 0
 494 1253 470 1265 401 1265 c 2
 343 1265 l 2
 333.4 1265 327.619 1270.33 327.619 1279 c 0
 327.619 1280.88 332.269 1308.98 335 1324 c 1
 595 1320 l 2
 711.75 1320 835 1324 932 1324 c 0
 1285 1324 1528 1074 1528 750 c 0
 1528 353 1237 -2 734 -2 c 0
 524 -2 438 2 363 2 c 2
 100 -2 l 1
 107 39 l 2
EndSplineSet
Substitution2: "'c2sc' Capitals to Small Capitals lookup 19" d.sc
EndChar

StartChar: E
Encoding: 69 69 29
Width: 1167
VWidth: 2047
Flags: HMW
HStem: -2 59<35.3384 217.789> 0 80<396.95 941.96> 669 70<503 850.136> 1242 80<586.335 1068.16> 1265 59<258 415.258>
DStem2: 234 147 399 147 0.173403 0.984851<-28.0353 558.657 629.677 1117.67>
LayerCount: 2
Fore
SplineSet
942 1242 m 2
 666 1242 l 2
 617 1242 589 1224 580 1175 c 2
 503 739 l 1
 783 739 l 2
 855 739 878.691 773.126 902 830 c 2
 927 891 l 2
 930 900 937 908 945 908 c 2
 990 908 l 2
 995 908 996 904 996 899 c 1
 980 848 957 773 945 704 c 0
 933 634 928 543 927 508 c 1
 920 501 l 1
 873 501 l 2
 862 501 859 509 859 516 c 2
 858 579 l 2
 857 638 840 669 771 669 c 2
 491 669 l 1
 399 147 l 2
 397.697 139.606 397.068 132.981 397.068 127.054 c 0
 397.068 89.6254 422.152 80 461 80 c 2
 800 80 l 2
 956 80 1037 200 1104 348 c 1
 1165 338 l 1
 1123 232 1080 114 1051 0 c 1
 449 0 l 1
 290 2 l 1
 25 -2 l 1
 33 43 l 2
 34 50 38 57 51 57 c 2
 112 57 l 2
 194 57 223.946 90.0095 234 147 c 2
 415 1173 l 2
 416.698 1182.88 417.586 1191.91 417.586 1200.1 c 0
 417.586 1244.98 390.957 1265 325 1265 c 2
 264 1265 l 2
 250 1265 250 1274 251 1279 c 2
 258 1324 l 1
 524 1320 l 1
 683 1322 l 1
 1208 1324 l 1
 1198.99 1225.79 1194.85 1114.6 1194.85 1032.1 c 0
 1194.85 1023.04 1194.9 1014.32 1195 1006 c 1
 1134 996 l 1
 1113 1137 1096 1242 942 1242 c 2
EndSplineSet
Substitution2: "'c2sc' Capitals to Small Capitals lookup 19" e.sc
EndChar

StartChar: F
Encoding: 70 70 30
Width: 998
VWidth: 2047
Flags: HW
HStem: -2 59<37.0007 38.3496 38.3496 216.8 399.457 552> 669 70<503 858.136> 1242 80<586.335 1059.1> 1265 59<265 417.117>
VStem: 867 68<508 516 516 621.978> 1124 62<1006 1167.71>
DStem2: 234 147 399 147 0.173403 0.984851<-44.1099 558.657 629.677 1119.12>
LayerCount: 2
Fore
SplineSet
580 1175 m 2
 503 739 l 1
 791 739 l 2
 863 739 886.691 773.126 910 830 c 2
 935 891 l 2
 938 900 945 908 953 908 c 2
 998 908 l 2
 1003 908 1004 904 1004 899 c 1
 989 852 965 773 953 704 c 0
 941 634 937 572 935 508 c 1
 928 501 l 1
 881 501 l 2
 870 501 867 509 867 516 c 2
 866 579 l 2
 865 638 848 669 779 669 c 2
 491 669 l 1
 399 147 l 2
 397.42 137.951 396.603 129.645 396.603 122.055 c 0
 396.603 76.8009 425.634 57 495 57 c 2
 549 57 l 2
 558 57 565 51 563 40 c 2
 556 2 l 1
 552 -2 l 1
 294 2 l 2
 221 2 30 -2 30 -2 c 1
 26 2 l 1
 33 40 l 2
 35.0255 50.9953 42 57 52 57 c 2
 106 57 l 2
 190 57 223.965 90.0061 234 147 c 2
 415 1175 l 2
 417.096 1186.24 418.321 1196.47 418.321 1205.66 c 0
 418.321 1244.69 396.229 1265 325 1265 c 2
 264 1265 l 2
 250 1265 250 1275 251 1280 c 2
 258 1320 l 1
 265 1324 l 1
 521 1320 l 1
 674 1322 l 1
 1199 1324 l 1
 1189.99 1225.79 1185.85 1114.6 1185.85 1032.1 c 0
 1185.85 1023.04 1185.9 1014.32 1186 1006 c 1
 1124 996 l 1
 1104 1137 1087 1242 933 1242 c 2
 666 1242 l 2
 617 1242 589 1224 580 1175 c 2
EndSplineSet
Substitution2: "'c2sc' Capitals to Small Capitals lookup 19" f.sc
EndChar

StartChar: G
Encoding: 71 71 31
Width: 1454
VWidth: 2047
Flags: HW
HStem: -25 75<647.144 1066.38> 555 74<1072 1217.88 1401.99 1511> 1272 75<800.542 1217.05>
VStem: 200 186<336.628 610.986> 1388 64<917 1098.63>
DStem2: 1167 151 1345 228 0.172533 0.985004<95.7325 343.381>
LayerCount: 2
Fore
SplineSet
1039 1347 m 0
 1290 1347 1344 1256 1466 1255 c 1
 1452 917 l 1
 1388 910 l 1
 1373 1112 1295 1272 997 1272 c 0
 721 1272 458 1028 395 669 c 0
 389 634 386 599 386 562 c 0
 386 315 530 50 847 50 c 0
 959 50 1085 85 1167 151 c 1
 1222 465 l 2
 1224 474 1224 482 1224 490 c 0
 1224 535 1195 555 1126 555 c 2
 1072 555 l 2
 1063 555 1056 561 1058 572 c 2
 1067 625 l 1
 1072 629 l 1
 1072 629 1249 625 1329 625 c 0
 1402 625 1521 629 1521 629 c 1
 1524 625 l 1
 1515 572 l 2
 1513 561 1506 555 1496 555 c 2
 1494 555 l 2
 1423 555 1397.1 521.982 1387 465 c 2
 1345 228 l 2
 1344 224 1344 221 1344 217 c 0
 1344 199 1353 185 1368 169 c 1
 1208 52 1030 -25 788 -25 c 0
 421 -25 200 212 200 514 c 0
 200 551 203.082 589.985 210 629 c 0
 289.944 1079.83 688 1347 1039 1347 c 0
EndSplineSet
Substitution2: "'c2sc' Capitals to Small Capitals lookup 19" g.sc
EndChar

StartChar: grave
Encoding: 96 96 32
Width: 803
VWidth: 2047
Flags: HMW
LayerCount: 2
Fore
SplineSet
617 1430 m 1
 715 1173 l 2
 719 1161 721 1151 721 1142 c 0
 721 1136 720 1130 719 1124 c 0
 717 1114 701 1102 686 1102 c 0
 672 1102 660 1112 633 1142 c 2
 438 1365 l 1
 447 1387 l 1
 468 1399 515 1435 588 1435 c 0
 598 1435 611 1434 617 1430 c 1
EndSplineSet
EndChar

StartChar: ograve
Encoding: 242 242 33
Width: 912
VWidth: 2047
Flags: HW
HStem: -25 73<408.196 626.3> 837 68<498.857 749.771>
VStem: 160 172<131.796 552.584> 806 166<343.35 773.602>
LayerCount: 2
Fore
SplineSet
332 350 m 0
 332 88 435 48 497 48 c 0
 728 48 786 422 786 555 c 0
 786 687 786 837 627 837 c 0
 393 837 332 534 332 350 c 0
160 333 m 0
 160 579 322 905 664 905 c 0
 915 905 952 716 952 569 c 0
 952 246 708 -25 446 -25 c 0
 186 -25 160 225 160 333 c 0
726 1373 m 1
 869 1116 l 2
 880 1096 882 1082 882 1067 c 0
 882 1057 868 1045 852 1045 c 0
 839 1045 825 1055 793 1085 c 2
 558 1308 l 1
 563 1330 l 1
 579 1343 626 1378 696 1378 c 0
 706 1378 719 1376 726 1373 c 1
EndSplineSet
EndChar

StartChar: oacute
Encoding: 243 243 34
Width: 912
VWidth: 2047
Flags: HW
HStem: -25 73<408.196 626.3> 837 68<498.857 749.771>
VStem: 160 172<131.796 552.584> 806 166<343.35 773.602>
LayerCount: 2
Fore
SplineSet
332 350 m 0
 332 88 435 48 497 48 c 0
 728 48 786 422 786 555 c 0
 786 687 786 837 627 837 c 0
 393 837 332 534 332 350 c 0
160 333 m 0
 160 579 322 905 664 905 c 0
 915 905 952 716 952 569 c 0
 952 246 708 -25 446 -25 c 0
 186 -25 160 225 160 333 c 0
803 1357 m 1
 807 1358 813 1359 819 1359 c 0
 895 1359 930 1300 938 1294 c 1
 940 1271 l 1
 675 1085 l 2
 642 1063 626 1054 614 1054 c 0
 595 1054 584 1070 584 1080 c 0
 584 1090 588 1109 604 1127 c 2
 803 1357 l 1
EndSplineSet
EndChar

StartChar: ocircumflex
Encoding: 244 244 35
Width: 912
VWidth: 2047
Flags: HW
HStem: -25 73<408.196 626.3> 837 68<498.857 749.771> 1045 293<829 926>
VStem: 160 172<131.796 552.584> 455 519<1072 1072> 806 166<343.35 773.602>
LayerCount: 2
Fore
SplineSet
332 350 m 0
 332 88 435 48 497 48 c 0
 728 48 786 422 786 555 c 0
 786 687 786 837 627 837 c 0
 393 837 332 534 332 350 c 0
160 333 m 0
 160 579 322 905 664 905 c 0
 915 905 952 716 952 569 c 0
 952 246 708 -25 446 -25 c 0
 186 -25 160 225 160 333 c 0
829 1338 m 1
 866 1242 920 1154 974 1072 c 1
 926 1045 l 1
 860 1104 803 1155 751 1229 c 1
 657 1151 578 1100 489 1045 c 1
 455 1072 l 1
 546 1153 645 1244 727 1338 c 1
 829 1338 l 1
EndSplineSet
EndChar

StartChar: otilde
Encoding: 245 245 36
Width: 912
VWidth: 2047
Flags: HW
HStem: -25 73<408.196 626.3> 837 68<498.857 749.771> 1076 90<769.933 938.872> 1175 94<521.185 697.044>
VStem: 160 172<131.796 552.584> 429 608<1087 1261> 806 166<343.35 773.602>
LayerCount: 2
Fore
SplineSet
332 350 m 0
 332 88 435 48 497 48 c 0
 728 48 786 422 786 555 c 0
 786 687 786 837 627 837 c 0
 393 837 332 534 332 350 c 0
160 333 m 0
 160 579 322 905 664 905 c 0
 915 905 952 716 952 569 c 0
 952 246 708 -25 446 -25 c 0
 186 -25 160 225 160 333 c 0
864 1166 m 0
 908 1166 942 1188 991 1274 c 1
 1037 1261 l 1
 984 1138 911 1076 816 1076 c 0
 771 1076 735 1102 699 1129 c 0
 666 1153 633 1175 597 1175 c 0
 544 1175 510 1145 475 1077 c 1
 429 1087 l 1
 485 1208 545 1269 633 1269 c 0
 696 1269 734 1240 768 1212 c 0
 796 1188 825 1166 864 1166 c 0
EndSplineSet
EndChar

StartChar: odieresis
Encoding: 246 246 37
Width: 912
VWidth: 2047
Flags: HW
HStem: -25 73<408.196 626.3> 837 68<498.857 749.771> 1080 185<495.73 635.664 824.229 965.094>
VStem: 160 172<131.796 552.584> 470.104 190<1102.17 1240.83> 799.104 190<1103.17 1241.83> 806 166<343.35 773.602>
LayerCount: 2
Fore
SplineSet
470.104 1155 m 0
 470.104 1199 512.104 1264 576.104 1264 c 0
 621.104 1264 660.104 1231 660.104 1188 c 0
 660.104 1144 617.104 1079 553.104 1079 c 0
 509.104 1079 470.104 1112 470.104 1155 c 0
799.104 1156 m 0
 799.104 1200 842.104 1265 906.104 1265 c 0
 950.104 1265 989.104 1232 989.104 1189 c 0
 989.104 1145 947.104 1080 883.104 1080 c 0
 838.104 1080 799.104 1113 799.104 1156 c 0
332 350 m 0
 332 88 435 48 497 48 c 0
 728 48 786 422 786 555 c 0
 786 687 786 837 627 837 c 0
 393 837 332 534 332 350 c 0
160 333 m 0
 160 579 322 905 664 905 c 0
 915 905 952 716 952 569 c 0
 952 246 708 -25 446 -25 c 0
 186 -25 160 225 160 333 c 0
EndSplineSet
EndChar

StartChar: divide
Encoding: 247 247 38
Width: 1080
VWidth: 2047
Flags: HW
HStem: 105 183<470.423 616.74> 425 101<135 945> 655 183<470.423 616.74>
VStem: 452 183<123.245 269.563> 452 183<673.245 819.562>
LayerCount: 2
Fore
SplineSet
501 157 m 0
 501 218.7 560.683 281 628 281 c 0
 676 281 708 247 708 202 c 0
 708 132.814 640.593 79 581 79 c 0
 534 79 501 112 501 157 c 0
648 824 m 0
 648 885.7 707.683 948 775 948 c 0
 823 948 855 914 855 869 c 0
 855 799.814 787.593 746 728 746 c 0
 680 746 648 779 648 824 c 0
1072 549 m 1
 1048 448 l 1
 238 448 l 1
 262 549 l 1
 1072 549 l 1
EndSplineSet
EndChar

StartChar: ugrave
Encoding: 249 249 39
Width: 1070
VWidth: 2047
Flags: HW
HStem: -25 106<340.165 538.576 834.508 956.548> 788 117<345.846 493> 1045 333<686 842>
VStem: 548 324<1067 1308>
DStem2: 261 277 421 306 0.247598 0.968863<67.7127 371.57> 770.017 196 926 255 0.218267 0.975889<91.6233 700.899>
LayerCount: 2
Fore
SplineSet
458 905 m 0
 528 905 542 878 542 829 c 0
 542 791 527 722 510 654 c 2
 421 306 l 2
 406.435 249.051 400.154 205.385 400.154 172.373 c 0
 400.154 103.498 427.496 81 464 81 c 0
 566 81 671 236 822 494 c 1
 913 880 l 1
 935 880 1023 891 1067 898 c 1
 916 255 l 2
 901 190 893 137 893 117 c 0
 893 94 914 89 919 89 c 0
 948 89 981 134 1036 213 c 1
 1075 180 l 1
 1001 52 921 -25 826 -25 c 0
 756 -25 739 29 739 68 c 0
 739 91.4463 744.502 139.969 760.017 196 c 2
 792 311.5 l 1
 785 316 l 1
 641 102 560 -25 377 -25 c 0
 299.292 -25 241.218 23.2662 241.218 140.24 c 0
 241.218 178.313 247.37 223.665 261 277 c 2
 353 637 l 2
 370 704 376 740 376 760 c 0
 376 783 355 788 350 788 c 0
 321 788 287 749 225 675 c 1
 182 707 l 1
 253 805 379 905 458 905 c 0
716 1373 m 1
 859 1116 l 2
 870 1096 872 1082 872 1067 c 0
 872 1057 858 1045 842 1045 c 0
 829 1045 815 1055 783 1085 c 2
 548 1308 l 1
 553 1330 l 1
 569 1343 616 1378 686 1378 c 0
 696 1378 709 1376 716 1373 c 1
EndSplineSet
EndChar

StartChar: uacute
Encoding: 250 250 40
Width: 1070
VWidth: 2047
Flags: HW
HStem: -25 106<340.165 538.576 834.508 956.548> 788 117<345.846 493> 1054 305<713 918>
VStem: 683 356<1080 1271>
DStem2: 261 277 421 306 0.247598 0.968863<67.7127 371.57> 770.017 196 926 255 0.218267 0.975889<91.6233 700.899>
LayerCount: 2
Fore
SplineSet
458 905 m 0
 528 905 542 878 542 829 c 0
 542 791 527 722 510 654 c 2
 421 306 l 2
 406.435 249.051 400.154 205.385 400.154 172.373 c 0
 400.154 103.498 427.496 81 464 81 c 0
 566 81 671 236 822 494 c 1
 913 880 l 1
 935 880 1023 891 1067 898 c 1
 916 255 l 2
 901 190 893 137 893 117 c 0
 893 94 914 89 919 89 c 0
 948 89 981 134 1036 213 c 1
 1075 180 l 1
 1001 52 921 -25 826 -25 c 0
 756 -25 739 29 739 68 c 0
 739 91.4463 744.502 139.969 760.017 196 c 2
 792 311.5 l 1
 785 316 l 1
 641 102 560 -25 377 -25 c 0
 299.292 -25 241.218 23.2662 241.218 140.24 c 0
 241.218 178.313 247.37 223.665 261 277 c 2
 353 637 l 2
 370 704 376 740 376 760 c 0
 376 783 355 788 350 788 c 0
 321 788 287 749 225 675 c 1
 182 707 l 1
 253 805 379 905 458 905 c 0
902 1357 m 1
 906 1358 912 1359 918 1359 c 0
 994 1359 1029 1300 1037 1294 c 1
 1039 1271 l 1
 774 1085 l 2
 741 1063 725 1054 713 1054 c 0
 694 1054 683 1070 683 1080 c 0
 683 1090 687 1109 703 1127 c 2
 902 1357 l 1
EndSplineSet
EndChar

StartChar: ucircumflex
Encoding: 251 251 41
Width: 1070
VWidth: 2047
Flags: HW
HStem: -25 106<340.165 538.576 834.508 956.548> 788 117<345.846 493> 1044 293<877.052 974.052>
VStem: 503.052 519<1071 1071>
DStem2: 261 277 421 306 0.247598 0.968863<67.7127 371.57> 770.017 196 926 255 0.218267 0.975889<91.6233 700.899>
LayerCount: 2
Fore
SplineSet
458 905 m 0
 528 905 542 878 542 829 c 0
 542 791 527 722 510 654 c 2
 421 306 l 2
 406.435 249.051 400.154 205.385 400.154 172.373 c 0
 400.154 103.498 427.496 81 464 81 c 0
 566 81 671 236 822 494 c 1
 913 880 l 1
 935 880 1023 891 1067 898 c 1
 916 255 l 2
 901 190 893 137 893 117 c 0
 893 94 914 89 919 89 c 0
 948 89 981 134 1036 213 c 1
 1075 180 l 1
 1001 52 921 -25 826 -25 c 0
 756 -25 739 29 739 68 c 0
 739 91.4463 744.502 139.969 760.017 196 c 2
 792 311.5 l 1
 785 316 l 1
 641 102 560 -25 377 -25 c 0
 299.292 -25 241.218 23.2662 241.218 140.24 c 0
 241.218 178.313 247.37 223.665 261 277 c 2
 353 637 l 2
 370 704 376 740 376 760 c 0
 376 783 355 788 350 788 c 0
 321 788 287 749 225 675 c 1
 182 707 l 1
 253 805 379 905 458 905 c 0
877.052 1337 m 1
 914.052 1241 968.052 1153 1022.05 1071 c 1
 974.052 1044 l 1
 908.052 1103 851.052 1154 799.052 1228 c 1
 705.052 1150 626.052 1099 537.052 1044 c 1
 503.052 1071 l 1
 594.052 1152 693.052 1243 775.052 1337 c 1
 877.052 1337 l 1
EndSplineSet
EndChar

StartChar: ebreve
Encoding: 277 277 42
Width: 878
VWidth: 2047
Flags: HW
HStem: -25 98<412.286 647.674> 841 64<564.303 803.993> 1013 117<575.191 832.478>
VStem: 154 169<167.239 434.471> 462 62<1179.43 1290> 816 142<636.56 826.684>
LayerCount: 2
Fore
SplineSet
527 1318 m 1
 525 1307 524 1296 524 1285 c 0
 524 1196 596 1130 707 1130 c 0
 801 1130 937 1191 971 1318 c 1
 1019 1290 l 1
 951 1084 782 1013 680 1013 c 0
 539 1013 462 1106 462 1238 c 0
 462 1255 464 1272 466 1290 c 1
 527 1318 l 1
816 759 m 0
 816 819 764 841 692 841 c 0
 592 841 406 743 335 433 c 1
 491 446 816 532 816 759 c 0
326 379 m 1
 324 363 323 348 323 337 c 0
 323 151 434 73 527 73 c 0
 625 73 714 131 824 249 c 1
 868 217 l 1
 754 59 618 -25 453 -25 c 0
 244 -25 154 116 154 291 c 0
 154 551 388 905 738 905 c 0
 903 905 958 829 958 757 c 0
 958 680 887 448 326 379 c 1
EndSplineSet
EndChar

StartChar: Edotaccent
Encoding: 278 278 43
Width: 1192
VWidth: 2047
Flags: HW
HStem: -5 53<59.0558 181.664> -5 88<385 911.854> 674 92<543 881.16> 880 20G<977.172 1033> 1234 88<651 1178.55> 1269 53<353 460.924> 1416 21G<945 972.5>
VStem: 1279 46<1036 1078.62>
DStem2: 234 142 385 83 0.225169 0.97432<-23.1738 583.187 677.553 1139.26> 899 541 950 541 0.225256 0.9743<11.4881 109.518 255.113 368.47>
LayerCount: 2
Fore
SplineSet
1357 1322 m 1
 1362 1322 l 1
 1325 1036 l 1
 1279 1031 l 1
 1278 1078 1255 1134 1246 1155 c 0
 1230 1189 1211 1210 1190 1222 c 0
 1174 1230 1157 1234 1136 1234 c 2
 651 1234 l 1
 543 766 l 1
 859 766 l 2
 876 766 890 768 904 770 c 0
 922 772 936 779 948 791 c 0
 956 800 962 816 968 842 c 2
 982 900 l 1
 1033 900 l 1
 950 541 l 1
 899 541 l 1
 912 599 l 2
 919 627 919 643 915 650 c 0
 907 665 895 671 882 672 c 0
 864 673 851 674 838 674 c 2
 522 674 l 1
 385 83 l 1
 862 83 l 2
 887 83 906 87 922 94 c 0
 949 107 976 129 1005 162 c 0
 1034 193 1091 259 1122 326 c 1
 1167 323 l 1
 1059 -1 l 1
 1058 -5 l 1
 1053 -5 l 1
 47 -5 l 1
 56 34 l 2
 58 41 62 48 75 48 c 2
 136 48 l 2
 165 49 182 54 190 59 c 0
 205 69 216 82 222 98 c 0
 226 109 229.847 124.035 234 142 c 2
 473 1176 l 2
 477 1197 480 1211 480 1219 c 0
 482 1237 475 1249 466 1258 c 0
 461 1264 447 1268 418 1269 c 2
 357 1269 l 2
 343 1269 343 1278 344 1283 c 2
 353 1322 l 1
 1357 1322 l 1
1079 1515 m 0
 1073 1488 1058 1465 1035 1445 c 0
 1011 1426 986 1416 959 1416 c 0
 931 1416 909 1426 895 1445 c 0
 884 1459 879 1475 879 1492 c 0
 879 1499 880 1507 882 1515 c 0
 888 1543 904 1567 927 1586 c 0
 951 1605 977 1615 1005 1615 c 0
 1032 1615 1053 1605 1067 1586 c 0
 1077 1573 1082 1558 1082 1540 c 0
 1082 1532 1081 1524 1079 1515 c 0
EndSplineSet
EndChar

StartChar: edotaccent
Encoding: 279 279 44
Width: 895
VWidth: 2047
Flags: HW
HStem: -25 98<412.286 647.674> 841 64<564.303 803.993> 1026 196<662.05 809.922>
VStem: 154 169<167.239 434.471> 637 198<1050.25 1197.96> 816 142<636.56 826.684>
LayerCount: 2
Fore
SplineSet
751 1222 m 0
 797 1222 835 1190 835 1139 c 0
 835 1077 781 1026 723 1026 c 0
 671 1026 637 1063 637 1109 c 0
 637 1166 685 1222 751 1222 c 0
816 759 m 0
 816 819 764 841 692 841 c 0
 592 841 406 743 335 433 c 1
 491 446 816 532 816 759 c 0
326 379 m 1
 324 363 323 348 323 337 c 0
 323 151 434 73 527 73 c 0
 625 73 714 131 824 249 c 1
 868 217 l 1
 754 59 618 -25 453 -25 c 0
 244 -25 154 116 154 291 c 0
 154 551 388 905 738 905 c 0
 903 905 958 829 958 757 c 0
 958 680 887 448 326 379 c 1
EndSplineSet
EndChar

StartChar: Eogonek
Encoding: 280 280 45
Width: 1173
VWidth: 2047
Flags: HW
HStem: -443 81<787.981 957.653> -2 57<34.6117 216.55> 0 80<418.773 867.804 913.147 982.707> 669 70<503 859.93> 1242 80<586.335 1080.99> 1267 57<258 415.546>
VStem: 646 129<-347.647 -161.997> 867 68<508 516 516 579> 1139 56<1036 1133.62>
DStem2: 234 147 399 147 0.173403 0.984851<8.84475 558.657 629.677 1070.55>
LayerCount: 2
Fore
SplineSet
1216 1322 m 1
 1195 1036 l 1
 1139 1030 l 1
 1139 1118 1092 1242 986 1242 c 2
 666 1242 l 2
 617 1242 589 1224 580 1175 c 2
 503 739 l 1
 791 739 l 2
 863 739 886.691 773.126 910 830 c 2
 935 891 l 2
 938 900 945 908 953 908 c 2
 998 908 l 2
 1003 908 1004 904 1004 899 c 1
 987 833 965 773 953 704 c 0
 941 634 939 574 935 508 c 1
 928 501 l 1
 881 501 l 2
 870 501 867 509 867 516 c 2
 866 579 l 2
 865 638 848 669 779 669 c 2
 491 669 l 1
 399 147 l 2
 398 139 397 133 397 127 c 0
 397 90 422 80 461 80 c 2
 854 80 l 2
 988 80 1065 189 1123 337 c 1
 1176 328 l 1
 1066 0 l 1
 1062 0 l 2
 890 0 775 -157 775 -266 c 0
 775 -321 810 -362 875 -362 c 0
 936 -362 983 -332 1030 -290 c 1
 1058 -306 l 1
 993 -402 882 -443 810 -443 c 0
 712 -443 646 -394 646 -304 c 0
 646 -193.835 734.46 -70.1857 867.804 0 c 1
 449 0 l 1
 290 2 l 1
 25 -2 l 1
 32 41 l 2
 33 48 38 55 51 55 c 2
 112 55 l 2
 194 55 223.965 90.0061 234 147 c 2
 415 1175 l 2
 417 1185 418 1194 418 1202 c 0
 418 1247 391 1267 325 1267 c 2
 264 1267 l 2
 250 1267 250 1276 251 1281 c 2
 258 1324 l 1
 524 1320 l 1
 683 1322 l 1
 1216 1322 l 1
EndSplineSet
Substitution2: "'c2sc' Capitals to Small Capitals lookup 19" eogonek.sc
EndChar

StartChar: eogonek
Encoding: 281 281 46
Width: 895
VWidth: 2047
Flags: HW
HStem: -427 79<491.893 660.277> -25 98<412.286 591.12> 841 64<564.303 803.993>
VStem: 154 169<167.239 434.471> 351 125<-332.087 -158.046> 816 142<636.56 826.684>
LayerCount: 2
Fore
SplineSet
335 433 m 1
 491 446 816 532 816 759 c 0
 816 819 764 841 692 841 c 0
 592 841 406 743 335 433 c 1
958 757 m 0
 958 680 887 448 326 379 c 1
 324 363 323 348 323 337 c 0
 323 151 434 73 527 73 c 0
 625 73 714 131 824 249 c 1
 868 217 l 1
 816.81 146.053 761.185 90.0268 700.49 49.8263 c 0
 618.871 -15.1621 476 -140.546 476 -257 c 0
 476 -304 515 -348 582 -348 c 0
 643 -348 681 -320 734 -274 c 1
 762 -289 l 1
 687 -381 604 -427 520 -427 c 0
 422 -427 351 -380 351 -290 c 0
 351 -189.648 433.94 -93.6151 521.311 -19.9842 c 1
 499.108 -23.3186 476.344 -25 453 -25 c 0
 244 -25 154 116 154 291 c 0
 154 551 388 905 738 905 c 0
 903 905 958 829 958 757 c 0
EndSplineSet
EndChar

StartChar: Ecaron
Encoding: 282 282 47
Width: 1173
VWidth: 2047
Flags: HW
HStem: -2 57<34.6117 216.55> 0 80<418.773 982.707> 669 70<503 859.93> 1242 80<586.335 1080.99> 1267 57<258 415.546> 1429 21G<754 903>
VStem: 867 68<508 516 516 579> 1139 56<1036 1133.62>
DStem2: 234 147 399 147 0.173403 0.984851<8.84475 558.657 629.677 1070.55>
LayerCount: 2
Fore
SplineSet
776 1429 m 1
 732 1504 676 1566 615 1622 c 1
 656 1664 l 1
 728 1629 789 1589 845 1538 c 1
 932 1593 1007 1630 1093 1664 c 1
 1113 1622 l 1
 1023 1564 942 1498 864 1429 c 1
 776 1429 l 1
1216 1322 m 1
 1195 1036 l 1
 1139 1030 l 1
 1139 1118 1092 1242 986 1242 c 2
 666 1242 l 2
 617 1242 589 1224 580 1175 c 2
 503 739 l 1
 791 739 l 2
 863 739 886.691 773.126 910 830 c 2
 935 891 l 2
 938 900 945 908 953 908 c 2
 998 908 l 2
 1003 908 1004 904 1004 899 c 1
 987 833 965 773 953 704 c 0
 941 634 939 574 935 508 c 1
 928 501 l 1
 881 501 l 2
 870 501 867 509 867 516 c 2
 866 579 l 2
 865 638 848 669 779 669 c 2
 491 669 l 1
 399 147 l 2
 398 139 397 133 397 127 c 0
 397 90 422 80 461 80 c 2
 854 80 l 2
 988 80 1065 189 1123 337 c 1
 1176 328 l 1
 1066 0 l 1
 449 0 l 1
 290 2 l 1
 25 -2 l 1
 32 41 l 2
 33 48 38 55 51 55 c 2
 112 55 l 2
 194 55 223.965 90.0061 234 147 c 2
 415 1175 l 2
 417 1185 418 1194 418 1202 c 0
 418 1247 391 1267 325 1267 c 2
 264 1267 l 2
 250 1267 250 1276 251 1281 c 2
 258 1324 l 1
 524 1320 l 1
 683 1322 l 1
 1216 1322 l 1
EndSplineSet
Substitution2: "'c2sc' Capitals to Small Capitals lookup 19" ecaron.sc
EndChar

StartChar: ecaron
Encoding: 283 283 48
Width: 883
VWidth: 2047
Flags: HW
HStem: -25 98<412.286 647.674> 841 64<564.303 803.993> 1302 20G<511.444 580 939.5 1008.44>
VStem: 154 169<167.239 434.471> 816 142<636.56 826.684>
LayerCount: 2
Fore
SplineSet
644 1029 m 1
 607 1125 552 1218 499 1295 c 1
 547 1322 l 1
 613 1263 667 1211 720 1137 c 1
 814 1215 895 1267 984 1322 c 1
 1017 1295 l 1
 927 1214 828 1123 746 1029 c 1
 644 1029 l 1
816 759 m 0
 816 819 764 841 692 841 c 0
 592 841 406 743 335 433 c 1
 491 446 816 532 816 759 c 0
326 379 m 1
 324 363 323 348 323 337 c 0
 323 151 434 73 527 73 c 0
 625 73 714 131 824 249 c 1
 868 217 l 1
 754 59 618 -25 453 -25 c 0
 244 -25 154 116 154 291 c 0
 154 551 388 905 738 905 c 0
 903 905 958 829 958 757 c 0
 958 680 887 448 326 379 c 1
EndSplineSet
EndChar

StartChar: Gcircumflex
Encoding: 284 284 49
Width: 1411
VWidth: 2047
Flags: HW
HStem: -25 75<613.144 1032.38> 555 74<1038 1183.88 1367.99 1477> 1272 75<766.542 1183.05> 1414 21G<791.952 844 1202 1258>
VStem: 166 186<336.628 610.986> 1354 64<917 1098.63>
DStem2: 1133 151 1311 228 0.172533 0.985004<95.7325 343.381>
LayerCount: 2
Fore
SplineSet
1118 1649 m 1
 1162 1574 1218 1512 1280 1456 c 1
 1238 1414 l 1
 1166 1449 1105 1489 1049 1540 c 1
 962 1485 887 1448 801 1414 c 1
 782 1456 l 1
 871 1514 952 1580 1030 1649 c 1
 1118 1649 l 1
1005 1347 m 0
 1256 1347 1310 1256 1432 1255 c 1
 1418 917 l 1
 1354 910 l 1
 1339 1112 1261 1272 963 1272 c 0
 687 1272 424 1028 361 669 c 0
 355 634 352 599 352 562 c 0
 352 315 496 50 813 50 c 0
 925 50 1051 85 1133 151 c 1
 1188 465 l 2
 1190 474 1190 482 1190 490 c 0
 1190 535 1161 555 1092 555 c 2
 1038 555 l 2
 1029 555 1022 561 1024 572 c 2
 1033 625 l 1
 1038 629 l 1
 1038 629 1215 625 1295 625 c 0
 1368 625 1487 629 1487 629 c 1
 1490 625 l 1
 1481 572 l 2
 1479 561 1472 555 1462 555 c 2
 1460 555 l 2
 1389 555 1363.1 521.983 1353 465 c 2
 1311 228 l 2
 1310 224 1310 221 1310 217 c 0
 1310 199 1319 185 1334 169 c 1
 1174 52 996 -25 754 -25 c 0
 387 -25 166 212 166 514 c 0
 166 551 169.082 589.986 176 629 c 0
 255.944 1079.83 654 1347 1005 1347 c 0
EndSplineSet
EndChar

StartChar: gcircumflex
Encoding: 285 285 50
Width: 957
VWidth: 2047
Flags: HW
HStem: -485 79<237.086 640.557> -25 114<286.903 476.174> -20 125<498.585 704.656> 256 58<443.724 665.047> 850 55<492.826 712.305> 856 83<894.179 1044.76> 1302 20G<654 815.5>
VStem: 19 122<-328.481 -136.801> 166 114<99.3746 233.283> 242 150<367.544 712.028> 765 148<448.897 748.518> 793 113<-272.889 -93.5506>
LayerCount: 2
Fore
SplineSet
797 1322 m 1
 834 1226 888 1138 942 1056 c 1
 894 1029 l 1
 828 1088 771 1139 719 1213 c 1
 625 1135 546 1084 457 1029 c 1
 423 1056 l 1
 514 1137 613 1228 695 1322 c 1
 797 1322 l 1
258 -19 m 1
 208 -55 141 -139 141 -237 c 0
 141 -344 272 -406 502 -406 c 0
 708 -406 793 -277 793 -199 c 0
 793 -128 754 -20 451 -20 c 2
 333 -25 l 2
 303 -25 285 -25 258 -19 c 1
913 629 m 0
 913 378 711 256 524 256 c 0
 448 256 389 270 347 298 c 1
 310 257 280 216 280 167 c 0
 280 111 324 89 385 89 c 0
 403 89 439 91 478 96 c 0
 526 101 581 105 614 105 c 0
 862 105 906 -69 906 -123 c 0
 906 -325 678 -485 398 -485 c 0
 273 -485 19 -439 19 -273 c 0
 19 -150 115 -61 224 -3 c 1
 170 28 166 82 166 103 c 0
 166 185 231 280 303 336 c 1
 260 404 242 471 242 560 c 0
 242 744 428 905 639 905 c 0
 733 905 786 875 829 839 c 1
 907 927 1007 939 1027 939 c 0
 1075 939 1108 907 1108 868 c 0
 1108 828 1081 801 1045 801 c 0
 1007 801 996 819 987 835 c 0
 981 846 974 856 957 856 c 0
 939 856 900 832 868 797 c 1
 903 748 913 675 913 629 c 0
765 629 m 0
 765 752 716 850 612 850 c 0
 470 850 392 708 392 556 c 0
 392 453 414 314 544 314 c 0
 694 314 765 463 765 629 c 0
EndSplineSet
EndChar

StartChar: Gbreve
Encoding: 286 286 51
Width: 1408
VWidth: 2047
Flags: HW
HStem: -25 75<613.144 1032.38> 555 74<1038 1183.88 1367.99 1477> 1272 75<766.542 1183.05> 1419 107<888.21 1194.96>
VStem: 166 186<336.628 610.986> 787.135 57.865<1618.39 1651> 1354 64<917 1098.63>
DStem2: 1133 151 1311 228 0.172533 0.985004<95.7325 343.381>
LayerCount: 2
Fore
SplineSet
1026 1419 m 0
 861.61 1419 787.135 1512 787.135 1628.75 c 0
 787.135 1636.08 787.423 1643.5 788 1651 c 1
 845 1651 l 1
 845 1642.83 849.273 1526 1045 1526 c 0
 1149 1526 1260 1574 1287 1651 c 1
 1342 1651 l 1
 1308 1496 1150 1419 1026 1419 c 0
1005 1347 m 0
 1256 1347 1310 1256 1432 1255 c 1
 1418 917 l 1
 1354 910 l 1
 1339 1112 1261 1272 963 1272 c 0
 687 1272 424 1028 361 669 c 0
 355 634 352 599 352 562 c 0
 352 315 496 50 813 50 c 0
 925 50 1051 85 1133 151 c 1
 1188 465 l 2
 1190 474 1190 482 1190 490 c 0
 1190 535 1161 555 1092 555 c 2
 1038 555 l 2
 1029 555 1022 561 1024 572 c 2
 1033 625 l 1
 1038 629 l 1
 1038 629 1215 625 1295 625 c 0
 1368 625 1487 629 1487 629 c 1
 1490 625 l 1
 1481 572 l 2
 1479 561 1472 555 1462 555 c 2
 1460 555 l 2
 1389 555 1363.1 521.983 1353 465 c 2
 1311 228 l 2
 1310 224 1310 221 1310 217 c 0
 1310 199 1319 185 1334 169 c 1
 1174 52 996 -25 754 -25 c 0
 387 -25 166 212 166 514 c 0
 166 551 169.082 589.986 176 629 c 0
 255.944 1079.83 654 1347 1005 1347 c 0
EndSplineSet
Substitution2: "'c2sc' Capitals to Small Capitals lookup 19" gbreve.sc
EndChar

StartChar: gbreve
Encoding: 287 287 52
Width: 957
VWidth: 2047
Flags: HW
HStem: -485 79<237.086 640.557> -25 114<286.903 476.174> -20 125<498.585 704.656> 256 58<443.724 665.047> 850 55<492.826 712.305> 856 83<894.179 1044.76> 1017 117<564.191 821.478> 1302 20G<472.429 515 943 994.286>
VStem: 19 122<-328.481 -136.801> 166 114<99.3746 233.283> 242 150<367.544 712.028> 451 62<1183.43 1294> 765 148<448.897 748.518> 793 113<-272.889 -93.5506>
LayerCount: 2
Fore
SplineSet
516 1322 m 1
 514 1311 513 1300 513 1289 c 0
 513 1200 585 1134 696 1134 c 0
 790 1134 926 1195 960 1322 c 1
 1008 1294 l 1
 940 1088 771 1017 669 1017 c 0
 528 1017 451 1110 451 1242 c 0
 451 1259 453 1276 455 1294 c 1
 516 1322 l 1
258 -19 m 1
 208 -55 141 -139 141 -237 c 0
 141 -344 272 -406 502 -406 c 0
 708 -406 793 -277 793 -199 c 0
 793 -128 754 -20 451 -20 c 2
 333 -25 l 2
 303 -25 285 -25 258 -19 c 1
913 629 m 0
 913 378 711 256 524 256 c 0
 448 256 389 270 347 298 c 1
 310 257 280 216 280 167 c 0
 280 111 324 89 385 89 c 0
 403 89 439 91 478 96 c 0
 526 101 581 105 614 105 c 0
 862 105 906 -69 906 -123 c 0
 906 -325 678 -485 398 -485 c 0
 273 -485 19 -439 19 -273 c 0
 19 -150 115 -61 224 -3 c 1
 170 28 166 82 166 103 c 0
 166 185 231 280 303 336 c 1
 260 404 242 471 242 560 c 0
 242 744 428 905 639 905 c 0
 733 905 786 875 829 839 c 1
 907 927 1007 939 1027 939 c 0
 1075 939 1108 907 1108 868 c 0
 1108 828 1081 801 1045 801 c 0
 1007 801 996 819 987 835 c 0
 981 846 974 856 957 856 c 0
 939 856 900 832 868 797 c 1
 903 748 913 675 913 629 c 0
765 629 m 0
 765 752 716 850 612 850 c 0
 470 850 392 708 392 556 c 0
 392 453 414 314 544 314 c 0
 694 314 765 463 765 629 c 0
EndSplineSet
EndChar

StartChar: Gdotaccent
Encoding: 288 288 53
Width: 1420
VWidth: 2047
Flags: HW
HStem: -25 75<613.144 1032.38> 555 74<1038 1183.88 1367.99 1477> 1272 75<766.542 1183.05> 1429 196<968.31 1116.18>
VStem: 166 186<336.628 610.986> 943.26 198<1453.25 1600.96> 1354 64<917 1098.63>
DStem2: 1133 151 1311 228 0.172533 0.985004<95.7325 343.381>
LayerCount: 2
Fore
SplineSet
1005 1347 m 0
 1256 1347 1310 1256 1432 1255 c 1
 1418 917 l 1
 1354 910 l 1
 1339 1112 1261 1272 963 1272 c 0
 687 1272 424 1028 361 669 c 0
 355 634 352 599 352 562 c 0
 352 315 496 50 813 50 c 0
 925 50 1051 85 1133 151 c 1
 1188 465 l 2
 1190 474 1190 482 1190 490 c 0
 1190 535 1161 555 1092 555 c 2
 1038 555 l 2
 1029 555 1022 561 1024 572 c 2
 1033 625 l 1
 1038 629 l 1
 1038 629 1215 625 1295 625 c 0
 1368 625 1487 629 1487 629 c 1
 1490 625 l 1
 1481 572 l 2
 1479 561 1472 555 1462 555 c 2
 1460 555 l 2
 1389 555 1363.1 521.983 1353 465 c 2
 1311 228 l 2
 1310 224 1310 221 1310 217 c 0
 1310 199 1319 185 1334 169 c 1
 1174 52 996 -25 754 -25 c 0
 387 -25 166 212 166 514 c 0
 166 551 169.082 589.986 176 629 c 0
 255.944 1079.83 654 1347 1005 1347 c 0
1057.26 1625 m 0
 1103.26 1625 1141.26 1593 1141.26 1542 c 0
 1141.26 1480 1087.26 1429 1029.26 1429 c 0
 977.26 1429 943.26 1466 943.26 1512 c 0
 943.26 1569 991.26 1625 1057.26 1625 c 0
EndSplineSet
EndChar

StartChar: gdotaccent
Encoding: 289 289 54
Width: 957
VWidth: 2047
Flags: HW
HStem: -485 79<237.086 640.557> -25 114<286.903 476.174> -20 125<498.585 704.656> 256 58<443.724 665.047> 850 55<492.826 712.305> 856 83<894.179 1044.76> 1068 196<590.05 737.922>
VStem: 19 122<-328.481 -136.801> 166 114<99.3746 233.283> 242 150<367.544 712.028> 565 198<1092.25 1239.96> 765 148<448.897 748.518> 793 113<-272.889 -93.5506>
LayerCount: 2
Fore
SplineSet
679 1264 m 0
 725 1264 763 1232 763 1181 c 0
 763 1119 709 1068 651 1068 c 0
 599 1068 565 1105 565 1151 c 0
 565 1208 613 1264 679 1264 c 0
258 -19 m 1
 208 -55 141 -139 141 -237 c 0
 141 -344 272 -406 502 -406 c 0
 708 -406 793 -277 793 -199 c 0
 793 -128 754 -20 451 -20 c 2
 333 -25 l 2
 303 -25 285 -25 258 -19 c 1
913 629 m 0
 913 378 711 256 524 256 c 0
 448 256 389 270 347 298 c 1
 310 257 280 216 280 167 c 0
 280 111 324 89 385 89 c 0
 403 89 439 91 478 96 c 0
 526 101 581 105 614 105 c 0
 862 105 906 -69 906 -123 c 0
 906 -325 678 -485 398 -485 c 0
 273 -485 19 -439 19 -273 c 0
 19 -150 115 -61 224 -3 c 1
 170 28 166 82 166 103 c 0
 166 185 231 280 303 336 c 1
 260 404 242 471 242 560 c 0
 242 744 428 905 639 905 c 0
 733 905 786 875 829 839 c 1
 907 927 1007 939 1027 939 c 0
 1075 939 1108 907 1108 868 c 0
 1108 828 1081 801 1045 801 c 0
 1007 801 996 819 987 835 c 0
 981 846 974 856 957 856 c 0
 939 856 900 832 868 797 c 1
 903 748 913 675 913 629 c 0
765 629 m 0
 765 752 716 850 612 850 c 0
 470 850 392 708 392 556 c 0
 392 453 414 314 544 314 c 0
 694 314 765 463 765 629 c 0
EndSplineSet
EndChar

StartChar: Gcommaaccent
Encoding: 290 290 55
Width: 1411
VWidth: 2047
Flags: HW
HStem: -472 21G<579 598.5> -25 75<613.144 1032.38> 555 74<1038 1183.88 1367.99 1477> 1272 75<766.542 1183.05>
VStem: 166 186<336.628 610.986> 1354 64<917 1098.63>
DStem2: 1133 151 1311 228 0.172533 0.985004<95.7325 343.381>
LayerCount: 2
Fore
SplineSet
658 -415 m 0
 675 -407 693.912 -392.907 717 -371 c 0
 733.935 -354.932 748 -336 761 -314 c 0
 771 -297 776 -286 778 -276 c 0
 780 -268 780 -262 780 -256 c 1
 753 -268 731 -274 715 -274 c 0
 687 -274 667 -269 652 -257 c 0
 636 -244 630 -228 630 -209 c 0
 630 -203 630 -196 632 -189 c 0
 637 -167 651 -151 668 -137 c 0
 694 -116 723 -107 756 -107 c 0
 778 -107 795 -112 808 -120 c 0
 824 -130 835 -146 843 -165 c 0
 850 -180 853 -198 853 -216 c 0
 853 -229 852 -242 849 -256 c 0
 843 -281 831 -304 818 -328 c 0
 800 -359 780 -383 759 -401 c 0
 733 -424 707.979 -438.949 683 -449 c 0
 640.965 -465.914 618 -471 579 -472 c 1
 579 -438 l 1
 592 -435 614 -435 658 -415 c 0
1005 1347 m 0
 1256 1347 1310 1256 1432 1255 c 1
 1418 917 l 1
 1354 910 l 1
 1339 1112 1261 1272 963 1272 c 0
 687 1272 424 1028 361 669 c 0
 355 634 352 599 352 562 c 0
 352 315 496 50 813 50 c 0
 925 50 1051 85 1133 151 c 1
 1188 465 l 2
 1190 474 1190 482 1190 490 c 0
 1190 535 1161 555 1092 555 c 2
 1038 555 l 2
 1029 555 1022 561 1024 572 c 2
 1033 625 l 1
 1038 629 l 1
 1038 629 1215 625 1295 625 c 0
 1368 625 1487 629 1487 629 c 1
 1490 625 l 1
 1481 572 l 2
 1479 561 1472 555 1462 555 c 2
 1460 555 l 2
 1389 555 1363.1 521.983 1353 465 c 2
 1311 228 l 2
 1310 224 1310 221 1310 217 c 0
 1310 199 1319 185 1334 169 c 1
 1174 52 996 -25 754 -25 c 0
 387 -25 166 212 166 514 c 0
 166 551 169.082 589.986 176 629 c 0
 255.944 1079.83 654 1347 1005 1347 c 0
EndSplineSet
EndChar

StartChar: gcommaaccent
Encoding: 291 291 56
Width: 957
VWidth: 2047
Flags: HW
HStem: -485 79<237.086 640.557> -25 114<286.903 476.174> -20 125<498.585 704.656> 256 58<443.724 665.047> 850 55<492.826 712.305> 856 83<894.179 1044.76> 1021 213<657.073 755.191> 1411 41<673.057 819.903>
VStem: 19 122<-328.481 -136.801> 166 114<99.3746 233.283> 242 150<367.544 712.028> 553 232<1054.43 1183.26 1183.26 1220.78> 765 148<448.897 748.518> 793 113<-272.889 -93.5506>
LayerCount: 2
Fore
SplineSet
657 1021 m 0
 592 1021 553 1075 553 1162 c 0
 553 1181 555.036 1201.99 559 1225 c 0
 580.19 1347.97 698 1430 824 1452 c 1
 827 1411 l 1
 715 1385 654 1318 646 1276 c 0
 643 1258 642 1236 644 1221 c 1
 659 1230 680 1234 699 1234 c 0
 752 1234 787 1197 787 1147 c 0
 787 1140 786 1133 785 1126 c 0
 775 1069 722 1021 657 1021 c 0
258 -19 m 1
 208 -55 141 -139 141 -237 c 0
 141 -344 272 -406 502 -406 c 0
 708 -406 793 -277 793 -199 c 0
 793 -128 754 -20 451 -20 c 2
 333 -25 l 2
 303 -25 285 -25 258 -19 c 1
913 629 m 0
 913 378 711 256 524 256 c 0
 448 256 389 270 347 298 c 1
 310 257 280 216 280 167 c 0
 280 111 324 89 385 89 c 0
 403 89 439 91 478 96 c 0
 526 101 581 105 614 105 c 0
 862 105 906 -69 906 -123 c 0
 906 -325 678 -485 398 -485 c 0
 273 -485 19 -439 19 -273 c 0
 19 -150 115 -61 224 -3 c 1
 170 28 166 82 166 103 c 0
 166 185 231 280 303 336 c 1
 260 404 242 471 242 560 c 0
 242 744 428 905 639 905 c 0
 733 905 786 875 829 839 c 1
 907 927 1007 939 1027 939 c 0
 1075 939 1108 907 1108 868 c 0
 1108 828 1081 801 1045 801 c 0
 1007 801 996 819 987 835 c 0
 981 846 974 856 957 856 c 0
 939 856 900 832 868 797 c 1
 903 748 913 675 913 629 c 0
765 629 m 0
 765 752 716 850 612 850 c 0
 470 850 392 708 392 556 c 0
 392 453 414 314 544 314 c 0
 694 314 765 463 765 629 c 0
EndSplineSet
EndChar

StartChar: Hcircumflex
Encoding: 292 292 57
Width: 1435
VWidth: 2047
Flags: HW
HStem: -2 59<47.012 48.3496 48.3496 226.785 409.626 561.871 561.871 562 881.012 882.35 882.35 1060.79 1243.63 1395.87 1395.87 1396> 664 80<514 1169> 1265 59<272 272.129 272.129 424.374 607.221 785.65 785.65 786.988 1106 1106.13 1106.13 1258.37 1441.21 1619.65 1619.65 1620.99> 1414 21G<732.952 785 1143 1199>
DStem2: 244 147 409 147 0.173403 0.984851<4.01269 553.559 634.775 1068.41> 1078 147 1243 147 0.173403 0.984851<4.01269 524.948 606.163 1068.41>
LayerCount: 2
Fore
SplineSet
1059 1649 m 1
 1103 1574 1159 1512 1221 1456 c 1
 1179 1414 l 1
 1107 1449 1046 1489 990 1540 c 1
 903 1485 828 1448 742 1414 c 1
 723 1456 l 1
 812 1514 893 1580 971 1649 c 1
 1059 1649 l 1
1078 147 m 2
 1169 664 l 1
 500 664 l 1
 409 147 l 2
 407 138 407 130 407 122 c 0
 407 77 436 57 505 57 c 2
 559 57 l 2
 568 57 575 51 573 40 c 2
 566 2 l 1
 562 -2 l 1
 562 -2 384 2 304 2 c 0
 231 2 40 -2 40 -2 c 1
 36 2 l 1
 43 40 l 2
 45.0255 50.9953 52 57 62 57 c 2
 116 57 l 2
 200 57 233.965 90.0061 244 147 c 2
 425 1175 l 2
 427 1184 427 1192 427 1200 c 0
 427 1245 398 1265 329 1265 c 2
 275 1265 l 2
 266 1265 259 1271 261 1282 c 2
 268 1320 l 1
 272 1324 l 1
 272 1324 450 1320 530 1320 c 0
 603 1320 794 1324 794 1324 c 1
 798 1320 l 1
 791 1282 l 2
 788.974 1271 782 1265 772 1265 c 2
 718 1265 l 2
 634 1265 600.049 1231.99 590 1175 c 2
 514 744 l 1
 1183 744 l 1
 1259 1175 l 2
 1261 1184 1261 1192 1261 1200 c 0
 1261 1245 1232 1265 1163 1265 c 2
 1109 1265 l 2
 1100 1265 1093 1271 1095 1282 c 2
 1102 1320 l 1
 1106 1324 l 1
 1106 1324 1284 1320 1364 1320 c 0
 1437 1320 1628 1324 1628 1324 c 1
 1632 1320 l 1
 1625 1282 l 2
 1622.97 1271 1616 1265 1606 1265 c 2
 1552 1265 l 2
 1468 1265 1434.03 1231.99 1424 1175 c 2
 1243 147 l 2
 1241 138 1241 130 1241 122 c 0
 1241 77 1270 57 1339 57 c 2
 1393 57 l 2
 1402 57 1409 51 1407 40 c 2
 1400 2 l 1
 1396 -2 l 1
 1396 -2 1218 2 1138 2 c 0
 1065 2 874 -2 874 -2 c 1
 870 2 l 1
 877 40 l 2
 879.025 50.9952 886 57 896 57 c 2
 950 57 l 2
 1034 57 1067.97 90.0059 1078 147 c 2
EndSplineSet
EndChar

StartChar: hcircumflex
Encoding: 293 293 58
Width: 1104
VWidth: 2047
Flags: HW
HStem: -25 109<847.503 958.018> 804 101<734.922 928.12> 1322 55<356 430.753> 1409 20G<594 662>
VStem: 744 163<38.9116 193.719> 883 161<623.29 795.121>
DStem2: 177 -1 336 25 0.226177 0.974086<61.2883 566.323 689.546 1295.24> 772 233 930 250 0.25147 0.967865<-74.4562 490.8>
LayerCount: 2
Fore
SplineSet
887 1704 m 1
 931 1629 987 1567 1049 1511 c 1
 1007 1469 l 1
 935 1504 874 1544 818 1595 c 1
 731 1540 656 1503 570 1469 c 1
 551 1511 l 1
 640 1569 721 1635 799 1704 c 1
 887 1704 l 1
177 -1 m 1
 452 1184 l 2
 460 1216 464 1243 464 1263 c 0
 464 1303 450 1322 424 1322 c 2
 356 1315 l 2
 350 1314 346 1319 346 1325 c 1
 354 1377 l 1
 386 1377 464 1388 500 1395 c 0
 540 1402 572 1411 616 1429 c 1
 662 1429 l 1
 478 637 l 1
 666 859 797 905 903 905 c 0
 982 905 1044 869 1044 746 c 0
 1044 703 1030.53 639.123 1015 579 c 2
 930 250 l 2
 911.131 176.966 907 141 907 120 c 0
 907 100 914 84 928 84 c 0
 959 84 1001 122 1069 204 c 1
 1114 171 l 1
 994 26 909 -25 834 -25 c 0
 788 -25 744 7 744 67 c 0
 744 112 752.238 156.938 772 233 c 2
 858 564 l 2
 874 627 883 676 883 713 c 0
 883 777 847 804 804 804 c 0
 731 804 609 719 450 517 c 1
 336 25 l 1
 186.668 -25 l 1
 177 -1 l 1
EndSplineSet
EndChar

StartChar: Hbar
Encoding: 294 294 59
Width: 1442
VWidth: 2047
Flags: HW
HStem: -2 59<47.012 48.3496 48.3496 226.785 409.626 561.871 561.871 562 881.012 882.35 882.35 1060.79 1243.63 1395.87 1395.87 1396> 664 80<514 1169> 1049 82<286 402.815 582.241 1236.78 1416.25 1527> 1265 59<272 423.971 607.358 786.988 1106 1257.97 1441.36 1620.99>
DStem2: 244 147 409 147 0.173403 0.984851<4.01269 553.559 634.775 915.875 1027.75 1068.41> 1078 147 1243 147 0.173403 0.984851<4.01269 524.948 606.163 915.868 1027.75 1068.41>
LayerCount: 2
Fore
SplineSet
1236.78 1049 m 1
 567.782 1049 l 1
 514 744 l 1
 1183 744 l 1
 1236.78 1049 l 1
1078 147 m 2
 1169 664 l 1
 500 664 l 1
 409 147 l 2
 407 138 407 130 407 122 c 0
 407 77 436 57 505 57 c 2
 559 57 l 2
 568 57 575 51 573 40 c 2
 566 2 l 1
 562 -2 l 1
 562 -2 384 2 304 2 c 0
 231 2 40 -2 40 -2 c 1
 36 2 l 1
 43 40 l 2
 45.0255 50.9953 52 57 62 57 c 2
 116 57 l 2
 200 57 233.965 90.0061 244 147 c 2
 402.815 1049 l 1
 267 1049 l 1
 286 1131 l 1
 417.253 1131 l 1
 425 1175 l 2
 427 1184 427 1192 427 1200 c 0
 427 1245 398 1265 329 1265 c 2
 275 1265 l 2
 266 1265 259 1271 261 1282 c 2
 268 1320 l 1
 272 1324 l 1
 272 1324 450 1320 530 1320 c 0
 603 1320 794 1324 794 1324 c 1
 798 1320 l 1
 791 1282 l 2
 788.974 1271 782 1265 772 1265 c 2
 718 1265 l 2
 634 1265 600.05 1231.99 590 1175 c 2
 582.241 1131 l 1
 1251.24 1131 l 1
 1259 1175 l 2
 1261 1184 1261 1192 1261 1200 c 0
 1261 1245 1232 1265 1163 1265 c 2
 1109 1265 l 2
 1100 1265 1093 1271 1095 1282 c 2
 1102 1320 l 1
 1106 1324 l 1
 1106 1324 1284 1320 1364 1320 c 0
 1437 1320 1628 1324 1628 1324 c 1
 1632 1320 l 1
 1625 1282 l 2
 1622.97 1271 1616 1265 1606 1265 c 2
 1552 1265 l 2
 1468 1265 1434.04 1231.99 1424 1175 c 2
 1416.25 1131 l 1
 1546 1131 l 1
 1527 1049 l 1
 1401.82 1049 l 1
 1243 147 l 2
 1241 138 1241 130 1241 122 c 0
 1241 77 1270 57 1339 57 c 2
 1393 57 l 2
 1402 57 1409 51 1407 40 c 2
 1400 2 l 1
 1396 -2 l 1
 1396 -2 1218 2 1138 2 c 0
 1065 2 874 -2 874 -2 c 1
 870 2 l 1
 877 40 l 2
 879.025 50.9952 886 57 896 57 c 2
 950 57 l 2
 1034 57 1067.97 90.0059 1078 147 c 2
EndSplineSet
EndChar

StartChar: hbar
Encoding: 295 295 60
Width: 1067
VWidth: 2047
Flags: HW
HStem: -25 109<847.503 958.018> 804 101<734.922 928.12> 1085 81<340 429.025 600.899 966> 1322 55<356 430.753> 1409 20G<594 662>
VStem: 744 163<38.9116 193.719> 883 161<623.29 795.121>
DStem2: 177 -1 336 25 0.22606 0.974113<61.2705 566.305 689.528 1114.86 1232.62 1295.24> 772 233 930 250 0.25147 0.967865<-74.4562 490.8>
LayerCount: 2
Fore
SplineSet
582.081 1085 m 1
 478 637 l 1
 666 859 797 905 903 905 c 0
 982 905 1044 869 1044 746 c 0
 1044 703 1030.53 639.123 1015 579 c 2
 930 250 l 2
 911.131 176.966 907 141 907 120 c 0
 907 100 914 84 928 84 c 0
 959 84 1001 122 1069 204 c 1
 1114 171 l 1
 994 26 909 -25 834 -25 c 0
 788 -25 744 7 744 67 c 0
 744 112 752.238 156.938 772 233 c 2
 858 564 l 2
 874 627 883 676 883 713 c 0
 883 777 847 804 804 804 c 0
 731 804 609 719 450 517 c 1
 336 25 l 1
 186.668 -25 l 1
 177 -1 l 1
 429.025 1085 l 1
 321 1085 l 1
 340 1166 l 1
 447.823 1166 l 1
 452 1184 l 2
 460 1216 464 1243 464 1263 c 0
 464 1303 450 1322 424 1322 c 2
 356 1315 l 2
 350 1314 346 1319 346 1325 c 1
 354 1377 l 1
 386 1377 464 1388 500 1395 c 0
 540 1402 572 1411 616 1429 c 1
 662 1429 l 1
 600.899 1166 l 1
 985 1166 l 1
 966 1085 l 1
 582.081 1085 l 1
EndSplineSet
EndChar

StartChar: Itilde
Encoding: 296 296 61
Width: 601
VWidth: 2047
Flags: HW
HStem: -2 59<47.012 48.3496 48.3496 228.057 408.899 561.871 561.871 562> 1265 59<272 272.129 272.129 424.543 607.211 785.65 785.65 786.988> 1426 90<624.933 793.872> 1525 94<376.185 519.91>
VStem: 40 852
DStem2: 244 146 409 146 0.173239 0.98488<-43.9188 1117.49>
LayerCount: 2
Fore
SplineSet
719 1516 m 0
 763 1516 797 1538 846 1624 c 1
 892 1611 l 1
 839 1488 766 1426 671 1426 c 0
 626 1426 590 1452 554 1479 c 0
 521 1503 488 1525 452 1525 c 0
 399 1525 365 1495 330 1427 c 1
 284 1437 l 1
 340 1558 400 1619 488 1619 c 0
 551 1619 589 1590 623 1562 c 0
 651 1538 680 1516 719 1516 c 0
590 1175 m 2
 409 146 l 2
 407.42 136.951 406.603 128.666 406.603 121.111 c 0
 406.603 76.0676 435.634 57 505 57 c 2
 559 57 l 2
 568 57 575 51 573 40 c 2
 566 2 l 1
 562 -2 l 1
 562 -2 384 2 304 2 c 0
 231 2 40 -2 40 -2 c 1
 36 2 l 1
 43 40 l 2
 45.0255 50.9953 52 57 62 57 c 2
 116 57 l 2
 200 57 233.975 89.0046 244 146 c 2
 425 1175 l 2
 426.58 1184.05 427.397 1192.35 427.397 1199.94 c 0
 427.397 1245.2 398.366 1265 329 1265 c 2
 275 1265 l 2
 266 1265 259 1271 261 1282 c 2
 268 1320 l 1
 272 1324 l 1
 272 1324 450 1320 530 1320 c 0
 603 1320 794 1324 794 1324 c 1
 798 1320 l 1
 791 1282 l 2
 788.974 1271 782 1265 772 1265 c 2
 718 1265 l 2
 634 1265 600.026 1232 590 1175 c 2
EndSplineSet
EndChar

StartChar: itilde
Encoding: 297 297 62
Width: 575
VWidth: 2047
Flags: HW
HStem: -25 113<315.008 455.103> 771 58<239 328.284> 885 20G<471 564> 1067 90<529.34 681.385> 1166 94<305.467 434.819>
VStem: 227 159<58.5019 168.108>
DStem2: 253 232 410 249 0.228543 0.973534<-81.5996 537.049>
LayerCount: 2
Fore
SplineSet
614 1157 m 0
 653.6 1157 684.2 1179 728.3 1265 c 1
 769.7 1252 l 1
 722 1129 656.3 1067 570.8 1067 c 0
 530.3 1067 497.9 1093 465.5 1120 c 0
 435.8 1144 406.1 1166 373.7 1166 c 0
 326 1166 295.4 1136 263.9 1068 c 1
 222.5 1078 l 1
 272.9 1199 326.9 1260 406.1 1260 c 0
 462.8 1260 497 1231 527.6 1203 c 0
 552.8 1179 578.9 1157 614 1157 c 0
314 -25 m 0
 244 -25 227 29 227 68 c 0
 227 106 238.36 169.914 253 232 c 2
 361 690 l 2
 369.74 727.062 373 745 373 756 c 0
 373 768 365 784 337 784 c 0
 299 784 256 776 238 771 c 1
 239 829 l 1
 320 840 423 853 519 905 c 1
 564 905 l 1
 410 249 l 2
 395 184 386 136 386 116 c 0
 386 93 407 88 412 88 c 0
 441 88 475 119 537 201 c 1
 589 161 l 1
 485 11 401 -25 314 -25 c 0
EndSplineSet
EndChar

StartChar: Imacron
Encoding: 298 298 63
Width: 601
VWidth: 2047
Flags: HW
HStem: -2 59<47.012 48.3496 48.3496 228.057 408.899 561.871 561.871 562> 1265 59<272 272.129 272.129 424.543 607.211 785.65 785.65 786.988> 1478 90<260.268 272 313 828.995>
VStem: 40 795
DStem2: 244 146 409 146 0.173239 0.98488<-43.9188 1117.49>
LayerCount: 2
Fore
SplineSet
773 1478 m 2
 272 1478 l 2
 258 1478 253 1488 253 1499 c 0
 253 1502 253 1505 254 1508 c 0
 260 1532 289 1568 313 1568 c 2
 814 1568 l 2
 830 1568 836 1558 836 1546 c 0
 836 1543 836 1541 835 1538 c 0
 830 1514 799 1478 773 1478 c 2
590 1175 m 2
 409 146 l 2
 407.42 136.951 406.603 128.666 406.603 121.111 c 0
 406.603 76.0676 435.634 57 505 57 c 2
 559 57 l 2
 568 57 575 51 573 40 c 2
 566 2 l 1
 562 -2 l 1
 562 -2 384 2 304 2 c 0
 231 2 40 -2 40 -2 c 1
 36 2 l 1
 43 40 l 2
 45.0255 50.9953 52 57 62 57 c 2
 116 57 l 2
 200 57 233.975 89.0046 244 146 c 2
 425 1175 l 2
 426.58 1184.05 427.397 1192.35 427.397 1199.94 c 0
 427.397 1245.2 398.366 1265 329 1265 c 2
 275 1265 l 2
 266 1265 259 1271 261 1282 c 2
 268 1320 l 1
 272 1324 l 1
 272 1324 450 1320 530 1320 c 0
 603 1320 794 1324 794 1324 c 1
 798 1320 l 1
 791 1282 l 2
 788.974 1271 782 1265 772 1265 c 2
 718 1265 l 2
 634 1265 600.026 1232 590 1175 c 2
EndSplineSet
EndChar

StartChar: imacron
Encoding: 299 299 64
Width: 576
VWidth: 2047
Flags: HW
HStem: -25 113<315.008 455.103> 771 58<239 328.284> 885 20G<471 564> 1126 90<258.842 269.4 306.3 770.695>
VStem: 227 159<58.5019 168.108>
DStem2: 253 232 410 249 0.228543 0.973534<-81.5996 537.049>
LayerCount: 2
Fore
SplineSet
720.3 1126 m 2
 269.4 1126 l 2
 256.8 1126 252.3 1136 252.3 1147 c 0
 252.3 1150 252.3 1153 253.2 1156 c 0
 258.6 1180 284.7 1216 306.3 1216 c 2
 757.2 1216 l 2
 771.6 1216 777 1206 777 1194 c 0
 777 1191 777 1189 776.1 1186 c 0
 771.6 1162 743.7 1126 720.3 1126 c 2
314 -25 m 0
 244 -25 227 29 227 68 c 0
 227 106 238.36 169.914 253 232 c 2
 361 690 l 2
 369.74 727.062 373 745 373 756 c 0
 373 768 365 784 337 784 c 0
 299 784 256 776 238 771 c 1
 239 829 l 1
 320 840 423 853 519 905 c 1
 564 905 l 1
 410 249 l 2
 395 184 386 136 386 116 c 0
 386 93 407 88 412 88 c 0
 441 88 475 119 537 201 c 1
 589 161 l 1
 485 11 401 -25 314 -25 c 0
EndSplineSet
EndChar

StartChar: Ibreve
Encoding: 300 300 65
Width: 601
VWidth: 2047
Flags: HW
HStem: -2 59<47.012 48.3496 48.3496 228.057 408.899 561.871 561.871 562> 1265 59<272 272.129 272.129 424.543 607.211 785.65 785.65 786.988> 1417 107<426.21 732.959>
VStem: 325.135 57.865<1616.39 1649>
DStem2: 244 146 409 146 0.173239 0.98488<-43.9188 1117.49>
LayerCount: 2
Fore
SplineSet
564 1417 m 0
 399.61 1417 325.135 1510 325.135 1626.75 c 0
 325.135 1634.08 325.423 1641.5 326 1649 c 1
 383 1649 l 1
 383 1640.83 387.273 1524 583 1524 c 0
 687 1524 798 1572 825 1649 c 1
 880 1649 l 1
 846 1494 688 1417 564 1417 c 0
590 1175 m 2
 409 146 l 2
 407.42 136.951 406.603 128.666 406.603 121.111 c 0
 406.603 76.0676 435.634 57 505 57 c 2
 559 57 l 2
 568 57 575 51 573 40 c 2
 566 2 l 1
 562 -2 l 1
 562 -2 384 2 304 2 c 0
 231 2 40 -2 40 -2 c 1
 36 2 l 1
 43 40 l 2
 45.0255 50.9953 52 57 62 57 c 2
 116 57 l 2
 200 57 233.975 89.0046 244 146 c 2
 425 1175 l 2
 426.58 1184.05 427.397 1192.35 427.397 1199.94 c 0
 427.397 1245.2 398.366 1265 329 1265 c 2
 275 1265 l 2
 266 1265 259 1271 261 1282 c 2
 268 1320 l 1
 272 1324 l 1
 272 1324 450 1320 530 1320 c 0
 603 1320 794 1324 794 1324 c 1
 798 1320 l 1
 791 1282 l 2
 788.974 1271 782 1265 772 1265 c 2
 718 1265 l 2
 634 1265 600.026 1232 590 1175 c 2
EndSplineSet
EndChar

StartChar: ibreve
Encoding: 301 301 66
Width: 575
VWidth: 2047
Flags: HW
HStem: -25 113<315.008 455.103> 771 58<239 328.284> 885 20G<471 564> 1017 117<374.572 606.13> 1302 20G<291.986 330.3 715.5 761.657>
VStem: 227 159<58.5019 168.108> 272.7 55.8<1183.19 1294> 730.8 43.2<1187.51 1304.9>
DStem2: 253 232 410 249 0.228543 0.973534<-81.5996 537.049>
LayerCount: 2
Fore
SplineSet
331.2 1322 m 1
 329.4 1311 328.5 1300 328.5 1289 c 0
 328.5 1200 393.3 1134 493.2 1134 c 0
 577.8 1134 700.2 1195 730.8 1322 c 1
 774 1294 l 1
 712.8 1088 560.7 1017 468.9 1017 c 0
 342 1017 272.7 1110 272.7 1242 c 0
 272.7 1259 274.5 1276 276.3 1294 c 1
 331.2 1322 l 1
314 -25 m 0
 244 -25 227 29 227 68 c 0
 227 106 238.36 169.914 253 232 c 2
 361 690 l 2
 369.74 727.062 373 745 373 756 c 0
 373 768 365 784 337 784 c 0
 299 784 256 776 238 771 c 1
 239 829 l 1
 320 840 423 853 519 905 c 1
 564 905 l 1
 410 249 l 2
 395 184 386 136 386 116 c 0
 386 93 407 88 412 88 c 0
 441 88 475 119 537 201 c 1
 589 161 l 1
 485 11 401 -25 314 -25 c 0
EndSplineSet
EndChar

StartChar: Iogonek
Encoding: 302 302 67
Width: 601
VWidth: 2047
Flags: HW
HStem: -462 81<249.981 419.749> -2 59<47.012 48.3496 48.3496 228.057 416.554 505 505 562> 1265 59<272 272.129 272.129 424.543 607.211 785.65 785.65 786.988>
VStem: 108 129<-366.354 -192.09>
DStem2: 244 146 409 146 0.173239 0.98488<-43.9188 1117.49>
LayerCount: 2
Fore
SplineSet
561 -3 m 1
 389 -3 237 -175 237 -285 c 0
 237 -339 272 -381 337 -381 c 0
 398 -381 445 -351 492 -309 c 1
 521 -324 l 1
 455 -421 344 -462 272 -462 c 0
 174 -462 108 -412 108 -323 c 0
 108 -209.2 223.115 -71.8018 374.307 1.42481 c 1
 347.789 1.77199 323.101 2 304 2 c 0
 231 2 40 -2 40 -2 c 1
 36 2 l 1
 43 40 l 2
 45.0255 50.9953 52 57 62 57 c 2
 116 57 l 2
 200 57 233.975 89.0046 244 146 c 2
 425 1175 l 2
 426.58 1184.05 427.397 1192.35 427.397 1199.94 c 0
 427.397 1245.2 398.366 1265 329 1265 c 2
 275 1265 l 2
 266 1265 259 1271 261 1282 c 2
 268 1320 l 1
 272 1324 l 1
 272 1324 450 1320 530 1320 c 0
 603 1320 794 1324 794 1324 c 1
 798 1320 l 1
 791 1282 l 2
 788.974 1271 782 1265 772 1265 c 2
 718 1265 l 2
 634 1265 600.026 1232 590 1175 c 2
 409 146 l 2
 407.42 136.951 406.603 128.666 406.603 121.111 c 0
 406.603 76.0676 435.634 57 505 57 c 2
 559 57 l 2
 568 57 575 51 573 40 c 2
 566 2 l 1
 562 -2 l 1
 560.322 -1.96262 l 1
 561 -3 l 1
EndSplineSet
EndChar

StartChar: iogonek
Encoding: 303 303 68
Width: 576
VWidth: 2047
Flags: HW
HStem: -416 79<293.579 461.699> 771 58<239 328.284> 885 20G<471 564> 1071 196<465.05 612.922>
VStem: 152.333 126<-321.13 -147.859> 227 159<59.4787 168.108> 440 198<1095.25 1242.96>
DStem2: 253 232 410 249 0.228543 0.973534<-81.5996 537.049>
LayerCount: 2
Fore
SplineSet
439.523 8.37628 m 1
 363.178 -60.6969 278.333 -155.979 278.333 -246 c 0
 278.333 -292 316.333 -337 383.333 -337 c 0
 444.333 -337 482.333 -309 535.333 -263 c 1
 564.333 -278 l 1
 488.333 -370 405.333 -416 321.333 -416 c 0
 223.333 -416 152.333 -368 152.333 -278 c 0
 152.333 -185.369 223.763 -95.9624 303.875 -24.6021 c 1
 242.339 -19.6276 227 30.9536 227 68 c 0
 227 106 238.36 169.914 253 232 c 2
 361 690 l 2
 369.74 727.062 373 745 373 756 c 0
 373 768 365 784 337 784 c 0
 299 784 256 776 238 771 c 1
 239 829 l 1
 320 840 423 853 519 905 c 1
 564 905 l 1
 410 249 l 2
 395 184 386 136 386 116 c 0
 386 93 407 88 412 88 c 0
 441 88 475 119 537 201 c 1
 589 161 l 1
 534.832 82.8732 486.09 35.6723 439.523 8.37628 c 1
554 1267 m 0
 600 1267 638 1235 638 1184 c 0
 638 1122 584 1071 526 1071 c 0
 474 1071 440 1108 440 1154 c 0
 440 1211 488 1267 554 1267 c 0
EndSplineSet
EndChar

StartChar: Idotaccent
Encoding: 304 304 69
Width: 601
VWidth: 2047
Flags: HW
HStem: -2 59<47.012 48.3496 48.3496 228.057 408.899 561.871 561.871 562> 1265 59<272 272.129 272.129 424.543 607.211 785.65 785.65 786.988> 1421 196<513.05 660.922>
VStem: 488 198<1445.25 1592.96>
DStem2: 244 146 409 146 0.173239 0.98488<-43.9188 1117.49>
LayerCount: 2
Fore
SplineSet
602 1617 m 0
 648 1617 686 1585 686 1534 c 0
 686 1472 632 1421 574 1421 c 0
 522 1421 488 1458 488 1504 c 0
 488 1561 536 1617 602 1617 c 0
590 1175 m 2
 409 146 l 2
 407.42 136.951 406.603 128.666 406.603 121.111 c 0
 406.603 76.0676 435.634 57 505 57 c 2
 559 57 l 2
 568 57 575 51 573 40 c 2
 566 2 l 1
 562 -2 l 1
 562 -2 384 2 304 2 c 0
 231 2 40 -2 40 -2 c 1
 36 2 l 1
 43 40 l 2
 45.0255 50.9953 52 57 62 57 c 2
 116 57 l 2
 200 57 233.975 89.0046 244 146 c 2
 425 1175 l 2
 426.58 1184.05 427.397 1192.35 427.397 1199.94 c 0
 427.397 1245.2 398.366 1265 329 1265 c 2
 275 1265 l 2
 266 1265 259 1271 261 1282 c 2
 268 1320 l 1
 272 1324 l 1
 272 1324 450 1320 530 1320 c 0
 603 1320 794 1324 794 1324 c 1
 798 1320 l 1
 791 1282 l 2
 788.974 1271 782 1265 772 1265 c 2
 718 1265 l 2
 634 1265 600.026 1232 590 1175 c 2
EndSplineSet
EndChar

StartChar: afii10057
Encoding: 1032 1032 70
Width: 760
VWidth: 2047
Flags: HW
HStem: -25 64<250.298 383.051> 1265 55<450 608.15 608.15 617.175 816.585 977.221>
DStem2: 475 353 648 398 0.189906 0.981802<-205.367 831.03>
LayerCount: 2
Fore
SplineSet
300 39 m 0
 401 39 437 162 475 353 c 2
 628 1144 l 2
 629.798 1152.71 630.697 1161.33 630.697 1169.71 c 0
 630.697 1221.93 595.798 1265 526 1265 c 2
 452 1265 l 2
 443 1265 436 1271 438 1282 c 2
 446 1320 l 1
 450 1324 l 1
 450 1324 662 1320 742 1320 c 0
 815 1320 986 1324 986 1324 c 1
 990 1320 l 1
 982 1282 l 2
 980 1271 973 1265 963 1265 c 2
 929 1265 l 2
 845 1265 811.131 1232.97 800 1176 c 2
 648 398 l 2
 576.512 32.095 417 -25 288 -25 c 0
 223.734 -25 97.8763 -6.78272 97.8763 83.7859 c 0
 97.8763 90.4575 98.5592 97.5216 100 105 c 0
 110 155 150 177 181 177 c 0
 236.037 177 250.052 128.52 250.052 103.576 c 0
 250.052 99.579 249.722 99.579 249.722 93.5832 c 0
 249.722 68.0109 259.941 39 300 39 c 0
EndSplineSet
EndChar

StartChar: afii10061
Encoding: 1036 1036 71
Width: 1233
VWidth: 2047
Flags: HW
HStem: 2 55<48.779 229.415 410.395 562 1097.88 1193> 1208 126<1124.18 1344.47> 1265 55<296 425.23 425.23 447.001 629.107 809.221> 1431 21G<889.328 906>
DStem2: 246 146 411 146 0.190793 0.98163<5.49166 1075.69>
LayerCount: 2
Fore
SplineSet
1201 1681 m 1
 1308 1574 l 1
 990 1455 l 2
 941.988 1437.03 915 1431 897 1431 c 0
 881.655 1431 872.125 1438.99 872.125 1453.12 c 0
 872.125 1455.57 872.41 1458.2 873 1461 c 0
 876 1475 883 1486 912 1504 c 2
 1201 1681 l 1
1193 -2 m 1
 1045 0 l 2
 881.003 2.21618 844.014 144.003 799 368 c 0
 757.949 572.276 737.915 657.139 511.072 660.871 c 1
 411 146 l 2
 409.168 136.381 408.221 127.625 408.221 119.692 c 0
 408.221 75.6667 437.367 57 506 57 c 2
 560 57 l 2
 569 57 576 51 574 40 c 2
 566 2 l 1
 562 -2 l 1
 562 -2 384 2 304 2 c 0
 231 2 40 -2 40 -2 c 1
 36 2 l 1
 44 40 l 2
 46 51 53 57 63 57 c 2
 117 57 l 2
 201 57 234.924 89.0147 246 146 c 2
 446 1175 l 2
 448.097 1185.16 449.179 1194.39 449.179 1202.72 c 0
 449.179 1246.01 419.932 1265 352 1265 c 2
 298 1265 l 2
 289 1265 282 1271 284 1282 c 2
 292 1320 l 1
 296 1324 l 1
 296 1324 474 1320 554 1320 c 0
 627 1320 818 1324 818 1324 c 1
 822 1320 l 1
 814 1282 l 2
 812 1271 805 1265 795 1265 c 2
 741 1265 l 2
 657 1265 622.076 1231.99 611 1175 c 2
 528.206 749.022 l 1
 601.295 749.27 693.924 752.067 750 780 c 0
 882.9 846.2 936 999 976 1115 c 0
 1016.62 1232.79 1143 1334 1287 1334 c 0
 1382.42 1334 1414.61 1290.29 1414.61 1247 c 0
 1414.61 1241.29 1414.05 1235.59 1413 1230 c 0
 1403 1180 1349 1144 1306 1144 c 0
 1279 1144 1250 1154 1236 1172 c 0
 1219 1193 1195 1208 1168 1208 c 0
 1122 1208 1068.03 1150.99 1046 1091 c 0
 999 963 923 754 748 702 c 1
 889 702 914 607 944 483 c 0
 1009.99 210.238 1096 57 1170 57 c 2
 1191 57 l 2
 1200 57 1207 51 1205 40 c 2
 1197 2 l 1
 1193 -2 l 1
EndSplineSet
LCarets2: 1 0 
Ligature2: "'liga' Standard Ligatures lookup 3" afii10028 acutecomb
EndChar

StartChar: uni040D
Encoding: 1037 1037 72
Width: 1435
VWidth: 2047
Flags: HW
HStem: 3 54<48.779 228.45 410.9 568.44 882.779 1063.42 1244.39 1396> 1265 53<297 424.878 424.878 448.109 628.585 809.221 1122.2 1281.61 1463.87 1643.22> 1431 21G<1129 1147.5>
DStem2: 436 274 414 159 0.692102 0.721799<0 1114.02> 1080 146 1245 146 0.191533 0.981486<5.6152 904.695 1021.78 1075.42>
LayerCount: 2
Fore
SplineSet
936 1677 m 1
 1151 1504 l 2
 1166.94 1490.57 1173.73 1479.26 1173.73 1467.7 c 0
 1173.73 1465.48 1173.48 1463.25 1173 1461 c 0
 1170 1440 1157 1431 1138 1431 c 0
 1120 1431 1094.17 1437.39 1054 1455 c 2
 762 1583 l 1
 936 1677 l 1
1446 1176 m 2
 1245 146 l 2
 1243.17 136.381 1242.22 127.625 1242.22 119.692 c 0
 1242.22 75.6667 1271.37 57 1340 57 c 2
 1394 57 l 2
 1403 57 1410 51 1408 40 c 2
 1400 2 l 1
 1396 -2 l 1
 1396 -2 1219 3 1139 3 c 0
 1066 3 874 -2 874 -2 c 1
 870 2 l 1
 878 40 l 2
 880 51 887 57 897 57 c 2
 951 57 l 2
 1035 57 1068.9 89.0196 1080 146 c 2
 1253 1034 l 1
 414 159 l 1
 412 147 l 2
 409.864 136.649 408.754 127.27 408.754 118.822 c 0
 408.754 75.8565 437.473 57 506 57 c 2
 560 57 l 2
 568 57 575 51 573 40 c 2
 565 2 l 1
 561 -2 l 1
 561 -2 385 3 305 3 c 0
 233 3 40 -2 40 -2 c 1
 36 2 l 1
 44 40 l 2
 46 51 53 57 63 57 c 2
 117 57 l 2
 201 57 235 90 247 147 c 2
 447 1177 l 2
 448.867 1186.8 449.839 1195.69 449.839 1203.7 c 0
 449.839 1247.18 421.239 1265 352 1265 c 2
 298 1265 l 2
 290 1265 283 1271 285 1282 c 2
 293 1320 l 1
 297 1324 l 1
 297 1324 474 1318 554 1318 c 0
 626 1318 818 1324 818 1324 c 1
 822 1320 l 1
 814 1282 l 2
 812 1271 805 1265 795 1265 c 2
 741 1265 l 2
 657 1265 623.106 1233.98 612 1177 c 2
 436 274 l 1
 1275 1149 l 1
 1281 1176 l 2
 1282.83 1185.62 1283.78 1194.38 1283.78 1202.31 c 0
 1283.78 1246.33 1254.63 1265 1186 1265 c 2
 1132 1265 l 2
 1123 1265 1116 1271 1118 1282 c 2
 1126 1320 l 1
 1130 1324 l 1
 1130 1324 1307 1319 1387 1319 c 0
 1460 1319 1653 1325 1653 1325 c 1
 1656 1321 l 1
 1648 1283 l 2
 1646 1272 1639 1266 1629 1266 c 2
 1575 1266 l 2
 1491 1266 1457.12 1232.98 1446 1176 c 2
EndSplineSet
LCarets2: 1 0 
Ligature2: "'liga' Standard Ligatures lookup 3" afii10026 gravecomb
EndChar

StartChar: afii10062
Encoding: 1038 1038 73
Width: 1189
VWidth: 2047
Flags: HW
HStem: -46 127<266.517 470.953> 1265 55<260 319.957 319.957 367.875 576.196 730.162 1046.91 1176.42 1288.89 1431.64> 1427 63<836.004 1039.98>
VStem: 688.398 141.568<1499.69 1574>
DStem2: 578 1178 403 1144 0.257732 -0.966216<-72.6993 733.436>
LayerCount: 2
Fore
SplineSet
1202 1586 m 0
 1180.75 1478.05 1044 1427 914 1427 c 0
 790.281 1427 688.398 1468.15 688.398 1558.16 c 0
 688.398 1566.36 689.245 1574.98 691 1584 c 0
 700 1629 728 1647 783 1647 c 0
 819.997 1647 836.266 1622.57 836.266 1596.01 c 0
 836.266 1591.69 835.838 1587.33 835 1583 c 2
 832 1574 l 1
 832 1572 831 1569 831 1567 c 0
 830.306 1563.45 829.966 1559.93 829.966 1556.47 c 0
 829.966 1520.03 867.723 1490 928 1490 c 0
 990 1490 1046 1519 1055 1565 c 0
 1056 1568 1056 1571 1056 1574 c 1
 1057 1577 1057 1580 1058 1584 c 0
 1063 1613 1089 1647 1135 1647 c 0
 1182.28 1647 1203.69 1631.48 1203.69 1601.72 c 0
 1203.69 1596.86 1203.11 1591.62 1202 1586 c 0
416 81 m 0
 481 81 541 125 634 278 c 1
 403 1144 l 2
 391.81 1185.95 366 1265 266 1265 c 0
 254 1265 247 1272 249 1281 c 2
 257 1320 l 1
 260 1324 l 1
 260 1324 388 1320 472 1320 c 0
 574 1320 739 1324 739 1324 c 1
 743 1320 l 1
 735 1282 l 2
 733 1272 727 1265 718 1265 c 2
 640 1265 l 2
 596 1265 580 1254 576 1233 c 0
 573 1219 573 1200 578 1178 c 2
 762 468 l 1
 1167 1178 l 2
 1182 1202 1189 1219 1191 1231 c 0
 1191.58 1233.81 1191.87 1236.4 1191.87 1238.77 c 0
 1191.87 1260.92 1166.67 1265 1117 1265 c 2
 1056 1265 l 2
 1049 1265 1045 1272 1047 1281 c 2
 1055 1320 l 1
 1058 1324 l 1
 1058 1324 1192 1320 1279 1320 c 0
 1344 1320 1443 1324 1443 1324 c 1
 1446 1320 l 1
 1438 1282 l 2
 1436 1269 1422 1265 1414 1265 c 0
 1318 1265 1294 1241 1246 1159 c 2
 764 330 l 2
 633.821 106.104 491 -46 307 -46 c 0
 226.033 -46 147.664 -4.42585 147.664 54.5403 c 0
 147.664 58.9337 148.108 63.4219 149 68 c 0
 160.107 124.979 196 162 262 162 c 0
 291 162 335 147 349 123 c 0
 360.062 104.036 386 81 416 81 c 0
EndSplineSet
LCarets2: 1 0 
Ligature2: "'liga' Standard Ligatures lookup 3" afii10037 uni0306
EndChar

StartChar: afii10020
Encoding: 1043 1043 74
Width: 987
VWidth: 2047
Flags: HW
HStem: 2 55<38.434 218.765 401.431 551> 1240 80<607.598 1068.58> 1265 55<286 422.834 422.834 440.14>
VStem: 1130 62<1004 1097.41>
DStem2: 237 147 402 147 0.190409 0.981705<5.44323 1083.41>
LayerCount: 2
Fore
SplineSet
943 1240 m 2
 688 1240 l 2
 643 1240 612 1227 601 1173 c 2
 402 147 l 2
 400.017 137.582 398.963 128.819 398.963 120.752 c 0
 398.963 79.9958 425.879 57 496 57 c 2
 550 57 l 2
 560 57 565 51 563 40 c 2
 555 2 l 1
 551 -2 l 1
 551 -2 360 2 287 2 c 0
 207 2 29 -2 29 -2 c 1
 25 2 l 1
 33 40 l 2
 35 51 44 57 53 57 c 2
 107 57 l 2
 188 57 224 84 237 147 c 2
 436 1173 l 2
 438.919 1188.05 440.585 1200.82 440.585 1211.62 c 0
 440.585 1252.49 416.817 1265 348 1265 c 2
 287 1265 l 2
 278 1265 272 1271 274 1281 c 2
 282 1320 l 1
 286 1324 l 1
 286 1324 521 1320 547 1320 c 2
 706 1320 l 1
 1211 1320 l 1
 1198 1211 1192 1088 1192 1004 c 1
 1130 994 l 1
 1113 1135 1097 1240 943 1240 c 2
EndSplineSet
EndChar

StartChar: afii10021
Encoding: 1044 1044 75
Width: 1342
VWidth: 2047
Flags: HW
HStem: 0 80<410.226 971.014> 1239 83<779.363 1180.95> 1263 59<567.104 688.85 1358.56 1512.34>
DStem2: 982 161 1147 160 0.190633 0.981661<1.15613 1055.06>
LayerCount: 2
Fore
SplineSet
248 97 m 0
 308 154 377.49 296.202 504 616 c 0
 596.627 850.148 660.519 1060.09 686 1190 c 0
 687.871 1199.54 688.903 1208.08 688.903 1215.67 c 0
 688.903 1247.93 670.9 1263 628 1263 c 2
 567 1263 l 2
 558 1263 553 1272 555 1281 c 2
 559 1304 l 2
 561 1313 574 1322 588 1322 c 2
 1514 1322 l 2
 1520 1322 1523 1314 1522 1309 c 2
 1517 1280 l 2
 1514 1268 1506 1263 1498 1263 c 2
 1437 1263 l 2
 1373 1263 1355 1230 1341 1158 c 2
 1147 160 l 2
 1144.89 149.12 1143.87 139.256 1143.87 130.324 c 0
 1143.87 76.8269 1179.01 57 1209 57 c 0
 1249.61 57 1263.72 44.5325 1263.72 24.4123 c 0
 1263.72 21.7395 1263.44 18.9356 1263 16 c 2
 1217 -288 l 1
 1162 -288 1162 -288 1162 -288 c 1
 1160 -175 1120 0 956 0 c 2
 371 0 l 2
 200 0 112 -183 69 -288 c 1
 14 -288 l 1
 86 16 l 2
 92 40 117 57 137 57 c 0
 180 57 206 58 248 97 c 0
1115 1239 m 2
 862 1239 l 2
 807 1239 779.063 1210.98 765 1159 c 0
 709 952 638 740 585 600 c 0
 473.116 309.345 394.563 137.057 394.563 109.119 c 0
 394.563 89.4413 417.207 80 445 80 c 2
 892 80 l 2
 941 80 967.643 87.0685 982 161 c 2
 1176 1160 l 2
 1179.16 1175.06 1180.96 1187.46 1180.96 1197.61 c 0
 1180.96 1229.25 1163.46 1239 1115 1239 c 2
EndSplineSet
EndChar

StartChar: afii10024
Encoding: 1046 1046 76
Width: 1753
VWidth: 2047
Flags: HW
HStem: 2 55<60.0059 173.392 624.779 805.415 986.395 1138 1618.76 1703> 661 88<816.054 922 1105 1213.3> 1208 126<463.657 572.277 1665.94 1839.48> 1265 55<872 1001.23 1001.23 1023 1205.11 1385.22>
VStem: 582.92 70.473<820.059 1113.46 1115.26 1200.57>
DStem2: 822 146 987 146 0.190793 0.98163<5.49166 1075.69>
LayerCount: 2
Fore
SplineSet
1703 -2 m 1
 1569 0 l 2
 1422 2.19399 1392.4 144.224 1356 368 c 0
 1322.01 576.969 1305.01 660.975 1087.1 661 c 1
 987 146 l 2
 985.168 136.381 984.221 127.625 984.221 119.692 c 0
 984.221 75.6667 1013.37 57 1082 57 c 2
 1136 57 l 2
 1145 57 1152 51 1150 40 c 2
 1142 2 l 1
 1138 -2 l 1
 1138 -2 960 2 880 2 c 0
 807 2 616 -2 616 -2 c 1
 612 2 l 1
 620 40 l 2
 622 51 629 57 639 57 c 2
 693 57 l 2
 777 57 810.924 89.0147 822 146 c 2
 923.952 670.544 l 1
 922 661 l 1
 704 661 655.587 576.679 541 368 c 0
 418 144 330.997 2.19399 184 0 c 2
 50 -2 l 1
 47 2 l 1
 55 40 l 2
 57 51 65 57 73 57 c 2
 92 57 l 2
 159 57 292.723 210.748 453 483 c 0
 526 607 582 702 709 702 c 1
 600.2 743.6 582.92 885.68 582.92 1006.38 c 0
 582.92 1036.56 584 1065.4 585 1091 c 0
 585.152 1094.04 585.227 1097.07 585.227 1100.09 c 0
 585.227 1156.63 558.873 1208 519 1208 c 0
 495 1208 468.15 1192.83 445 1172 c 0
 425 1154 395 1144 371 1144 c 0
 336.578 1144 305.272 1172.04 305.272 1213.01 c 0
 305.272 1218.45 305.826 1224.13 307 1230 c 0
 316 1278 361 1334 458 1334 c 0
 581.01 1334 658.555 1242.16 658.555 1131.32 c 0
 658.555 1125.92 658.371 1120.48 658 1115 c 0
 655.778 1082.18 653.393 1046.4 653.393 1010.46 c 0
 653.393 919.385 668.445 827.326 738 780 c 0
 780.832 750.117 871.289 749.008 939.201 749 c 1
 1022 1175 l 2
 1024.1 1185.16 1025.18 1194.39 1025.18 1202.72 c 0
 1025.18 1246.01 995.932 1265 928 1265 c 2
 874 1265 l 2
 865 1265 858 1271 860 1282 c 2
 868 1320 l 1
 872 1324 l 1
 872 1324 1050 1320 1130 1320 c 0
 1203 1320 1394 1324 1394 1324 c 1
 1398 1320 l 1
 1390 1282 l 2
 1388 1271 1381 1265 1371 1265 c 2
 1317 1265 l 2
 1233 1265 1198.08 1231.99 1187 1175 c 2
 1088.95 670.544 l 1
 1105 749 l 1
 1173 749 1264 750 1319 780 c 0
 1440 846 1491 999 1529 1115 c 0
 1567.59 1232.81 1684 1334 1813 1334 c 0
 1897.43 1334 1925.8 1291.57 1925.8 1248.93 c 0
 1925.8 1242.58 1925.17 1236.22 1924 1230 c 0
 1914 1180 1865 1144 1826 1144 c 0
 1802 1144 1776 1154 1764 1172 c 0
 1749 1193 1728 1208 1704 1208 c 0
 1662 1208 1613.08 1150.97 1592 1091 c 0
 1547 963 1474 754 1316 702 c 1
 1443 702 1463 607 1488 483 c 0
 1542.96 210.388 1616 57 1683 57 c 2
 1702 57 l 2
 1710 57 1716 51 1714 40 c 2
 1706 2 l 1
 1703 -2 l 1
EndSplineSet
EndChar

StartChar: afii10025
Encoding: 1047 1047 77
Width: 1132
VWidth: 2047
Flags: HW
HStem: -25 76<359.821 724.073> 691 69<485.198 814.613> 1287 69<615.994 933.178>
VStem: 928.123 192.737<380.224 595.078> 1001.31 166.29<1053.39 1217.84>
DStem2: 320 948 375 948 0.191857 0.981423<10.5521 150.366 397.587 406.553>
LayerCount: 2
Fore
SplineSet
525 51 m 0
 670 51 874 115 922 361 c 0
 925.692 380.015 928.123 403.255 928.123 428.514 c 0
 928.123 540.076 880.694 691 685 691 c 2
 495 691 l 2
 472 691 463 702 468 725 c 0
 471 748 486 760 509 760 c 2
 624 760 l 2
 869 760 974.617 924.073 996 1036 c 0
 999.539 1054.52 1001.31 1072.29 1001.31 1089.25 c 0
 1001.31 1208.77 916.59 1287 815 1287 c 0
 540 1287 405 1102 375 948 c 1
 320 948 l 1
 398 1347 l 1
 452 1347 l 1
 450.487 1339.62 449.761 1333.14 449.761 1327.48 c 0
 449.761 1303.2 463.107 1294 485 1294 c 0
 531 1294 672 1356 796 1356 c 0
 1016.69 1356 1167.6 1282.97 1167.6 1124.5 c 0
 1167.6 1107.04 1165.77 1088.55 1162 1069 c 0
 1127 890 899 751 860 738 c 1
 981.744 700.677 1120.86 630.977 1120.86 462.233 c 0
 1120.86 441.088 1118.68 418.387 1114 394 c 0
 1057 103 789 -25 505 -25 c 0
 339 -25 227 39 172 89 c 0
 132.754 125.686 106.611 171.107 106.611 217.811 c 0
 106.611 225.849 107.385 233.924 109 242 c 0
 119 295 162 337 209 337 c 0
 267 337 289 312 298 245 c 0
 317.601 99.0795 370 51 525 51 c 0
EndSplineSet
EndChar

StartChar: afii10026
Encoding: 1048 1048 78
Width: 1435
VWidth: 2047
Flags: HW
HStem: 3 54<48.779 228.45 410.9 568.44 882.779 1063.42 1244.39 1396> 1265 53<297 424.878 424.878 448.109 628.585 809.221 1122.2 1281.61 1463.87 1643.22>
DStem2: 436 274 414 159 0.692102 0.721799<0 1114.02> 1080 146 1245 146 0.191533 0.981486<5.6152 904.695 1021.78 1075.42>
LayerCount: 2
Fore
SplineSet
1446 1176 m 2
 1245 146 l 2
 1243.17 136.381 1242.22 127.625 1242.22 119.692 c 0
 1242.22 75.6667 1271.37 57 1340 57 c 2
 1394 57 l 2
 1403 57 1410 51 1408 40 c 2
 1400 2 l 1
 1396 -2 l 1
 1396 -2 1219 3 1139 3 c 0
 1066 3 874 -2 874 -2 c 1
 870 2 l 1
 878 40 l 2
 880 51 887 57 897 57 c 2
 951 57 l 2
 1035 57 1068.9 89.0196 1080 146 c 2
 1253 1034 l 1
 414 159 l 1
 412 147 l 2
 409.864 136.649 408.754 127.27 408.754 118.822 c 0
 408.754 75.8565 437.473 57 506 57 c 2
 560 57 l 2
 568 57 575 51 573 40 c 2
 565 2 l 1
 561 -2 l 1
 561 -2 385 3 305 3 c 0
 233 3 40 -2 40 -2 c 1
 36 2 l 1
 44 40 l 2
 46 51 53 57 63 57 c 2
 117 57 l 2
 201 57 235 90 247 147 c 2
 447 1177 l 2
 448.867 1186.8 449.839 1195.69 449.839 1203.7 c 0
 449.839 1247.18 421.239 1265 352 1265 c 2
 298 1265 l 2
 290 1265 283 1271 285 1282 c 2
 293 1320 l 1
 297 1324 l 1
 297 1324 474 1318 554 1318 c 0
 626 1318 818 1324 818 1324 c 1
 822 1320 l 1
 814 1282 l 2
 812 1271 805 1265 795 1265 c 2
 741 1265 l 2
 657 1265 623.106 1233.98 612 1177 c 2
 436 274 l 1
 1275 1149 l 1
 1281 1176 l 2
 1282.83 1185.62 1283.78 1194.38 1283.78 1202.31 c 0
 1283.78 1246.33 1254.63 1265 1186 1265 c 2
 1132 1265 l 2
 1123 1265 1116 1271 1118 1282 c 2
 1126 1320 l 1
 1130 1324 l 1
 1130 1324 1307 1319 1387 1319 c 0
 1460 1319 1653 1325 1653 1325 c 1
 1656 1321 l 1
 1648 1283 l 2
 1646 1272 1639 1266 1629 1266 c 2
 1575 1266 l 2
 1491 1266 1457.12 1232.98 1446 1176 c 2
EndSplineSet
EndChar

StartChar: afii10027
Encoding: 1049 1049 79
Width: 1435
VWidth: 2047
Flags: HW
HStem: 3 54<48.779 228.45 410.9 568.44 882.779 1063.42 1244.39 1396> 1265 53<297 424.878 424.878 448.109 628.585 809.221 1122.2 1281.61 1463.87 1643.22> 1427 63<915.004 1118.98>
VStem: 767.398 141.568<1499.69 1574>
DStem2: 436 274 414 159 0.692102 0.721799<0 1114.02> 1080 146 1245 146 0.191533 0.981486<5.6152 904.695 1021.78 1075.42>
LayerCount: 2
Fore
SplineSet
1281 1586 m 0
 1259.75 1478.05 1123 1427 993 1427 c 0
 869.281 1427 767.398 1468.15 767.398 1558.16 c 0
 767.398 1566.36 768.245 1574.98 770 1584 c 0
 779 1629 807 1647 862 1647 c 0
 898.997 1647 915.266 1622.57 915.266 1596.01 c 0
 915.266 1591.69 914.838 1587.33 914 1583 c 2
 911 1574 l 1
 911 1572 910 1569 910 1567 c 0
 909.306 1563.45 908.966 1559.93 908.966 1556.47 c 0
 908.966 1520.03 946.723 1490 1007 1490 c 0
 1069 1490 1125 1519 1134 1565 c 0
 1135 1568 1135 1571 1135 1574 c 1
 1136 1577 1136 1580 1137 1584 c 0
 1142 1613 1168 1647 1214 1647 c 0
 1261.28 1647 1282.69 1631.48 1282.69 1601.72 c 0
 1282.69 1596.86 1282.11 1591.62 1281 1586 c 0
1446 1176 m 2
 1245 146 l 2
 1243.17 136.381 1242.22 127.625 1242.22 119.692 c 0
 1242.22 75.6667 1271.37 57 1340 57 c 2
 1394 57 l 2
 1403 57 1410 51 1408 40 c 2
 1400 2 l 1
 1396 -2 l 1
 1396 -2 1219 3 1139 3 c 0
 1066 3 874 -2 874 -2 c 1
 870 2 l 1
 878 40 l 2
 880 51 887 57 897 57 c 2
 951 57 l 2
 1035 57 1068.9 89.0196 1080 146 c 2
 1253 1034 l 1
 414 159 l 1
 412 147 l 2
 409.864 136.649 408.754 127.27 408.754 118.822 c 0
 408.754 75.8565 437.473 57 506 57 c 2
 560 57 l 2
 568 57 575 51 573 40 c 2
 565 2 l 1
 561 -2 l 1
 561 -2 385 3 305 3 c 0
 233 3 40 -2 40 -2 c 1
 36 2 l 1
 44 40 l 2
 46 51 53 57 63 57 c 2
 117 57 l 2
 201 57 235 90 247 147 c 2
 447 1177 l 2
 448.867 1186.8 449.839 1195.69 449.839 1203.7 c 0
 449.839 1247.18 421.239 1265 352 1265 c 2
 298 1265 l 2
 290 1265 283 1271 285 1282 c 2
 293 1320 l 1
 297 1324 l 1
 297 1324 474 1318 554 1318 c 0
 626 1318 818 1324 818 1324 c 1
 822 1320 l 1
 814 1282 l 2
 812 1271 805 1265 795 1265 c 2
 741 1265 l 2
 657 1265 623.106 1233.98 612 1177 c 2
 436 274 l 1
 1275 1149 l 1
 1281 1176 l 2
 1282.83 1185.62 1283.78 1194.38 1283.78 1202.31 c 0
 1283.78 1246.33 1254.63 1265 1186 1265 c 2
 1132 1265 l 2
 1123 1265 1116 1271 1118 1282 c 2
 1126 1320 l 1
 1130 1324 l 1
 1130 1324 1307 1319 1387 1319 c 0
 1460 1319 1653 1325 1653 1325 c 1
 1656 1321 l 1
 1648 1283 l 2
 1646 1272 1639 1266 1629 1266 c 2
 1575 1266 l 2
 1491 1266 1457.12 1232.98 1446 1176 c 2
EndSplineSet
LCarets2: 1 0 
Ligature2: "'liga' Standard Ligatures lookup 3" afii10026 uni0306
EndChar

StartChar: afii10033
Encoding: 1055 1055 80
Width: 1367
VWidth: 2047
Flags: HW
HStem: 2 55<47.779 227.45 409.999 551 824.779 994.45 1177 1328> 1238 82<617.66 1211.73> 1265 57<295 447.083 1398.42 1575.04>
DStem2: 246 147 411 147 0.190052 0.981774<3.92558 1076.83> 1013 147 1178 147 0.190052 0.981774<3.92536 1059.07>
LayerCount: 2
Fore
SplineSet
1013 147 m 2
 1207 1147 l 2
 1209.96 1162.33 1211.9 1175.99 1211.9 1187.78 c 0
 1211.9 1219.83 1197.52 1238 1150 1238 c 2
 697 1238 l 2
 634 1238 618.198 1213.96 605 1146 c 2
 411 147 l 2
 408.903 136.836 407.821 127.61 407.821 119.282 c 0
 407.821 75.991 437.068 57 505 57 c 2
 549 57 l 2
 558 57 565 51 563 40 c 2
 555 2 l 1
 551 -2 l 1
 551 -2 383 2 303 2 c 0
 230 2 39 -2 39 -2 c 1
 35 2 l 1
 43 40 l 2
 45 51 52 57 62 57 c 2
 116 57 l 2
 200 57 234 90 246 147 c 2
 445 1175 l 2
 447.199 1186.36 448.321 1196.32 448.321 1205.07 c 0
 448.321 1254.87 413.29 1265 358 1265 c 2
 297 1265 l 2
 284 1265 283 1274 284 1281 c 2
 292 1320 l 1
 295 1322 l 1
 310 1322 523 1320 552 1320 c 0
 677 1319 788 1316 933 1316 c 0
 1060 1316 1171 1319 1318 1320 c 0
 1330 1320.08 1581 1324 1585 1324 c 1
 1589 1320 l 1
 1581 1282 l 2
 1580 1274 1571 1265 1561 1265 c 2
 1501 1265 l 2
 1444 1264 1390 1238 1377 1175 c 2
 1178 147 l 2
 1175.9 136.836 1174.82 127.61 1174.82 119.282 c 0
 1174.82 75.991 1204.07 57 1272 57 c 2
 1326 57 l 2
 1335 57 1342 51 1340 40 c 2
 1332 2 l 1
 1328 -2 l 1
 1328 -2 1150 2 1070 2 c 0
 997 2 816 -2 816 -2 c 1
 812 2 l 1
 820 40 l 2
 822 51 829 57 839 57 c 2
 883 57 l 2
 967 57 1001 90 1013 147 c 2
EndSplineSet
EndChar

StartChar: afii10034
Encoding: 1056 1056 81
Width: 1056
VWidth: 2047
Flags: HW
HStem: 2 55<47.779 228.415 409.395 561> 577 68<546.418 853.672> 1268 50<291 410.175> 1269 70<700.328 969.004>
VStem: 1039.66 177.51<990.935 1200.74>
DStem2: 245 146 410 146 0.190774 0.981634<5.48844 491.964 550.016 1075.57>
LayerCount: 2
Fore
SplineSet
623 1242 m 1
 509 655 l 1
 531 650 603 645 653 645 c 0
 853 645 985.757 738.048 1029 959 c 0
 1036.25 996.04 1039.66 1028.79 1039.66 1057.78 c 0
 1039.66 1231.52 918.697 1269 797 1269 c 0
 758 1269 666 1255 623 1242 c 1
245 146 m 2
 446 1177 l 2
 447.788 1186.41 448.609 1194.88 448.609 1202.48 c 0
 448.609 1258.69 403.71 1268 372 1268 c 0
 355 1268 305 1264 297 1264 c 0
 283 1264 282 1272 283 1278 c 2
 291 1318 l 1
 321 1318 443 1325 543 1330 c 0
 650.034 1335.35 773 1339 826 1339 c 0
 1145.93 1339 1217.17 1180.1 1217.17 1057.78 c 0
 1217.17 1035.2 1214.67 1013.87 1211 995 c 0
 1177.37 822.122 1024 577 651 577 c 0
 578 577 542 583 498 598 c 1
 410 146 l 2
 408.168 136.381 407.221 127.625 407.221 119.692 c 0
 407.221 75.6667 436.367 57 505 57 c 2
 559 57 l 2
 568 57 575 51 573 40 c 2
 565 2 l 1
 561 -2 l 1
 561 -2 383 2 303 2 c 0
 230 2 39 -2 39 -2 c 1
 35 2 l 1
 43 40 l 2
 45 51 52 57 62 57 c 2
 116 57 l 2
 200 57 233.892 89.021 245 146 c 2
EndSplineSet
EndChar

StartChar: afii10035
Encoding: 1057 1057 82
Width: 1319
VWidth: 2047
Flags: HW
HStem: -25 85<562.281 954.426> 1272 75<798.047 1164.4>
VStem: 185.603 184.089<276.623 605.65> 1342 64<939 1089.51>
LayerCount: 2
Fore
SplineSet
723 -25 m 0
 346.623 -25 185.603 222.261 185.603 498.822 c 0
 185.603 547.043 190.498 596.154 200 645 c 0
 279 1048 652 1347 991 1347 c 0
 1242 1347 1305 1262 1422 1255 c 1
 1406 1143 1406 1044 1406 939 c 1
 1342 929 l 1
 1323 1105 1237 1272 953 1272 c 0
 791 1272 467 1100 386 684 c 0
 375.288 628.777 369.692 572.667 369.692 517.882 c 0
 369.692 276.036 478.732 60 738 60 c 0
 928 60 1079 128 1256 286 c 1
 1297 256 l 1
 1122 74 920 -25 723 -25 c 0
EndSplineSet
EndChar

StartChar: afii10036
Encoding: 1058 1058 83
Width: 1183
VWidth: 2047
Flags: HW
HStem: 2 55<358.779 538.45 720.998 872> 1242 80<380.025 415 415 756.611 930.891 1283.99>
VStem: 1312 63<1063 1103.75>
DStem2: 557 147 722 147 0.190714 0.981646<4.03612 1060.85>
LayerCount: 2
Fore
SplineSet
415 1322 m 2
 1282 1322 l 2
 1325 1322 1333 1358 1335 1371 c 1
 1391 1379 l 1
 1380.52 1290.83 1374.62 1198.85 1374.62 1104.39 c 0
 1374.62 1090.64 1374.75 1076.84 1375 1063 c 1
 1312 1053 l 1
 1302 1216 1280 1242 1167 1242 c 2
 1032 1242 l 2
 958 1242 931.202 1223.96 918 1156 c 2
 722 147 l 2
 719.903 136.836 718.82 127.61 718.82 119.282 c 0
 718.82 75.991 748.068 57 816 57 c 2
 870 57 l 2
 879 57 886 51 884 40 c 2
 876 2 l 1
 872 -2 l 1
 872 -2 693 2 613 2 c 0
 540 2 350 -2 350 -2 c 1
 346 2 l 1
 354 40 l 2
 356 51 363 57 373 57 c 2
 427 57 l 2
 511 57 545 90 557 147 c 2
 754 1161 l 2
 756.027 1171.64 757.084 1181 757.084 1189.2 c 0
 757.084 1229.57 731.5 1242 670 1242 c 2
 498 1242 l 2
 385 1242 353 1216 281 1053 c 1
 222 1063 l 1
 266 1172 300 1278 328 1379 c 1
 380 1371 l 1
 379.432 1367.31 378.542 1361.77 378.542 1355.72 c 0
 378.542 1340.46 384.207 1322 415 1322 c 2
EndSplineSet
EndChar

StartChar: afii10037
Encoding: 1059 1059 84
Width: 1189
VWidth: 2047
Flags: HW
HStem: -46 127<266.517 470.953> 1265 55<260 319.957 319.957 367.875 576.196 730.162 1046.91 1176.42 1288.89 1431.64>
DStem2: 578 1178 403 1144 0.257732 -0.966216<-72.6993 733.436>
LayerCount: 2
Fore
SplineSet
416 81 m 0
 481 81 541 125 634 278 c 1
 403 1144 l 2
 391.81 1185.95 366 1265 266 1265 c 0
 254 1265 247 1272 249 1281 c 2
 257 1320 l 1
 260 1324 l 1
 260 1324 388 1320 472 1320 c 0
 574 1320 739 1324 739 1324 c 1
 743 1320 l 1
 735 1282 l 2
 733 1272 727 1265 718 1265 c 2
 640 1265 l 2
 596 1265 580 1254 576 1233 c 0
 573 1219 573 1200 578 1178 c 2
 762 468 l 1
 1167 1178 l 2
 1182 1202 1189 1219 1191 1231 c 0
 1191.58 1233.81 1191.87 1236.4 1191.87 1238.77 c 0
 1191.87 1260.92 1166.67 1265 1117 1265 c 2
 1056 1265 l 2
 1049 1265 1045 1272 1047 1281 c 2
 1055 1320 l 1
 1058 1324 l 1
 1058 1324 1192 1320 1279 1320 c 0
 1344 1320 1443 1324 1443 1324 c 1
 1446 1320 l 1
 1438 1282 l 2
 1436 1269 1422 1265 1414 1265 c 0
 1318 1265 1294 1241 1246 1159 c 2
 764 330 l 2
 633.821 106.104 491 -46 307 -46 c 0
 226.033 -46 147.664 -4.42585 147.664 54.5403 c 0
 147.664 58.9337 148.108 63.4219 149 68 c 0
 160.107 124.979 196 162 262 162 c 0
 291 162 335 147 349 123 c 0
 360.062 104.036 386 81 416 81 c 0
EndSplineSet
EndChar

StartChar: afii10039
Encoding: 1061 1061 85
Width: 1343
VWidth: 2047
Flags: HW
HStem: -2 59<18.469 179.853 340.09 410 864.861 972.238 1265.74 1332> 1265 59<628.943 742.854 1143 1237.17 1367.21 1539.04>
DStem2: 306 212 364 157 0.681057 0.73223<-79.3792 551.42 781.674 1390.99>
LayerCount: 2
Fore
SplineSet
276 1279 m 2
 284 1320 l 1
 294 1324 l 1
 346 1322 478 1320 500 1320 c 0
 511 1320 683 1322 745 1324 c 1
 745 1324 753 1320 754 1320 c 1
 746 1280 l 2
 744 1270 740 1265 733 1265 c 2
 667 1265 l 2
 633 1265 620 1258 617 1244 c 0
 616.642 1241.97 616.469 1239.8 616.469 1237.51 c 0
 616.469 1220.55 625.907 1196.66 640 1172 c 2
 813 812 l 2
 821 796 826 789 833 789 c 0
 841 789 849 797 865 814 c 2
 1199 1172 l 2
 1225 1201 1240 1226 1243 1241 c 0
 1247 1259 1233 1265 1205 1265 c 2
 1142 1265 l 1
 1135 1266 1129.05 1268.99 1131 1279 c 2
 1139 1320 l 1
 1143 1324 l 1
 1187 1323 1324 1320 1347 1320 c 0
 1357 1320 1510 1322 1546 1324 c 1
 1551 1320 l 1
 1543 1280 l 2
 1541 1273 1539 1265 1521 1265 c 0
 1396 1265 1339 1205 1269 1130 c 2
 932 768 l 2
 909 743 897 725 893 707 c 0
 892.314 703.397 891.981 699.794 891.981 696.161 c 0
 891.981 678.617 899.745 660.367 913 638 c 2
 1144 208 l 2
 1185.7 130.373 1243 57 1331 57 c 0
 1342 57 1345 50 1343 42 c 2
 1335 2 l 1
 1332 -2 l 1
 1275 0 1141 2 1116 2 c 0
 1103 2 860 -2 860 -2 c 1
 853 2 l 1
 861 43 l 2
 863 52 870 57 877 57 c 2
 919 57 l 2
 964.068 57 989.461 62.5839 989.461 84.9195 c 0
 989.461 99.861 978.239 121.314 963 150 c 2
 767 534 l 2
 758 551 751 558 744 558 c 0
 737 558 722 544 708 528 c 2
 364 157 l 2
 340 132 327 111 324 95 c 0
 323.454 92.3789 323.182 89.877 323.182 87.4996 c 0
 323.182 68.109 341.259 57 376 57 c 2
 415 57 l 2
 424 56 426 50 424 42 c 2
 416 2 l 1
 410 -2 l 1
 410 -2 210 2 180 2 c 0
 170 2 9 -2 9 -2 c 1
 6 2 l 1
 14 43 l 2
 16 54 28 57 39 57 c 0
 161 57 249 151 306 212 c 2
 661 595 l 2
 676.87 612.122 689 630 691 644 c 0
 691.697 647.485 692.03 650.879 692.03 654.235 c 0
 692.03 670.137 684.56 685.182 673 705 c 2
 461 1124 l 2
 364 1315 269 1245 276 1279 c 2
EndSplineSet
EndChar

StartChar: afii10040
Encoding: 1062 1062 86
Width: 1310
VWidth: 999
Flags: HW
HStem: -2 59<50.375 204.12> 5 70<379.951 967.213> 1265 59<296 422.037 593.781 751.394 1058 1182.44 1353.35 1510.38>
DStem2: 218 153 386 171 0.190921 0.981605<-0.192364 1086.15> 981 171 1144 157 0.190714 0.981646<-5.46466 1067.78>
LayerCount: 2
Fore
SplineSet
939 5 m 2
 939 5 755.444 5.88889 554.852 5.88889 c 0
 454.556 5.88889 350 5.66667 262 5 c 2
 40 -2 l 1
 35 2 l 1
 42 36 l 2
 44 48 55 57 64 57 c 2
 118 57 l 2
 185 59 202 72 218 153 c 2
 416 1171 l 2
 419.848 1191.52 422.051 1207.7 422.051 1220.42 c 0
 422.051 1257.26 403.554 1265 353 1265 c 2
 292 1265 l 2
 285 1265 281 1268 283 1275 c 2
 292 1320 l 1
 296 1324 l 1
 518 1320 l 1
 758 1324 l 1
 762 1320 l 1
 753 1276 l 2
 752 1269 747 1265 740 1265 c 2
 679 1265 l 2
 613 1265 597 1253 581 1171 c 2
 386 171 l 2
 382.057 150.054 379.936 133.601 379.936 120.7 c 0
 379.936 81.2466 399.771 75 448 75 c 2
 883 75 l 2
 956 75 968 105 981 171 c 2
 1176 1171 l 2
 1179.64 1190.72 1182.45 1207.04 1182.45 1220.23 c 0
 1182.45 1250.51 1167.63 1264.3 1114 1265 c 2
 1053 1265 l 2
 1046 1265 1042 1268 1044 1275 c 2
 1052 1320 l 1
 1058 1324 l 1
 1278 1320 l 1
 1515 1324 l 1
 1520 1320 l 1
 1512 1276 l 2
 1511 1269 1506 1265 1498 1265 c 2
 1438 1265 l 2
 1363 1264 1354.39 1239.93 1341 1171 c 2
 1144 157 l 2
 1142.48 149.18 1141.71 141.411 1141.71 133.856 c 0
 1141.71 92.1285 1164.82 57 1208 57 c 0
 1251.35 57 1260.74 40.3825 1260.74 24.343 c 0
 1260.74 21.5125 1260.45 18.7 1260 16 c 2
 1214 -288 l 1
 1159 -288 l 1
 1158 -144 1097 4.23488 939 5 c 2
EndSplineSet
EndChar

StartChar: afii10041
Encoding: 1063 1063 87
Width: 1271
VWidth: 2047
Flags: HW
HStem: -2 55<756.862 933.75 1106.75 1236> 512 119<562.505 857.577> 1269 55<317 434.737 604.427 749.379 1024 1155.03 1324.84 1482.45>
VStem: 356.832 165.809<672.172 844.435>
DStem2: 369 877 530 855 0.19095 0.9816<-60.082 356.306> 948 150 1113 150 0.191175 0.981556<-18.5947 508.34 587.769 1096.77>
LayerCount: 2
Fore
SplineSet
848 53 m 2
 921 53 934.414 80.1113 948 150 c 2
 1045 649 l 1
 876 544 730 512 612 512 c 0
 425.063 512 356.832 615.389 356.832 760.476 c 0
 356.832 797.003 361.156 836.172 369 877 c 2
 429 1184 l 2
 432.521 1202.02 434.751 1216.35 434.751 1227.73 c 0
 434.751 1261.2 415.707 1269 356 1269 c 2
 320 1269 l 2
 312.521 1269 308.495 1271.76 308.495 1276.71 c 0
 308.495 1277.72 308.662 1278.82 309 1280 c 2
 317 1324 l 1
 537 1321 l 1
 759 1324 l 1
 751 1279 l 2
 749 1272 745 1269 737 1269 c 2
 701 1269 l 2
 615 1269 606.246 1246.95 594 1184 c 2
 530 855 l 2
 525.054 829.036 522.641 805.747 522.641 784.926 c 0
 522.641 671.028 594.873 631 720 631 c 0
 781 631 912 640 1060 727 c 1
 1149 1182 l 2
 1152.7 1200.93 1155.04 1215.87 1155.04 1227.61 c 0
 1155.04 1259.93 1137.54 1268 1084 1268 c 2
 1023 1268 l 2
 1016 1268 1014 1271 1015 1278 c 2
 1024 1324 l 1
 1258 1318 l 1
 1493 1324 l 1
 1485 1280 l 2
 1483 1272 1478 1268 1471 1268 c 2
 1411 1268 l 2
 1341 1268 1329 1258 1314 1182 c 2
 1113 150 l 2
 1109.15 129.38 1106.74 112.766 1106.74 99.5146 c 0
 1106.74 64.5659 1123.52 53 1175 53 c 2
 1235 53 l 2
 1242 53 1245 48 1244 41 c 2
 1236 -2 l 1
 1003 3 l 1
 747 -2 l 1
 755 42 l 2
 757 49 760 53 767 53 c 2
 848 53 l 2
EndSplineSet
EndChar

StartChar: afii10042
Encoding: 1064 1064 88
Width: 1972
VWidth: 999
Flags: HW
HStem: -2 59<75.2095 233.514 1778.18 1904> 5 70<429.083 921.386 1094.51 1609.47> 1265 55<296 425.23 425.23 447.001 629.107 804.221 977.786 1131 1313.11 1488.22 1665.79 1819 2001.11 2181.22>
DStem2: 248 153 416 171 0.190201 0.981745<-0.93111 1068.44> 935 171 1100 171 0.19066 0.981656<-13.9402 1050.2> 1623 171 1783 143 0.190259 0.981734<-36.6016 1050.2>
LayerCount: 2
Fore
SplineSet
1983 1175 m 2
 1783 143 l 2
 1779.9 127.027 1778.17 113.906 1778.17 103.139 c 0
 1778.17 66.0135 1798.16 57 1847 57 c 2
 1908 57 l 2
 1915 57 1918 54 1917 47 c 2
 1908 2 l 1
 1904 -2 l 1
 1670 5 l 1
 369 5 l 1
 69 -2 l 1
 65 2 l 1
 74 47 l 2
 75 54 80 57 87 57 c 2
 148 57 l 2
 217 59 232 73 248 153 c 2
 446 1175 l 2
 448.097 1185.16 449.179 1194.39 449.179 1202.72 c 0
 449.179 1246.01 419.932 1265 352 1265 c 2
 298 1265 l 2
 289 1265 282 1271 284 1282 c 2
 292 1320 l 1
 296 1324 l 1
 296 1324 474 1320 554 1320 c 0
 627 1320 813 1324 813 1324 c 1
 817 1320 l 1
 809 1282 l 2
 807 1271 800 1265 790 1265 c 2
 741 1265 l 2
 657 1265 622.068 1231.99 611 1175 c 2
 416 171 l 2
 411.873 148.533 408.798 132.793 408.798 120.311 c 0
 408.798 105.57 413.087 95.3713 425 84 c 0
 432 77 450 75 478 75 c 2
 848 75 l 2
 911 75 922.585 107.079 935 171 c 2
 1130 1175 l 2
 1132.1 1185.16 1133.18 1194.39 1133.18 1202.72 c 0
 1133.18 1246.01 1103.93 1265 1036 1265 c 2
 987 1265 l 2
 978 1265 971 1271 973 1282 c 2
 981 1320 l 1
 985 1324 l 1
 985 1324 1158 1320 1238 1320 c 0
 1311 1320 1497 1324 1497 1324 c 1
 1501 1320 l 1
 1493 1282 l 2
 1491 1271 1484 1265 1474 1265 c 2
 1425 1265 l 2
 1341 1265 1306.07 1231.99 1295 1175 c 2
 1100 171 l 2
 1096.61 153.463 1094.33 138.167 1094.33 125.246 c 0
 1094.33 92.4864 1108.95 75 1157 75 c 2
 1525 75 l 2
 1592 75 1607 90 1623 171 c 2
 1818 1175 l 2
 1820.1 1185.16 1821.18 1194.39 1821.18 1202.72 c 0
 1821.18 1246.01 1791.93 1265 1724 1265 c 2
 1675 1265 l 2
 1666 1265 1659 1271 1661 1282 c 2
 1669 1320 l 1
 1673 1324 l 1
 1673 1324 1846 1320 1926 1320 c 0
 1999 1320 2190 1324 2190 1324 c 1
 2194 1320 l 1
 2186 1282 l 2
 2184 1271 2177 1265 2167 1265 c 2
 2113 1265 l 2
 2029 1265 1994.04 1231.99 1983 1175 c 2
EndSplineSet
EndChar

StartChar: afii10043
Encoding: 1065 1065 89
Width: 1977
VWidth: 999
Flags: HW
HStem: -3 57<75.0869 234.346> 2 72<410.075 921.095 1094.33 1602.51> 1265 55<296 447.001 629.107 804.221 977.786 1109.23 1109.23 808.342 985 1107.47 1107.47 1131 1313.11 1488.22 1665.79 1819 2001.11 2181.22>
DStem2: 246 142 416 171 0.190081 0.981768<13.6272 1079.62> 935 171 1100 171 0.19066 0.981656<-15.3921 1050.2> 1623 171 1787 165 0.190505 0.981686<-4.1622 1050.2>
LayerCount: 2
Fore
SplineSet
611 1175 m 2
 416 171 l 2
 412.472 152.772 409.895 136.878 409.895 123.52 c 0
 409.895 91.4452 424.756 74 477 74 c 2
 831 74 l 2
 908 74 920.641 97.0688 935 171 c 2
 1130 1175 l 2
 1132.1 1185.16 1133.18 1194.39 1133.18 1202.72 c 0
 1133.18 1246.01 1103.93 1265 1036 1265 c 2
 987 1265 l 2
 978 1265 971 1271 973 1282 c 2
 981 1320 l 1
 985 1324 l 1
 985 1324 1158 1320 1238 1320 c 0
 1311 1320 1497 1324 1497 1324 c 1
 1501 1320 l 1
 1493 1282 l 2
 1491 1271 1484 1265 1474 1265 c 2
 1425 1265 l 2
 1341 1265 1306.07 1231.99 1295 1175 c 2
 1100 171 l 2
 1096.46 152.051 1094.2 136.485 1094.2 123.803 c 0
 1094.2 86.2876 1113.98 74 1179 74 c 2
 1524 74 l 2
 1595 74 1608.64 97.0688 1623 171 c 2
 1818 1175 l 2
 1820.1 1185.16 1821.18 1194.39 1821.18 1202.72 c 0
 1821.18 1246.01 1791.93 1265 1724 1265 c 2
 1675 1265 l 2
 1666 1265 1659 1271 1661 1282 c 2
 1669 1320 l 1
 1673 1324 l 1
 1673 1324 1846 1320 1926 1320 c 0
 1999 1320 2190 1324 2190 1324 c 1
 2194 1320 l 1
 2186 1282 l 2
 2184 1271 2177 1265 2167 1265 c 2
 2113 1265 l 2
 2029 1265 1994.06 1231.99 1983 1175 c 2
 1787 165 l 2
 1784.95 154.081 1784.02 144.131 1784.02 135.088 c 0
 1784.02 77.8783 1821.23 57 1848 57 c 0
 1880.7 57 1902.68 49.5721 1902.68 21.9702 c 0
 1902.68 19.1893 1902.46 16.2035 1902 13 c 2
 1856 -288 l 1
 1800 -288 l 1
 1800.17 -284.089 1800.26 -279.97 1800.26 -275.668 c 0
 1800.26 -180.994 1756.31 2 1587 2 c 2
 301 2 l 1
 68 -3 l 1
 65 0 l 1
 74 44 l 2
 75 51 79 54 86 54 c 2
 147 54 l 2
 216 54 230 62 246 142 c 2
 446 1175 l 2
 448.097 1185.16 449.179 1194.39 449.179 1202.72 c 0
 449.179 1246.01 419.932 1265 352 1265 c 2
 298 1265 l 2
 289 1265 282 1271 284 1282 c 2
 292 1320 l 1
 296 1324 l 1
 296 1324 474 1320 554 1320 c 0
 627 1320 813 1324 813 1324 c 1
 817 1320 l 1
 809 1282 l 2
 807 1271 800 1265 790 1265 c 2
 741 1265 l 2
 657 1265 622.068 1231.99 611 1175 c 2
EndSplineSet
EndChar

StartChar: afii10044
Encoding: 1066 1066 90
Width: 1470
VWidth: 2047
Flags: HW
HStem: -2 61<373.779 553.45 736.436 1063.17> 683 81<857 1192.73> 1242 80<465.185 769.489> 1265 55<954.107 1134.22>
VStem: 1292.01 187.15<391.961 592.711>
DStem2: 572 147 739 162 0.190896 0.98161<4.4367 577.494 660.059 1053.87>
LayerCount: 2
Fore
SplineSet
841 683 m 1
 739 162 l 2
 735.938 145.985 733.819 131.8 733.819 119.471 c 0
 733.819 79.455 756.143 59 841 59 c 0
 1152 59 1260 248 1285 374 c 0
 1289.31 396.276 1292.01 420.521 1292.01 445.309 c 0
 1292.01 558.499 1235.75 683 1020 683 c 2
 841 683 l 1
879 1320 m 2
 952 1320 1143 1324 1143 1324 c 1
 1147 1320 l 1
 1139 1282 l 2
 1137 1271 1130 1265 1120 1265 c 2
 1066 1265 l 2
 982 1265 947 1232 936 1175 c 2
 857 764 l 1
 981 764 l 2
 1390.38 764 1479.16 627.55 1479.16 477.562 c 0
 1479.16 443.259 1474.51 408.249 1468 374 c 0
 1401 33 1074 -2 826 -2 c 0
 752 -2 689 2 629 2 c 0
 556 2 365 -2 365 -2 c 1
 361 2 l 1
 369 40 l 2
 371 51 378 57 388 57 c 2
 442 57 l 2
 526 57 560 90 572 147 c 2
 768 1155 l 2
 769.771 1164.92 770.695 1174.05 770.695 1182.36 c 0
 770.695 1221.01 750.731 1242 703 1242 c 2
 576 1242 l 2
 442 1242 336 1048 301 960 c 1
 242 970 l 1
 282 1085 313 1196 342 1322 c 1
 799 1322 l 1
 879 1320 l 2
EndSplineSet
EndChar

StartChar: afii10045
Encoding: 1067 1067 91
Width: 1611
VWidth: 2047
Flags: HW
HStem: -2 61<47.779 227.45 410.436 737.172> 5 55<1056.14 1237.42 1418.39 1569> 683 81<531 866.725> 1265 55<296 425.125 425.125 445.289 628.235 808.566 1305 1454.61 1636.87 1816.86> 1268 59<1304 1359>
VStem: 966.009 187.151<391.961 592.711>
DStem2: 246 147 413 162 0.190052 0.981774<4.29572 577.355 659.919 1072.18> 1254 149 1419 149 0.190793 0.98163<5.49147 1074.3>
LayerCount: 2
Fore
SplineSet
1619 1178 m 2
 1419 149 l 2
 1417.17 139.381 1416.22 130.625 1416.22 122.692 c 0
 1416.22 78.6667 1445.37 60 1514 60 c 2
 1568 60 l 2
 1577 60 1583 54 1581 43 c 2
 1574 5 l 1
 1569 1 l 1
 1569 1 1392 5 1312 5 c 0
 1239 5 1047 1 1047 1 c 1
 1044 5 l 1
 1051 43 l 2
 1053.03 53.9953 1061 60 1071 60 c 2
 1125 60 l 2
 1209 60 1242.92 92.0147 1254 149 c 2
 1454 1178 l 2
 1455.83 1187.62 1456.78 1196.4 1456.78 1204.37 c 0
 1456.78 1248.62 1427.63 1268 1359 1268 c 2
 1305 1268 l 2
 1296 1268 1290 1274 1292 1285 c 2
 1299 1323 l 1
 1304 1327 l 1
 1304 1327 1481 1323 1561 1323 c 0
 1634 1323 1826 1327 1826 1327 c 1
 1829 1323 l 1
 1822 1285 l 2
 1819.97 1274 1812 1268 1802 1268 c 2
 1748 1268 l 2
 1664 1268 1630.08 1234.99 1619 1178 c 2
445 1175 m 2
 446.755 1184.09 447.695 1192.58 447.695 1200.41 c 0
 447.695 1241.69 421.598 1265 351 1265 c 2
 297 1265 l 2
 287 1265 282 1271 284 1282 c 2
 292 1320 l 1
 296 1324 l 1
 296 1324 487 1320 560 1320 c 0
 640 1320 818 1324 818 1324 c 1
 822 1320 l 1
 814 1282 l 2
 812 1271 803 1265 794 1265 c 2
 740 1265 l 2
 659 1265 623 1238 610 1175 c 2
 531 764 l 1
 655 764 l 2
 1064.38 764 1153.16 627.55 1153.16 477.562 c 0
 1153.16 443.259 1148.51 408.249 1142 374 c 0
 1075 33 748 -2 500 -2 c 0
 426 -2 363 2 303 2 c 0
 245 2 39 -2 39 -2 c 1
 35 2 l 1
 43 40 l 2
 45 51 52 57 62 57 c 2
 116 57 l 2
 200 57 234 90 246 147 c 2
 445 1175 l 2
515 683 m 1
 413 162 l 2
 409.938 145.985 407.819 131.8 407.819 119.471 c 0
 407.819 79.455 430.143 59 515 59 c 0
 826 59 934 248 959 374 c 0
 963.312 396.276 966.009 420.521 966.009 445.309 c 0
 966.009 558.499 909.753 683 694 683 c 2
 515 683 l 1
EndSplineSet
EndChar

StartChar: afii10046
Encoding: 1068 1068 92
Width: 1144
VWidth: 2047
Flags: HW
HStem: -2 61<47.779 227.45 410.436 737.172> 683 81<531 866.725> 1265 55<296 425.125 425.125 445.289 628.235 808.566>
VStem: 966.009 187.151<391.961 592.711>
DStem2: 246 147 413 162 0.190052 0.981774<4.29572 577.355 659.919 1072.18>
LayerCount: 2
Fore
SplineSet
445 1175 m 2
 446.755 1184.09 447.695 1192.58 447.695 1200.41 c 0
 447.695 1241.69 421.598 1265 351 1265 c 2
 297 1265 l 2
 287 1265 282 1271 284 1282 c 2
 292 1320 l 1
 296 1324 l 1
 296 1324 487 1320 560 1320 c 0
 640 1320 818 1324 818 1324 c 1
 822 1320 l 1
 814 1282 l 2
 812 1271 803 1265 794 1265 c 2
 740 1265 l 2
 659 1265 623 1238 610 1175 c 2
 531 764 l 1
 655 764 l 2
 1064.38 764 1153.16 627.55 1153.16 477.562 c 0
 1153.16 443.259 1148.51 408.249 1142 374 c 0
 1075 33 748 -2 500 -2 c 0
 426 -2 363 2 303 2 c 0
 245 2 39 -2 39 -2 c 1
 35 2 l 1
 43 40 l 2
 45 51 52 57 62 57 c 2
 116 57 l 2
 200 57 234 90 246 147 c 2
 445 1175 l 2
515 683 m 1
 413 162 l 2
 409.938 145.985 407.819 131.8 407.819 119.471 c 0
 407.819 79.455 430.143 59 515 59 c 0
 826 59 934 248 959 374 c 0
 963.312 396.276 966.009 420.521 966.009 445.309 c 0
 966.009 558.499 909.753 683 694 683 c 2
 515 683 l 1
EndSplineSet
EndChar

StartChar: afii10047
Encoding: 1069 1069 93
Width: 1229
VWidth: 2047
Flags: HW
HStem: -25 69<409.656 733.732> 599 119<489.245 626.93> 607 102<600.907 657 657 891.031> 618 80<854.618 1076> 1272 75<623.981 956.87>
VStem: 1108.33 180.86<768.778 1102.51>
LayerCount: 2
Fore
SplineSet
833 1347 m 0
 1108.39 1347 1289.19 1185.85 1289.19 867.654 c 0
 1289.19 805.711 1282.33 737.817 1268 664 c 0
 1195.96 293.007 884 -25 536 -25 c 0
 360 -25 254 39 199 89 c 0
 159.754 125.686 133.611 171.107 133.611 217.811 c 0
 133.611 225.849 134.385 233.924 136 242 c 0
 146 295 189 337 236 337 c 0
 294 337 316 312 325 245 c 0
 344.601 99.0795 434 44 581 44 c 0
 842 44 1028 390 1076 618 c 1
 657 607 l 2
 625 606 578 599 538 599 c 0
 494.686 599 458.7 607.957 458.7 642.772 c 0
 458.7 646.538 459.129 650.605 460 655 c 0
 470.098 705.981 509 718 555 718 c 0
 591 718 633 710 667 709 c 2
 1092 698 l 1
 1103.24 765.411 1108.33 825.435 1108.33 878.783 c 0
 1108.33 1186.31 939.052 1272 801 1272 c 0
 608 1272 415 1105 328 929 c 1
 268 939 l 1
 308 1044 346 1143 374 1255 c 1
 493 1262 618 1347 833 1347 c 0
EndSplineSet
EndChar

StartChar: afii10048
Encoding: 1070 1070 94
Width: 1854
VWidth: 2047
Flags: HW
HStem: -25 70<1067.86 1380.44> 2 55<48.779 229.415 410.395 562> 1265 55<296 425.23 425.23 447.001 629.107 809.221> 1277 70<1261.14 1567.51>
VStem: 689.974 185.593<265.64 583.703> 1740.33 181.57<745.344 1075.35>
DStem2: 246 146 411 146 0.190793 0.98163<5.49166 1075.69>
LayerCount: 2
Fore
SplineSet
1398 1277 m 0
 1226 1277 977 1100 893 670 c 0
 881.092 608.267 875.567 550.536 875.567 497.068 c 0
 875.567 209.284 1035.63 45 1222 45 c 0
 1433 45 1645.84 268.031 1717 634 c 0
 1732.79 715.232 1740.33 788.852 1740.33 854.825 c 0
 1740.33 1134.86 1605.19 1277 1398 1277 c 0
1905 674 m 0
 1825 264 1535 -25 1171 -25 c 0
 888.607 -25 689.974 165.5 689.974 475.662 c 0
 689.974 522.764 694.555 572.626 704.119 625 c 1
 504.1 625 l 1
 411 146 l 2
 409.168 136.381 408.221 127.625 408.221 119.692 c 0
 408.221 75.6667 437.367 57 506 57 c 2
 560 57 l 2
 569 57 576 51 574 40 c 2
 566 2 l 1
 562 -2 l 1
 562 -2 384 2 304 2 c 0
 231 2 40 -2 40 -2 c 1
 36 2 l 1
 44 40 l 2
 46 51 53 57 63 57 c 2
 117 57 l 2
 201 57 234.924 89.0147 246 146 c 2
 446 1175 l 2
 448.097 1185.16 449.179 1194.39 449.179 1202.72 c 0
 449.179 1246.01 419.932 1265 352 1265 c 2
 298 1265 l 2
 289 1265 282 1271 284 1282 c 2
 292 1320 l 1
 296 1324 l 1
 296 1324 474 1320 554 1320 c 0
 627 1320 818 1324 818 1324 c 1
 822 1320 l 1
 814 1282 l 2
 812 1271 805 1265 795 1265 c 2
 741 1265 l 2
 657 1265 622.076 1231.99 611 1175 c 2
 519.649 705 l 1
 722.314 705 l 1
 821.609 1072.43 1115.08 1347 1436 1347 c 0
 1729.45 1347 1921.9 1151.56 1921.9 840.851 c 0
 1921.9 788.391 1916.41 732.646 1905 674 c 0
EndSplineSet
EndChar

StartChar: afii10049
Encoding: 1071 1071 95
Width: 1149
VWidth: 2047
Flags: HW
HStem: 0 57<33.0059 145.989 594.779 775.415 956.395 1108> 661 88<697.574 751 751 892> 1252 72<631.027 990.956> 1265 55<1171.93 1359.33>
VStem: 329.011 162.709<818.487 1004.71>
LayerCount: 2
Fore
SplineSet
892 661 m 1
 674 661 628.587 576.679 514 368 c 0
 391 144 303.997 2.19399 157 0 c 2
 23 -2 l 1
 20 2 l 1
 28 40 l 2
 30 51 38 57 46 57 c 2
 65 57 l 2
 132 57 265 211 426 483 c 0
 475.535 566.686 517 637 578 674 c 1
 457.801 691.676 329.011 767.937 329.011 929.016 c 0
 329.011 950.192 331.302 972.82 336 997 c 0
 363.383 1137.93 468 1324 849 1324 c 0
 921 1324 1041 1320 1108 1320 c 0
 1173 1320 1371 1324 1371 1324 c 1
 1363 1279 l 2
 1361 1271 1356 1265 1345 1265 c 2
 1284 1265 l 2
 1199 1265 1171 1245 1157 1175 c 2
 957 146 l 2
 955.168 136.381 954.221 127.625 954.221 119.692 c 0
 954.221 75.6667 983.367 57 1052 57 c 2
 1106 57 l 2
 1115 57 1122 51 1120 40 c 2
 1112 2 l 1
 1108 -2 l 1
 1108 -2 930 2 850 2 c 0
 777 2 586 -2 586 -2 c 1
 582 2 l 1
 590 40 l 2
 592 51 599 57 609 57 c 2
 663 57 l 2
 747 57 780.935 89.0127 792 146 c 2
 892 661 l 1
993 1178 m 2
 995.421 1190.51 997.122 1200.93 997.122 1209.6 c 0
 997.122 1247.37 964.955 1252 821 1252 c 0
 706 1252 537 1218 500 1029 c 0
 494.386 999.996 491.72 973.742 491.72 950.023 c 0
 491.72 796.284 603.722 749 751 749 c 2
 910 749 l 1
 993 1178 l 2
EndSplineSet
EndChar

StartChar: afii10089
Encoding: 1095 1095 96
Width: 1046
VWidth: 2047
Flags: HW
HStem: 2 55<570.625 706.21 866.013 962> 298 73<425.71 695.39> 823 59<241 320.987 480.719 614.426 767 861.987 1023.39 1176.77>
VStem: 267 148<382.808 533.53>
LayerCount: 2
Fore
SplineSet
853 725 m 2
 859 749 862 767 862 781 c 0
 862 814 844 823 793 823 c 2
 761 823 l 2
 754 823 751 826 752 833 c 2
 763 878 l 1
 767 882 l 1
 955 878 l 1
 1187 882 l 1
 1189 878 l 1
 1179 834 l 2
 1177 827 1172 823 1164 823 c 2
 1112 823 l 2
 1043 823 1026 808 1006 725 c 2
 875 155 l 2
 869 131 866 113 866 99 c 0
 866 67 884 57 935 57 c 2
 969 57 l 2
 976 57 978 53 977 47 c 2
 966 2 l 1
 962 -2 l 1
 962 -2 848 2 771 2 c 0
 689 2 562 -2 562 -2 c 1
 559 3 l 1
 569 46 l 2
 570 53 575 57 583 57 c 2
 616 57 l 2
 690 57 703.707 76.0675 722 155 c 2
 776 388 l 1
 682 328 610 298 487 298 c 0
 333 298 267 353 267 476 c 0
 267 513 274 557 285 608 c 2
 313 727 l 2
 318 750 321 768 321 781 c 0
 321 814 303 823 252 823 c 2
 236 823 l 2
 229 823 226 826 227 833 c 2
 238 878 l 1
 241 882 l 1
 414 877 l 1
 625 882 l 1
 627 878 l 1
 617 835 l 2
 615 827 610 823 602 823 c 2
 571 823 l 2
 502 823 483 803 468 738 c 2
 437 600 l 2
 424.4 543.909 415 499 415 464 c 0
 415 400 444 371 526 371 c 0
 626 371 711 396 792 460 c 1
 853 725 l 2
EndSplineSet
EndChar

StartChar: afii10090
Encoding: 1096 1096 97
Width: 1677
VWidth: 2047
Flags: HW
HStem: -2 59<97.2095 233.136 1492.77 1607> 1 73<396.014 780.324 949.578 1323.33> 823 59<271 387.987 548.816 689.426 831 933.987 1095.39 1245.77 1363 1476.99 1637.78 1781.43>
DStem2: 245 143 405 174 0.225225 0.974307<9.36488 653.217> 798 173 951 174 0.224215 0.97454<-15.3946 622.37> 1341 174 1487 141 0.224495 0.974475<-48.3751 621.44>
LayerCount: 2
Fore
SplineSet
1622 727 m 2
 1487 141 l 2
 1482.15 119.963 1479 104 1479 92 c 0
 1479 58 1500 57 1551 57 c 2
 1613 57 l 2
 1621 57 1624 52 1622 45 c 2
 1612 2 l 1
 1607 -2 l 1
 1374 0 l 2
 1208 1 1092 1 1010 1 c 0
 721 1 851 -3 645 -3 c 0
 641 -3 636 -3 630 -3 c 0
 493 -3 417 1 280 1 c 2
 88 -2 l 1
 86 2 l 1
 96 47 l 2
 97 54 102 57 109 57 c 2
 142 57 l 2
 214 57 226.751 64.0571 245 143 c 2
 380 727 l 2
 385 750 388 768 388 781 c 0
 388 814 370 823 319 823 c 2
 266 823 l 2
 259 823 256 826 257 833 c 2
 268 878 l 1
 271 882 l 1
 481 877 l 1
 700 882 l 1
 702 878 l 1
 692 835 l 2
 690 827 685 823 677 823 c 2
 638 823 l 2
 569 823 552.201 809.954 533 727 c 2
 405 174 l 2
 400 150 396 132 396 117 c 0
 396 83 415 74 465 74 c 2
 692 74 l 2
 765 74 780 97 798 173 c 2
 925 725 l 2
 931 749 934 767 934 781 c 0
 934 814 916 823 865 823 c 2
 825 823 l 2
 818 823 815 826 816 833 c 2
 827 878 l 1
 831 882 l 1
 1027 878 l 1
 1256 882 l 1
 1258 878 l 1
 1248 834 l 2
 1246 827 1241 823 1233 823 c 2
 1184 823 l 2
 1115 823 1098 808 1078 725 c 2
 951 174 l 2
 946.152 152.964 944 136 944 123 c 0
 944 82 967 74 1011 74 c 2
 1236 74 l 2
 1312 74 1326 110 1341 174 c 2
 1469 727 l 2
 1474 750 1477 768 1477 781 c 0
 1477 814 1459 823 1408 823 c 2
 1358 823 l 2
 1351 823 1348 826 1349 833 c 2
 1360 878 l 1
 1363 882 l 1
 1570 877 l 1
 1792 882 l 1
 1794 878 l 1
 1784 835 l 2
 1782 827 1777 823 1769 823 c 2
 1727 823 l 2
 1658 823 1641.12 809.974 1622 727 c 2
EndSplineSet
EndChar

StartChar: afii10091
Encoding: 1097 1097 98
Width: 1659
VWidth: 2047
Flags: HW
HStem: -2 59<97.6061 233.011> 0 73<396.013 780.385 943.158 1318.04> 823 59<271 387.987 548.834 689.426 831 933.987 1095.39 1245.77 1363 1476.99 1637.81 1781.43>
DStem2: 245 144 404 171 0.225592 0.974222<5.52534 652.241> 797 170 950 171 0.224731 0.974421<-15.2689 625.516> 1341 173 1489 152 0.225354 0.974277<-17.7543 622.411>
LayerCount: 2
Fore
SplineSet
1622 727 m 2
 1489 152 l 2
 1487 141 1485 131 1485 121 c 0
 1485 84 1504 57 1541 57 c 0
 1566 57 1592 55 1592 27 c 0
 1592 24 1591 20 1591 16 c 2
 1538 -263 l 1
 1487 -263 l 1
 1486 -162 1468 0 1303 0 c 2
 1303 0 1028 0 726 0 c 0
 574 0 415 0 281 0 c 2
 89 -2 l 1
 86 2 l 1
 96 46 l 2
 97 53 102 57 109 57 c 2
 142 57 l 2
 213 57 226.721 65.064 245 144 c 2
 380 727 l 2
 385 750 388 768 388 781 c 0
 388 814 370 823 319 823 c 2
 266 823 l 2
 259 823 256 826 257 833 c 2
 268 878 l 1
 271 882 l 1
 481 877 l 1
 700 882 l 1
 702 878 l 1
 692 835 l 2
 690 827 685 823 677 823 c 2
 638 823 l 2
 569 823 552.244 809.944 533 727 c 2
 404 171 l 2
 399 147 396 129 396 114 c 0
 396 80 414 71 464 71 c 2
 691 71 l 2
 764 71 779.498 94.114 797 170 c 2
 925 725 l 2
 931 749 934 767 934 781 c 0
 934 814 916 823 865 823 c 2
 825 823 l 2
 818 823 815 826 816 833 c 2
 827 878 l 1
 831 882 l 1
 1027 878 l 1
 1256 882 l 1
 1258 878 l 1
 1248 834 l 2
 1246 827 1241 823 1233 823 c 2
 1184 823 l 2
 1115 823 1098 808 1078 725 c 2
 950 171 l 2
 946 150 943 134 943 120 c 0
 943 79 967 71 1011 71 c 2
 1235 73 l 2
 1311 73.6786 1325 104 1341 173 c 2
 1469 727 l 2
 1474 750 1477 768 1477 781 c 0
 1477 814 1459 823 1408 823 c 2
 1358 823 l 2
 1351 823 1348 826 1349 833 c 2
 1360 878 l 1
 1363 882 l 1
 1570 877 l 1
 1792 882 l 1
 1794 878 l 1
 1784 835 l 2
 1782 827 1777 823 1769 823 c 2
 1727 823 l 2
 1658 823 1641.19 809.957 1622 727 c 2
EndSplineSet
EndChar

StartChar: afii10092
Encoding: 1098 1098 99
Width: 1090
VWidth: 2047
Flags: HW
HStem: 0 54<294.106 412.048 580.107 829.456> 437 71<661 903.033> 804 74<361.107 577> 823 59<726.297 892.271>
VStem: 951 143<271.721 390.539>
DStem2: 418 118 559 64 0.225793 0.974175<-19.647 362.017 434.796 703.895>
LayerCount: 2
Fore
SplineSet
577 804 m 1
 379 804 346 796 239 564 c 1
 185 569 l 1
 281 880 l 1
 672 878 l 1
 899 882 l 1
 904 878 l 1
 893 831 l 2
 891 824 887 823 880 823 c 2
 817 823 l 2
 742 823 730 807 714 735 c 2
 661 508 l 1
 764 508 l 2
 990 508 1094 450 1094 329 c 0
 1094 310 1092 289 1087 267 c 0
 1050 107 877 0 747 0 c 2
 282 0 l 1
 294 50 l 1
 294 54 300 57 304 57 c 2
 353 57 l 2
 396 57 411 86 418 118 c 2
 577 804 l 1
645 437 m 1
 559 64 l 1
 589 57 631 54 656 54 c 0
 801 54 915 124 949 272 c 0
 950 279 951 286 951 294 c 0
 951 354 901 437 780 437 c 2
 645 437 l 1
EndSplineSet
EndChar

StartChar: afii10093
Encoding: 1099 1099 100
Width: 1396
VWidth: 2047
Flags: HW
HStem: 2 55<120.048 240.041 407.078 659.534 910.57 1055.71 1221.73 1332> 437 71<487 727.938> 823 55<264 388.372 557.17 717.426 1104 1194.85 1194.85 1212.49 1378.99 1523.78>
VStem: 775 147<264.405 392.855>
DStem2: 244 118 385 64 0.224306 0.974519<-20.3491 361.789 434.569 665.227> 1073 147 1226 147 0.224495 0.974475<-0.422817 637.094>
LayerCount: 2
Fore
SplineSet
914 270 m 0
 875 98 716 0 522 0 c 2
 299 2 l 1
 113 -2 l 1
 108 2 l 1
 120 51 l 2
 121 55 123 57 128 57 c 2
 179 57 l 2
 231 60 234 75 244 118 c 2
 380 707 l 2
 385.784 732.051 389 752 389 768 c 0
 389 805 372 822 324 823 c 2
 261 823 l 2
 254 823 251 826 252 833 c 2
 264 882 l 1
 497 878 l 1
 731 882 l 1
 720 835 l 2
 718 827 713 823 705 823 c 2
 643 823 l 2
 571 821 552 787 533 707 c 2
 487 508 l 1
 605 508 l 2
 779 508 922 474 922 332 c 0
 922 313 920 292 914 270 c 0
771 250 m 0
 774 263 775 276 775 289 c 0
 775 367 720 437 609 437 c 2
 471 437 l 1
 385 64 l 1
 402 60 449 54 488 54 c 0
 579 54 733 86 771 250 c 0
1208 733 m 2
 1211 746.002 1213 759 1213 769 c 0
 1213 804 1194 823 1141 823 c 2
 1102 823 l 2
 1092 823 1087 829 1090 840 c 2
 1099 878 l 1
 1104 882 l 1
 1104 882 1242 878 1315 878 c 0
 1395 878 1536 882 1536 882 c 1
 1539 878 l 1
 1530 840 l 2
 1527 829 1518 823 1509 823 c 2
 1470 823 l 2
 1403 823 1375 791 1361 733 c 2
 1226 147 l 2
 1223 133.998 1221 122 1221 112 c 0
 1221 76 1241 57 1293 57 c 2
 1332 57 l 2
 1341 57 1348 51 1345 40 c 2
 1336 2 l 1
 1332 -2 l 1
 1332 -2 1192 2 1112 2 c 0
 1039 2 900 -2 900 -2 c 1
 896 2 l 1
 905 40 l 2
 908 51 915 57 925 57 c 2
 964 57 l 2
 1033 57 1059.66 89.0789 1073 147 c 2
 1208 733 l 2
EndSplineSet
EndChar

StartChar: afii10094
Encoding: 1100 1100 101
Width: 917
VWidth: 2047
Flags: HW
HStem: 0 54<120.048 239.18 407.078 659.534> 437 71<487 727.938> 823 59<264 388.372 557.17 717.426>
VStem: 775 147<264.405 392.855>
DStem2: 244 118 385 64 0.224306 0.974519<-20.3491 361.789 434.569 665.227>
LayerCount: 2
Fore
SplineSet
914 270 m 0
 875 98 716 0 522 0 c 2
 299 2 l 1
 113 -2 l 1
 108 2 l 1
 120 51 l 2
 121 55 123 57 128 57 c 2
 179 57 l 2
 231 60 234 75 244 118 c 2
 380 707 l 2
 385.784 732.051 389 752 389 768 c 0
 389 805 372 822 324 823 c 2
 261 823 l 2
 254 823 251 826 252 833 c 2
 264 882 l 1
 497 878 l 1
 731 882 l 1
 720 835 l 2
 718 827 713 823 705 823 c 2
 643 823 l 2
 571 821 552 787 533 707 c 2
 487 508 l 1
 605 508 l 2
 779 508 922 474 922 332 c 0
 922 313 920 292 914 270 c 0
771 250 m 0
 774 263 775 276 775 289 c 0
 775 367 720 437 609 437 c 2
 471 437 l 1
 385 64 l 1
 402 60 449 54 488 54 c 0
 579 54 733 86 771 250 c 0
EndSplineSet
EndChar

StartChar: afii10095
Encoding: 1101 1101 102
Width: 887
VWidth: 2047
Flags: HW
HStem: -25 63<292.571 541.101> 419 83<423.765 535.866> 425 66<464.315 753> 841 64<427.751 706.99>
VStem: 132 146<55.5538 172.344> 771 159<494.388 758.254>
LayerCount: 2
Fore
SplineSet
753 423 m 1
 753 425 l 1
 537 419 l 2
 513 419 477 413 447 413 c 0
 415 413 390 419 390 444 c 0
 390 448 390 451 391 455 c 0
 400 494 429 502 463 502 c 0
 491 502 522 497 548 496 c 2
 764 491 l 1
 769 527 771 559 771 589 c 0
 771 786 677 841 620 841 c 0
 508 841 394 817 347 717 c 2
 347 717 323 662 305 630 c 1
 258 630 l 1
 336 905 l 1
 362 905 l 2
 381 905 383 878 399 878 c 0
 417 878 538 905 625 905 c 0
 832 905 930 752 930 572 c 0
 930 532 926 492 916 451 c 0
 842 129 573 -25 391 -25 c 0
 227 -25 132 34 132 132 c 0
 132 145 134 159 137 173 c 0
 143 201 176 232 213 232 c 0
 233 232 279 225 279 166 c 0
 279 163 279 160 279 156 c 0
 279 150 278 145 278 139 c 0
 278 79 309 38 405 38 c 0
 510 38 683 120 753 423 c 1
EndSplineSet
EndChar

StartChar: afii10096
Encoding: 1102 1102 103
Width: 1415
VWidth: 2047
Flags: HW
HStem: -25 73<868.317 1114.71> -2 59<73.2953 74.3562 74.3562 219.413 385.733 494.899 494.899 495> 406 80<468.097 633.849> 823 59<267 267.1 267.1 376.487 542.699 687.53 687.53 688.719> 837 68<993.984 1231.31>
VStem: 624 165<140 307 307 406> 1302 157<488.996 762.641>
DStem2: 237 147 390 147 0.224495 0.974475<-0.422817 300.132 382.227 637.094>
LayerCount: 2
Fore
SplineSet
1115 837 m 0
 959 837 844.146 645.966 803 467 c 0
 794.032 427.993 789 383 789 337 c 0
 789 197 838 48 983 48 c 0
 1070 48 1212.85 103.034 1275 373 c 0
 1292.96 451.01 1302 520 1302 579 c 0
 1302 747 1233 837 1115 837 c 0
372 733 m 2
 374.995 746.001 377 759 377 769 c 0
 377 804 358 823 305 823 c 2
 266 823 l 2
 256 823 251 829 254 840 c 2
 262 878 l 1
 267 882 l 1
 267 882 405 878 478 878 c 0
 558 878 699 882 699 882 c 1
 702 878 l 1
 694 840 l 2
 691 829 682 823 673 823 c 2
 634 823 l 2
 567 823 538.344 790.922 525 733 c 2
 468.097 486 l 1
 655.086 486 l 1
 733.139 731.632 913.739 905 1151 905 c 0
 1378 905 1459 748 1459 578 c 0
 1459 532 1453 484 1442 439 c 0
 1395 234 1209 -25 933 -25 c 0
 719 -25 624 134 624 307 c 0
 624 339.362 627.06 373.254 633.849 406 c 1
 449.667 406 l 1
 390 147 l 2
 387.005 133.999 385 122 385 112 c 0
 385 76 405 57 457 57 c 2
 496 57 l 2
 505 57 511 51 509 40 c 2
 500 2 l 1
 495 -2 l 1
 495 -2 356 2 276 2 c 0
 203 2 63 -2 63 -2 c 1
 60 2 l 1
 69 40 l 2
 71 51 79 57 89 57 c 2
 128 57 l 2
 197 57 223 89 237 147 c 2
 372 733 l 2
EndSplineSet
EndChar

StartChar: afii10097
Encoding: 1103 1103 104
Width: 880
VWidth: 2047
Flags: HW
HStem: 2 55<50.1329 156.336 452.516 573.604 733.006 815> 400 71<589 645> 418 53<403.697 455 455 509> 826 54<499.371 722.016 886.894 1006.73>
VStem: 239 140<494.938 632.774>
DStem2: 589 156 742 156 0.224428 0.974491<-25.3717 250.344 323.348 676.879>
LayerCount: 2
Fore
SplineSet
290 278 m 0
 342 362 396 405 455 418 c 1
 372 418 239 462 239 585 c 0
 239 599 241 614 244 630 c 0
 280 782 439 880 591 880 c 2
 834 878 l 1
 1015 882 l 1
 1018 878 l 1
 1007 830 l 2
 1006 826 1003 823 998 823 c 2
 947 823 l 2
 896 823 892 805 882 762 c 2
 742 156 l 2
 737 134 733 113 733 96 c 0
 733 73 741 57 763 57 c 2
 807 57 l 2
 823 57 825 42 824 39 c 2
 815 -2 l 1
 815 -2 702 2 629 2 c 0
 555 2 439 -2 439 -2 c 1
 449 43 l 2
 451 51 456 57 464 57 c 2
 494 57 l 2
 563 57 570.657 76.0779 589 156 c 2
 645 400 l 1
 589 400 l 2
 508 400 435.647 295.632 365 172 c 0
 317 88 236 1 171 0 c 2
 40 -2 l 1
 35 2 l 1
 44 40 l 2
 48 55 60 57 69 57 c 2
 84 57 l 2
 145 57 242.517 201.297 290 278 c 0
662 471 m 1
 741 816 l 1
 714 822 687 826 660 826 c 0
 483 826 401 710 384 637 c 0
 381 622 379 608 379 593 c 0
 379 529 414 471 509 471 c 2
 662 471 l 1
EndSplineSet
EndChar

StartChar: uni04AE
Encoding: 1198 1198 105
Width: 1077
VWidth: 2047
Flags: HW
HStem: -6 55<338 449.539 674.896 783> 1267 55<254 333.974 333.974 336.191 583.901 696.859 1055 1155.62 1300.92 1407.81>
DStem2: 500 141 665 141 0.225015 0.974355<-42.5457 446.346> 754 699 771 600 0.605541 0.795814<0 688.301>
LayerCount: 2
Fore
SplineSet
656 96 m 0
 654 79 658 67 669 58 c 0
 676 53 692 50 718 49 c 2
 779 48 l 2
 780 48 782 48 782 48 c 1
 789 47 793 43 792 35 c 1
 792 35 792 34 791 32 c 1
 784 -1 l 1
 783 -6 l 1
 778 -6 l 2
 770 -6 568 -1 545 -1 c 0
 538 -1 341 -5 318 -6 c 2
 313 -6 l 1
 314 -1 l 1
 322 33 l 2
 325 43 330 47 338 48 c 2
 338 48 339 48 341 48 c 2
 402 49 l 2
 432 50 448 53 456 58 c 0
 472 68 482 81 487 97 c 0
 492 108 495 123 500 141 c 2
 600 576 l 1
 392 1173 l 1
 378 1217 l 1
 369 1235 358 1248 343 1258 c 0
 335 1263 315.995 1265.88 288 1267 c 2
 263 1268 l 2
 257 1269 254 1269 251 1271 c 0
 247 1273 244 1277 245 1283 c 2
 253 1317 l 1
 254 1322 l 1
 259 1322 l 2
 266 1322 452 1317 473 1317 c 0
 481 1317 683 1322 706 1322 c 2
 711 1322 l 1
 710 1317 l 1
 702 1284 l 2
 701 1279 699 1275 697 1272 c 0
 694 1269 691 1268 688 1268 c 2
 628 1267 l 2
 598 1266 585 1263 581 1259 c 0
 574 1252 571 1247 569 1240 c 0
 568 1233 569 1228 570 1222 c 0
 575 1200 578 1186 580 1177 c 2
 754 699 l 1
 1123 1177 l 2
 1138 1199 1147 1213 1152 1222 c 0
 1157 1230 1159 1235 1160 1240 c 0
 1162 1249 1162 1254 1158 1259 c 0
 1155 1263 1143 1266 1115 1267 c 2
 1055 1268 l 2
 1045 1269 1045 1276 1046 1283 c 2
 1054 1317 l 1
 1055 1322 l 1
 1060 1322 l 2
 1066 1322 1226 1317 1245 1317 c 0
 1251 1317 1404 1322 1422 1322 c 2
 1427 1322 l 1
 1426 1317 l 1
 1419 1284 l 2
 1417 1277 1414 1273 1408 1271 c 0
 1404 1269 1399 1268 1394 1268 c 2
 1353 1267 l 2
 1323 1266 1304 1263 1292 1258 c 0
 1270 1246 1252 1232 1240 1217 c 0
 1234 1210 1223 1195 1207 1173 c 2
 771 600 l 1
 665 141 l 2
 661.07 123.984 658 110 656 96 c 0
EndSplineSet
EndChar

StartChar: uni04C0
Encoding: 1216 1216 106
Width: 591
VWidth: 2047
Flags: HW
HStem: -4 50<66.3835 190.427 414.436 523> 1266 54<360 467.695 694.134 801>
VStem: 53 777<-9 1320>
DStem2: 240 138 396 93 0.223608 0.974679<-42.5408 1135.22>
LayerCount: 2
Fore
SplineSet
487 1217 m 0
 488 1235 484 1247 474 1256 c 0
 467 1262 452 1266 424 1266 c 2
 363 1266 l 2
 353 1267 349 1272 351 1281 c 2
 360 1320 l 1
 590 1315 l 1
 830 1320 l 1
 821 1283 l 2
 820 1277 816 1267 801 1266 c 2
 740 1266 l 2
 712 1266 695 1262 687 1256 c 0
 670 1244 660 1232 656 1218 c 0
 652 1202 648 1189 644 1174 c 2
 405 138 l 2
 401.074 120.983 399 107 396 93 c 1
 395 77 399 65 410 55 c 0
 416 49 432 47 459 46 c 2
 519 45 l 2
 532 44 533 36 532 29 c 2
 523 -9 l 1
 523 -9 378 -4 285 -4 c 0
 195 -4 53 -9 53 -9 c 1
 62 30 l 2
 66 44 75 45 81 45 c 2
 143 46 l 2
 172 47 189 50 197 55 c 0
 212 65 222 78 228 94 c 0
 232 105 235.855 120.033 240 138 c 2
 479 1174 l 2
 483.852 1195.03 486 1209 487 1217 c 0
EndSplineSet
EndChar

StartChar: uni04D0
Encoding: 1232 1232 107
Width: 1425
VWidth: 2047
Flags: HW
HStem: 3 54<16.7899 174.219 296.023 445 905.79 1079.43 1277.75 1406> 500 80<592.938 998> 1336 20G<959.5 984.5> 1429 68<897.725 1101.24>
LayerCount: 2
Fore
SplineSet
313 147 m 2
 304.341 133.531 296 114.118 296 101 c 0
 296 72 327 57 383 57 c 2
 442 57 l 2
 451 57 456 50.25 456 40 c 1
 449 2 l 1
 445 -2 l 1
 445 -2 243 3 193 3 c 0
 141 3 9 -2 9 -2 c 1
 5 2 l 1
 12 40 l 2
 14.0255 50.9953 21 57 31 57 c 2
 55 57 l 2
 139 57 182 97 224 166 c 2
 900 1287 l 2
 930.111 1336.93 951 1356 968 1356 c 0
 1001 1356 1015 1340 1026 1287 c 2
 1249 177 l 2
 1265.07 97.0139 1299 57 1380 57 c 2
 1403 57 l 2
 1412 57 1420 50 1420 40 c 1
 1413 2 l 1
 1406 -2 l 1
 1406 -2 1251 3 1171 3 c 0
 1098 3 898 -2 898 -2 c 1
 894 2 l 1
 901 40 l 2
 903.025 50.9952 910 57 920 57 c 2
 977 57 l 2
 1037.96 57 1084.09 77.667 1084.09 125.333 c 0
 1084.09 132.246 1083.23 139.623 1082 147 c 2
 1013 500 l 1
 583 500 l 2
 532 500 515.173 487.898 501 464 c 2
 313 147 l 2
633 580 m 2
 998 580 l 1
 893 1126 l 1
 590 616 l 2
 586 609 584 604 584 599 c 0
 584 587 597 580 633 580 c 2
1262 1580 m 0
 1241 1472 1105 1429 975 1429 c 0
 851 1429 748 1463 748 1552 c 0
 748 1561 749 1569 751 1578 c 0
 760 1623 784 1649 839 1649 c 0
 880 1649 895 1620 895 1591 c 0
 895 1586 895 1581 894 1576 c 0
 893 1572 893 1568 893 1564 c 0
 893 1526 928 1497 991 1497 c 0
 1057 1497 1108 1525 1118 1576 c 0
 1124.26 1607.95 1150 1649 1201 1649 c 0
 1247 1649 1264 1629 1264 1598 c 0
 1264 1593 1263 1586 1262 1580 c 0
EndSplineSet
LCarets2: 1 0 
Ligature2: "'liga' Standard Ligatures lookup 3" afii10017 uni0306
EndChar

StartChar: uni04D1
Encoding: 1233 1233 108
Width: 926
VWidth: 2047
Flags: HW
HStem: -15 93<688 856.973> -15 84<301.031 514.516> 847 62<488.749 720.063> 1002 68<604.667 778.525>
VStem: 122 153<95.9157 215.849> 454 143<1078.48 1169.6 1169.28 1170.53> 753 147<620.851 747.927>
DStem2: 644 164 811 251 0.22556 0.974229<0 351.98 416.74 533.025>
LayerCount: 2
Fore
SplineSet
725 -15 m 0
 651 -15 629 38 629 86 c 2
 629 95 l 1
 546 47 l 2
 480 6 413 -15 340 -15 c 0
 203 -15 122 50 122 157 c 0
 122 174 124 193 129 213 c 0
 167 377 310 470 534 523 c 2
 738 570 l 1
 744 597 753 643 753 688 c 0
 753 730 746 771 723 800 c 0
 697 832 663 847 620 847 c 0
 541 847 439 813 424 750 c 0
 419 726 420 715 421 708 c 1
 424 701 423 686 420 671 c 0
 414 645 382 604 323 604 c 0
 282 604 257 627 257 664 c 0
 257 670 258 677 260 685 c 0
 288 805 504 909 640 909 c 0
 704 909 856 896 893 752 c 0
 898 735 900 715 900 693 c 0
 900 653 892 605 880 552 c 2
 811 251 l 2
 794.035 176.992 786 138 786 115 c 0
 786 104 788 97 791 92 c 1
 798 84 809 78 825 78 c 0
 861 78 892 115 926 168 c 1
 956 154 l 1
 902 60 840 -15 725 -15 c 0
723 507 m 1
 384 431 306 337 279 223 c 0
 276 211 275 198 275 184 c 0
 275 130 304 69 429 69 c 0
 479 69 552 100 644 164 c 1
 723 507 l 1
953 1173 m 0
 930 1072 794 1002 664 1002 c 0
 543 1002 454 1060 454 1142 c 0
 454 1152 455 1161 457 1171 c 0
 465 1209 506 1247 548 1247 c 0
 591 1247 601 1216 601 1190 c 0
 601 1182 600 1175 599 1169 c 0
 597 1162 597 1155 597 1149 c 0
 597 1110 622 1070 681 1070 c 0
 747 1070 796.864 1118.03 809 1169 c 0
 819 1211 852 1247 896 1247 c 0
 933 1247 955 1222 955 1190 c 0
 955 1185 954 1179 953 1173 c 0
EndSplineSet
LCarets2: 1 0 
Ligature2: "'liga' Standard Ligatures lookup 3" afii10065 uni0306
EndChar

StartChar: uni04D2
Encoding: 1234 1234 109
Width: 1425
VWidth: 2047
Flags: HW
HStem: 3 54<16.7899 174.219 296.023 445 905.79 1079.43 1277.75 1406> 500 80<592.938 998> 1336 20G<959.5 984.5> 1455 186<765.711 905.477 1093.17 1234.83>
VStem: 741 188<1478.64 1616.19> 1070 188<1478.69 1617.31>
LayerCount: 2
Fore
SplineSet
851 1640 m 0
 897 1640 929 1606 929 1563 c 0
 929 1498.65 868.39 1454 818 1454 c 0
 773 1454 741 1487 741 1531 c 0
 741 1594.55 799.971 1640 851 1640 c 0
1180 1641 m 0
 1226 1641 1258 1607 1258 1564 c 0
 1258 1499.97 1198.43 1455 1148 1455 c 0
 1102 1455 1070 1489 1070 1532 c 0
 1070 1596.03 1129.57 1641 1180 1641 c 0
313 147 m 2
 304.341 133.531 296 114.118 296 101 c 0
 296 72 327 57 383 57 c 2
 442 57 l 2
 451 57 456 50.25 456 40 c 1
 449 2 l 1
 445 -2 l 1
 445 -2 243 3 193 3 c 0
 141 3 9 -2 9 -2 c 1
 5 2 l 1
 12 40 l 2
 14.0255 50.9953 21 57 31 57 c 2
 55 57 l 2
 139 57 182 97 224 166 c 2
 900 1287 l 2
 930.111 1336.93 951 1356 968 1356 c 0
 1001 1356 1015 1340 1026 1287 c 2
 1249 177 l 2
 1265.07 97.0139 1299 57 1380 57 c 2
 1403 57 l 2
 1412 57 1420 50 1420 40 c 1
 1413 2 l 1
 1406 -2 l 1
 1406 -2 1251 3 1171 3 c 0
 1098 3 898 -2 898 -2 c 1
 894 2 l 1
 901 40 l 2
 903.025 50.9952 910 57 920 57 c 2
 977 57 l 2
 1037.96 57 1084.09 77.667 1084.09 125.333 c 0
 1084.09 132.246 1083.23 139.623 1082 147 c 2
 1013 500 l 1
 583 500 l 2
 532 500 515.173 487.898 501 464 c 2
 313 147 l 2
633 580 m 2
 998 580 l 1
 893 1126 l 1
 590 616 l 2
 586 609 584 604 584 599 c 0
 584 587 597 580 633 580 c 2
EndSplineSet
LCarets2: 1 0 
Ligature2: "'liga' Standard Ligatures lookup 3" afii10017 uni0308
EndChar

StartChar: uni04D3
Encoding: 1235 1235 110
Width: 975
VWidth: 2047
Flags: HW
HStem: -15 93<726 894.973> -15 84<339.031 552.516> 847 62<526.749 758.063> 1068 186<461.711 601.477 789.173 930.827>
VStem: 160 153<95.9157 215.849> 437 188<1091.64 1229.19> 766 188<1091.69 1230.31> 791 147<620.851 747.927>
DStem2: 682 164 849 251 0.22556 0.974229<0 351.98 416.74 533.025>
LayerCount: 2
Fore
SplineSet
547 1253 m 0
 593 1253 625 1219 625 1176 c 0
 625 1111.65 564.39 1067 514 1067 c 0
 469 1067 437 1100 437 1144 c 0
 437 1207.55 495.971 1253 547 1253 c 0
876 1254 m 0
 922 1254 954 1220 954 1177 c 0
 954 1112.97 894.433 1068 844 1068 c 0
 798 1068 766 1102 766 1145 c 0
 766 1209.03 825.567 1254 876 1254 c 0
763 -15 m 0
 689 -15 667 38 667 86 c 2
 667 95 l 1
 584 47 l 2
 518 6 451 -15 378 -15 c 0
 241 -15 160 50 160 157 c 0
 160 174 162 193 167 213 c 0
 205 377 348 470 572 523 c 2
 776 570 l 1
 782 597 791 643 791 688 c 0
 791 730 784 771 761 800 c 0
 735 832 701 847 658 847 c 0
 579 847 477 813 462 750 c 0
 457 726 458 715 459 708 c 1
 462 701 461 686 458 671 c 0
 452 645 420 604 361 604 c 0
 320 604 295 627 295 664 c 0
 295 670 296 677 298 685 c 0
 326 805 542 909 678 909 c 0
 742 909 894 896 931 752 c 0
 936 735 938 715 938 693 c 0
 938 653 930 605 918 552 c 2
 849 251 l 2
 832.035 176.992 824 138 824 115 c 0
 824 104 826 97 829 92 c 1
 836 84 847 78 863 78 c 0
 899 78 930 115 964 168 c 1
 994 154 l 1
 940 60 878 -15 763 -15 c 0
761 507 m 1
 422 431 344 337 317 223 c 0
 314 211 313 198 313 184 c 0
 313 130 342 69 467 69 c 0
 517 69 590 100 682 164 c 1
 761 507 l 1
EndSplineSet
Ligature2: "'liga' Standard Ligatures lookup 3" afii10065 uni0308
EndChar

StartChar: uni04D4
Encoding: 1236 1236 111
Width: 1783
VWidth: 2047
Flags: HW
HStem: 0 80<1086.14 1114 1114 1566.71> 2 55<13.0648 181.161 287.438 410.999 703.912 881.779> 544 80<659 969> 679 70<1170 1445.93> 1242 80<1251.33 1715.99> 1264 60<830 957.979>
VStem: 1774 56<1040.08 1162.15>
DStem2: 899 147 1064 147 0.17384 0.984774<8.91751 403.124 484.34 568.924 639.945 1091.93>
LayerCount: 2
Fore
SplineSet
959 2 m 2
 886 2 694 -4 694 -4 c 1
 691 0 l 1
 698 38 l 2
 700.025 48.9952 707 57 717 57 c 2
 771 57 l 2
 855 57 888.951 90.0086 899 147 c 2
 969 544 l 1
 603 544 l 1
 316 140 l 2
 290.282 103.798 279 89 279 76 c 0
 279 61 296 57 341 57 c 2
 401 57 l 2
 409 57 411 51 411 45 c 1
 403 -2 l 1
 403 -2 268 2 188 2 c 0
 116 2 0 -2 0 -2 c 1
 7 41 l 2
 10 51 18 57 30 57 c 2
 76 57 l 2
 135 57 162.82 71.1263 214 144 c 2
 943 1182 l 2
 951 1193 955 1202 957 1211 c 1
 957 1213 958 1216 958 1218 c 0
 958 1247 929 1264 900 1264 c 2
 836 1264 l 2
 822 1264 821 1273 822 1278 c 2
 830 1324 l 1
 1189 1320 l 1
 1348 1322 l 1
 1851 1322 l 1
 1830 1036 l 1
 1774 1030 l 1
 1774 1118 1727 1242 1621 1242 c 2
 1331 1242 l 2
 1282 1242 1254 1224 1245 1175 c 2
 1170 749 l 1
 1377 749 l 2
 1449 749 1472.69 783.126 1496 840 c 2
 1521 901 l 1
 1523 910 1531 918 1539 918 c 2
 1584 918 l 2
 1589 918 1589.99 913.004 1589 909 c 0
 1572.73 843.065 1551 783 1539 714 c 0
 1527 644 1525 584 1520 518 c 1
 1514 511 l 1
 1467 511 l 2
 1456 511 1453 519 1453 526 c 2
 1452 589 l 2
 1451 648 1434 679 1365 679 c 2
 1158 679 l 1
 1064 147 l 2
 1063 139 1062 133 1062 127 c 0
 1062 90 1087 80 1126 80 c 2
 1438 80 l 2
 1572 80 1649 189 1707 337 c 1
 1760 328 l 1
 1650 0 l 1
 1114 0 l 1
 959 2 l 2
659 624 m 1
 983 624 l 1
 1081 1178 l 2
 1087 1215 1084 1215 1086 1224 c 1
 659 624 l 1
EndSplineSet
EndChar

StartChar: uni04D5
Encoding: 1237 1237 112
Width: 1440
VWidth: 2047
Flags: HW
HStem: -25 87<300.125 555.347> -25 101<933.07 1176.64> 835 70<1066.22 1302.64> 843 62<474.917 719.448>
VStem: 123 151<89.2211 217.227> 1334 158<697.829 802.756>
LayerCount: 2
Fore
SplineSet
882 519 m 1
 1172 534 1304 570 1332 695 c 0
 1334 702 1334 710 1334 717 c 0
 1334 776 1282 835 1195 835 c 0
 1055 835 939 693 882 519 c 1
712 440 m 1
 451 419 304 327 279 223 c 0
 275 208 274 193 274 179 c 0
 274 110 318 62 427 62 c 0
 501 62 581 101 639 202 c 0
 660 240 688 337 712 440 c 1
726 792 m 0
 700.987 823.989 662 843 619 843 c 0
 540 843 439 813 424 750 c 0
 420 730 419 714 421 708 c 0
 424 701 424 687 420 671 c 0
 413 640 375 604 324 604 c 0
 274 604 259 634 259 666 c 0
 259 676 261 687 263 696 c 0
 290 816 471 905 639 905 c 0
 689 905 844 899 888 761 c 1
 977 854 1096 905 1213 905 c 0
 1424 905 1492 796 1492 723 c 0
 1492 715 1492 707 1490 700 c 0
 1451 535 1318 472 862 447 c 1
 853 407 849 369 849 334 c 0
 849 178 932 76 1058 76 c 0
 1170 76 1243 116 1322 189 c 1
 1351 168 l 1
 1267 58 1141 -25 1005 -25 c 0
 820 -25 753 65 723 117 c 1
 644 33 516 -25 404 -25 c 0
 216 -25 123 50 123 161 c 0
 123 178 125 195 129 213 c 0
 174 406 375 488 729 511 c 1
 746 589 754 646 754 690 c 0
 754 737 743.99 768.992 726 792 c 0
EndSplineSet
EndChar

StartChar: uni04D6
Encoding: 1238 1238 113
Width: 1177
VWidth: 2047
Flags: HW
HStem: -2 57<45.4674 226.55> 0 80<431.138 459 459 992.707> 669 70<513 869.93> 1242 80<596.335 1090.99> 1267 57<268 425.546> 1429 68<756.725 960.236>
VStem: 1149 56<1040.08 1162.15>
DStem2: 244 147 409 147 0.173403 0.984851<8.84475 558.657 629.677 1070.55>
LayerCount: 2
Fore
SplineSet
1121 1580 m 0
 1100 1472 964 1429 834 1429 c 0
 710 1429 607 1463 607 1552 c 0
 607 1561 608 1569 610 1578 c 0
 619 1623 643 1649 698 1649 c 0
 739 1649 754 1620 754 1591 c 0
 754 1586 754 1581 753 1576 c 0
 752 1572 752 1568 752 1564 c 0
 752 1526 787 1497 850 1497 c 0
 916 1497 967 1525 977 1576 c 0
 983.265 1607.95 1009 1649 1060 1649 c 0
 1106 1649 1123 1629 1123 1598 c 0
 1123 1593 1122 1586 1121 1580 c 0
1226 1322 m 1
 1205 1036 l 1
 1149 1030 l 1
 1149 1118 1102 1242 996 1242 c 2
 676 1242 l 2
 627 1242 599 1224 590 1175 c 2
 513 739 l 1
 801 739 l 2
 873 739 896.691 773.126 920 830 c 2
 945 891 l 2
 948 900 955 908 963 908 c 2
 1008 908 l 2
 1013 908 1014 904 1014 899 c 1
 997 833 975 773 963 704 c 0
 951 634 949 574 945 508 c 1
 938 501 l 1
 891 501 l 2
 880 501 877 509 877 516 c 2
 876 579 l 2
 875 638 858 669 789 669 c 2
 501 669 l 1
 409 147 l 2
 408 139 407 133 407 127 c 0
 407 90 432 80 471 80 c 2
 864 80 l 2
 998 80 1075 189 1133 337 c 1
 1186 328 l 1
 1076 0 l 1
 459 0 l 1
 300 2 l 1
 35 -2 l 1
 42 41 l 2
 43 48 48 55 61 55 c 2
 122 55 l 2
 204 55 233.965 90.0061 244 147 c 2
 425 1175 l 2
 427 1185 428 1194 428 1202 c 0
 428 1247 401 1267 335 1267 c 2
 274 1267 l 2
 260 1267 260 1276 261 1281 c 2
 268 1324 l 1
 534 1320 l 1
 693 1322 l 1
 1226 1322 l 1
EndSplineSet
LCarets2: 1 0 
Ligature2: "'liga' Standard Ligatures lookup 3" afii10022 uni0306
EndChar

StartChar: uni04D7
Encoding: 1239 1239 114
Width: 897
VWidth: 2047
Flags: HW
HStem: -22 101<400.302 664.105> 488 80<367 791> 836 70<576.439 769.383> 1003 68<635.667 809.525>
VStem: 154 162<168.094 386.254> 485 143<1079.48 1170.6 1170.28 1171.53> 805 151<588.769 801.288>
LayerCount: 2
Fore
SplineSet
984 1174 m 0
 961 1073 825 1003 695 1003 c 0
 574 1003 485 1061 485 1143 c 0
 485 1153 486 1162 488 1172 c 0
 496 1210 537 1248 579 1248 c 0
 622 1248 632 1217 632 1191 c 0
 632 1183 631 1176 630 1170 c 0
 628 1163 628 1156 628 1150 c 0
 628 1111 653 1071 712 1071 c 0
 778 1071 827.864 1119.03 840 1170 c 0
 850 1212 883 1248 927 1248 c 0
 964 1248 986 1223 986 1191 c 0
 986 1186 985 1180 984 1174 c 0
825 190 m 1
 854 169 l 1
 752 60 631 -22 483 -22 c 0
 245 -22 154 111 154 286 c 0
 154 331 160 380 171 429 c 0
 243 740 486 906 681 906 c 0
 891 906 956 790 956 645 c 0
 956 595 948 541 936 488 c 1
 342 488 l 1
 338 477 334 463 330 446 c 0
 321 405 316 367 316 332 c 0
 316 178 400 79 526 79 c 0
 639 79 736 112 825 190 c 1
367 568 m 1
 791 568 l 1
 801 610 805 646 805 677 c 0
 805 808 725 836 663 836 c 0
 616 836 459 818 367 568 c 1
EndSplineSet
LCarets2: 1 0 
Ligature2: "'liga' Standard Ligatures lookup 3" afii10070 uni0306
EndChar

StartChar: uni04D8
Encoding: 1240 1240 115
Width: 1369
VWidth: 2047
Flags: HW
HStem: -25 70<527.271 879.594> 442 90<361 1198> 1277 70<744.259 1089.04>
VStem: 209 152<224.309 442> 1284 192<737.762 1058.78>
LayerCount: 2
Fore
SplineSet
361 442 m 1
 364 177 501 45 701 45 c 0
 918 45 1114 237 1198 442 c 1
 361 442 l 1
455 1072 m 1
 420 1121 l 1
 616 1271 750 1347 975 1347 c 0
 1334 1347 1476 1112 1476 850 c 0
 1476 790 1468.92 728.018 1455 668 c 0
 1362.48 269.121 1066 -25 671 -25 c 0
 332 -25 209 173 209 414 c 0
 209 452 212 492 218 532 c 1
 1238 532 l 1
 1245 555 1252 580 1258 608 c 0
 1276 684 1284 756 1284 823 c 0
 1284 1093 1149 1277 928 1277 c 0
 736 1277 589 1177 455 1072 c 1
EndSplineSet
EndChar

StartChar: afii10846
Encoding: 1241 1241 116
Width: 895
VWidth: 2047
Flags: HW
HStem: -26 70<365.264 535.219> 303 80<313 737> 798 101<474.861 707.711>
VStem: 150 149<124.742 282.29> 790 163<495.188 708.794>
LayerCount: 2
Fore
SplineSet
281 687 m 1
 251 708 l 1
 305 762 427 899 623 899 c 0
 753 899 847 862 900 782 c 0
 935 728 953 665 953 591 c 0
 953 548 946.858 502.033 935 451 c 0
 895.525 281.11 809.678 152.462 674 58 c 0
 596.817 4.26323 513 -26 425 -26 c 0
 334 -26 270 -5 226 33 c 0
 195 61 150 120 150 239 c 0
 150 280 155 327 168 383 c 1
 762 383 l 1
 769 402 772 414 776 434 c 0
 785 475 790 514 790 549 c 0
 790 614 773.836 669.884 740 718 c 0
 702.819 770.873 650 798 579 798 c 0
 513 798 452 788 393 760 c 0
 320 724 296 700 281 687 c 1
737 303 m 1
 313 303 l 1
 305 270 299 230 299 197 c 0
 299 187 300 178 301 170 c 0
 306 132 319.067 101.07 338 83 c 0
 364.092 58.0969 398 44 443 44 c 0
 488 44 528 57 566 80 c 0
 604 102 637 133 667 172 c 0
 697 213 723 266 737 303 c 1
EndSplineSet
EndChar

StartChar: uni04DA
Encoding: 1242 1242 117
Width: 1369
VWidth: 2047
Flags: HW
HStem: -25 70<527.271 879.594> 442 90<361 1198> 1277 70<744.259 1089.04> 1452 186<776.711 916.477 1104.17 1245.83>
VStem: 209 152<224.309 442> 752 188<1475.64 1613.19> 1081 188<1475.69 1614.31> 1284 192<737.762 1058.78>
LayerCount: 2
Fore
SplineSet
862 1637 m 0
 908 1637 940 1603 940 1560 c 0
 940 1495.65 879.39 1451 829 1451 c 0
 784 1451 752 1484 752 1528 c 0
 752 1591.55 810.971 1637 862 1637 c 0
1191 1638 m 0
 1237 1638 1269 1604 1269 1561 c 0
 1269 1496.97 1209.43 1452 1159 1452 c 0
 1113 1452 1081 1486 1081 1529 c 0
 1081 1593.03 1140.57 1638 1191 1638 c 0
361 442 m 1
 364 177 501 45 701 45 c 0
 918 45 1114 237 1198 442 c 1
 361 442 l 1
455 1072 m 1
 420 1121 l 1
 616 1271 750 1347 975 1347 c 0
 1334 1347 1476 1112 1476 850 c 0
 1476 790 1468.92 728.018 1455 668 c 0
 1362.48 269.121 1066 -25 671 -25 c 0
 332 -25 209 173 209 414 c 0
 209 452 212 492 218 532 c 1
 1238 532 l 1
 1245 555 1252 580 1258 608 c 0
 1276 684 1284 756 1284 823 c 0
 1284 1093 1149 1277 928 1277 c 0
 736 1277 589 1177 455 1072 c 1
EndSplineSet
LCarets2: 1 0 
Ligature2: "'liga' Standard Ligatures lookup 3" uni04D8 uni0308
EndChar

StartChar: uni04DB
Encoding: 1243 1243 118
Width: 895
VWidth: 2047
Flags: HW
HStem: -26 70<365.264 535.219> 303 80<313 737> 798 101<474.861 707.711> 1068 186<411.711 551.477 739.173 880.827>
VStem: 150 149<124.742 282.29> 387 188<1091.64 1229.19> 716 188<1091.69 1230.31> 790 163<495.188 708.794>
LayerCount: 2
Fore
SplineSet
497 1253 m 0
 543 1253 575 1219 575 1176 c 0
 575 1111.65 514.39 1067 464 1067 c 0
 419 1067 387 1100 387 1144 c 0
 387 1207.55 445.971 1253 497 1253 c 0
826 1254 m 0
 872 1254 904 1220 904 1177 c 0
 904 1112.97 844.433 1068 794 1068 c 0
 748 1068 716 1102 716 1145 c 0
 716 1209.03 775.567 1254 826 1254 c 0
281 687 m 1
 251 708 l 1
 305 762 427 899 623 899 c 0
 753 899 847 862 900 782 c 0
 935 728 953 665 953 591 c 0
 953 548 946.858 502.033 935 451 c 0
 895.525 281.11 809.678 152.462 674 58 c 0
 596.817 4.26323 513 -26 425 -26 c 0
 334 -26 270 -5 226 33 c 0
 195 61 150 120 150 239 c 0
 150 280 155 327 168 383 c 1
 762 383 l 1
 769 402 772 414 776 434 c 0
 785 475 790 514 790 549 c 0
 790 614 773.836 669.884 740 718 c 0
 702.819 770.873 650 798 579 798 c 0
 513 798 452 788 393 760 c 0
 320 724 296 700 281 687 c 1
737 303 m 1
 313 303 l 1
 305 270 299 230 299 197 c 0
 299 187 300 178 301 170 c 0
 306 132 319.067 101.07 338 83 c 0
 364.092 58.0969 398 44 443 44 c 0
 488 44 528 57 566 80 c 0
 604 102 637 133 667 172 c 0
 697 213 723 266 737 303 c 1
EndSplineSet
LCarets2: 1 0 
Ligature2: "'liga' Standard Ligatures lookup 3" afii10846 uni0308
EndChar

StartChar: uni04E0
Encoding: 1248 1248 119
Width: 1246
VWidth: 2047
Flags: HW
HStem: -432 75<382.47 675.795> 1242 80<503.699 576 576 1133>
VStem: 998 185<116.505 371.068>
DStem2: 604 516 856 590 0.5889 0.808206<208.21 898.286>
LayerCount: 2
Fore
SplineSet
576 1322 m 2
 1303 1322 l 2
 1341 1322 1355 1313 1355 1298 c 0
 1355 1281 1335 1250 1306 1210 c 2
 856 590 l 1
 1082 543 1183 389 1183 204 c 0
 1183 171 1179.99 138.001 1174 104 c 0
 1123.94 -179.99 808 -432 481 -432 c 0
 323 -432 44 -365 44 -241 c 0
 44 -236 44 -231 45 -226 c 0
 54 -178 85 -123 155 -123 c 0
 209 -123 262 -152 282 -194 c 0
 329.505 -293.761 420 -357 533 -357 c 0
 712 -357 954 -108 988 86 c 0
 995 123 998 158 998 190 c 0
 998 436 816 522 690 522 c 0
 658 522 635 522 604 516 c 1
 1133 1242 l 1
 623 1242 l 2
 471 1239 379 1056 355 964 c 1
 302 969 l 1
 415 1367 l 1
 461 1357 526 1322 576 1322 c 2
EndSplineSet
EndChar

StartChar: uni04E1
Encoding: 1249 1249 120
Width: 873
VWidth: 2047
Flags: HW
HStem: -459 59<184.627 441.514> 800 80<387.823 758>
VStem: 661 159<-46.9021 139.304>
DStem2: 302 217 525 312 0.61609 0.787676<212.217 740.152>
LayerCount: 2
Fore
SplineSet
423 880 m 2
 894 880 l 2
 926 880 938 874 938 861 c 0
 938 859 938 856 937 854 c 2
 934 841 922 821 904 795 c 2
 525 312 l 1
 720 294 820 195 820 39 c 0
 820 7 816 -28 807 -65 c 0
 762 -262 559 -459 264 -459 c 0
 89 -459 -16 -388 -16 -324 c 0
 -16 -319 -16 -315 -15 -311 c 0
 -7 -279 16 -249 60 -249 c 0
 107 -249 137 -262 151 -306 c 0
 167 -353 213 -400 296 -400 c 0
 398 -400 598 -308 654 -67 c 0
 659 -45 661 -23 661 -2 c 0
 661 131 564 232 426 232 c 0
 390 232 348 227 302 217 c 1
 758 800 l 1
 467 800 l 2
 405 800 339 774 261 603 c 1
 209 612 l 1
 346 924 l 1
 392 915 l 1
 390 910 389 906 388 903 c 0
 384 884 395 880 423 880 c 2
EndSplineSet
EndChar

StartChar: uni04E6
Encoding: 1254 1254 121
Width: 1431
VWidth: 2047
Flags: HW
HStem: -25 70<592.788 953.676> 1276 70<734.432 1079.34> 1429 186<707.887 845.267 1094.9 1233.27>
VStem: 175 192<280.361 762.906> 1297 190<538.708 1028.21>
LayerCount: 2
Fore
SplineSet
1487 806 m 0
 1487 406 1201 -25 724 -25 c 0
 413 -25 175 175 175 498 c 0
 175 898 480 1346 932 1346 c 0
 1234 1346 1487 1137 1487 806 c 0
776 45 m 0
 1094 45 1297 434 1297 814 c 0
 1297 1121 1114 1276 894 1276 c 0
 568 1276 367 868 367 509 c 0
 367 214 546 45 776 45 c 0
682.3 1521 m 0
 693.3 1572 743.3 1614 794.3 1614 c 0
 839.3 1614 870.3 1582 870.3 1540 c 0
 870.3 1534 869.3 1527 868.3 1521 c 0
 858.3 1470 809.3 1428 758.3 1428 c 0
 713.3 1428 680.3 1461 680.3 1504 c 0
 680.3 1509 681.3 1515 682.3 1521 c 0
1070.3 1522 m 0
 1081.3 1573 1131.3 1615 1182.3 1615 c 0
 1227.3 1615 1258.3 1583 1258.3 1541 c 0
 1258.3 1535 1257.3 1528 1256.3 1522 c 0
 1247.3 1471 1197.3 1429 1146.3 1429 c 0
 1101.3 1429 1069.3 1462 1069.3 1506 c 0
 1069.3 1511 1069.3 1516 1070.3 1522 c 0
EndSplineSet
LCarets2: 1 0 
Ligature2: "'liga' Standard Ligatures lookup 3" afii10032 uni0308
EndChar

StartChar: uni04E7
Encoding: 1255 1255 122
Width: 972
VWidth: 2047
Flags: HW
HStem: -25 73<418.346 658.196> 837 68<531.417 772.628> 1079 186<492.711 632.477 820.173 961.827>
VStem: 160 172<143.818 547.5> 468 188<1102.64 1240.19> 797 188<1102.69 1241.31> 846 166<350.029 760.181>
LayerCount: 2
Fore
SplineSet
578 1264 m 0
 624 1264 656 1230 656 1187 c 0
 656 1122.65 595.39 1078 545 1078 c 0
 500 1078 468 1111 468 1155 c 0
 468 1218.55 526.971 1264 578 1264 c 0
907 1265 m 0
 953 1265 985 1231 985 1188 c 0
 985 1123.97 925.433 1079 875 1079 c 0
 829 1079 797 1113 797 1156 c 0
 797 1220.03 856.567 1265 907 1265 c 0
332 350 m 0
 332 88 465 48 527 48 c 0
 777 48 846 422 846 555 c 0
 846 687 816 837 657 837 c 0
 423 837 332 534 332 350 c 0
160 333 m 0
 160 579 352 905 694 905 c 0
 945 905 1012 716 1012 569 c 0
 1012 246 738 -25 476 -25 c 0
 216 -25 160 225 160 333 c 0
EndSplineSet
LCarets2: 1 0 
Ligature2: "'liga' Standard Ligatures lookup 3" afii10080 uni0308
EndChar

StartChar: uni04E8
Encoding: 1256 1256 123
Width: 1421
VWidth: 2047
Flags: HW
HStem: -25 67<563.141 941.105> 608 115<422 1301> 1275 71<803.203 1153.01>
VStem: 198 183<257.139 553.947> 1337 191<762.868 1056.35>
LayerCount: 2
Fore
SplineSet
972 1275 m 0
 855 1275 752 1232 652 1137 c 0
 546 1035 472 911 422 723 c 1
 1325 723 l 1
 1333 772 1337 819 1337 864 c 0
 1337 970 1312 1063 1248 1147 c 0
 1178 1238 1092 1275 972 1275 c 0
1422 1160 m 0
 1492 1066 1528 966 1528 846 c 0
 1528 791 1520 731 1505 665 c 0
 1462 479 1364.93 319.073 1211 179 c 0
 1053.93 36.0746 894 -25 722 -25 c 0
 547 -25 391 42 302 157 c 0
 234 247 198 347 198 468 c 0
 198 524 206.024 584.995 221 652 c 0
 248.043 772.99 312.058 974.928 548 1167 c 0
 699.037 1289.95 851 1346 1015 1346 c 0
 1205 1346 1325 1288 1422 1160 c 0
1301 608 m 1
 395 608 l 1
 386 555 381 505 381 458 c 0
 381 347 408 250 477 161 c 0
 522 104 602 42 734 42 c 0
 864 42 980 86 1085 185 c 0
 1184 279 1252 404 1301 608 c 1
EndSplineSet
EndChar

StartChar: uni04E9
Encoding: 1257 1257 124
Width: 991
VWidth: 2047
Flags: HW
HStem: -21 73<420.071 673.525> 419 80<348.428 849.124> 840 68<532.456 790.051>
VStem: 156 175<204.462 404.478> 865 165<499.582 700.997>
LayerCount: 2
Fore
SplineSet
849.124 419 m 1
 334.149 419 l 1
 332.008 396.926 331 373.589 331 350 c 0
 331 290 339 229 356 184 c 0
 392 92 474 52 536 52 c 0
 601 52 671.609 77.3389 745 162 c 0
 800.703 226.257 825.963 315.008 840 376 c 0
 843.431 390.907 846.463 405.228 849.124 419 c 1
836 728 m 0
 822 766 781 840 666 840 c 0
 588 840 515 811 452 736 c 0
 396.296 668.227 368.174 581.492 348.428 499 c 1
 861.245 499 l 1
 863.835 523.709 865 546.263 865 567 c 0
 865 642 850 692 836 728 c 0
772 81 m 0
 705 27 584 -21 485 -21 c 0
 354 -21 275.046 25.0294 219 112 c 0
 179.033 174.021 156 242 156 321 c 0
 156 356 161 393 170 433 c 0
 202 572 289.213 718.709 418 813 c 0
 505.144 876.803 597 908 703 908 c 0
 835 908 924 865 975 776 c 0
 1013 712 1030 644 1030 569 c 0
 1030 529 1025 486 1015 442 c 0
 983 303 882 171 772 81 c 0
EndSplineSet
EndChar

StartChar: uni04EA
Encoding: 1258 1258 125
Width: 1421
VWidth: 2047
Flags: HW
HStem: -25 67<563.141 941.105> 608 115<422 1301> 1275 71<803.203 1153.01> 1454 186<774.711 914.477 1102.17 1243.83>
VStem: 198 183<257.139 553.947> 750 188<1477.64 1615.19> 1079 188<1477.69 1616.31> 1337 191<762.868 1056.35>
LayerCount: 2
Fore
SplineSet
972 1275 m 0
 855 1275 752 1232 652 1137 c 0
 546 1035 472 911 422 723 c 1
 1325 723 l 1
 1333 772 1337 819 1337 864 c 0
 1337 970 1312 1063 1248 1147 c 0
 1178 1238 1092 1275 972 1275 c 0
1422 1160 m 0
 1492 1066 1528 966 1528 846 c 0
 1528 791 1520 731 1505 665 c 0
 1462 479 1364.93 319.073 1211 179 c 0
 1053.93 36.0746 894 -25 722 -25 c 0
 547 -25 391 42 302 157 c 0
 234 247 198 347 198 468 c 0
 198 524 206.024 584.995 221 652 c 0
 248.043 772.99 312.058 974.928 548 1167 c 0
 699.037 1289.95 851 1346 1015 1346 c 0
 1205 1346 1325 1288 1422 1160 c 0
1301 608 m 1
 395 608 l 1
 386 555 381 505 381 458 c 0
 381 347 408 250 477 161 c 0
 522 104 602 42 734 42 c 0
 864 42 980 86 1085 185 c 0
 1184 279 1252 404 1301 608 c 1
860 1639 m 0
 906 1639 938 1605 938 1562 c 0
 938 1497.65 877.39 1453 827 1453 c 0
 782 1453 750 1486 750 1530 c 0
 750 1593.55 808.971 1639 860 1639 c 0
1189 1640 m 0
 1235 1640 1267 1606 1267 1563 c 0
 1267 1498.97 1207.43 1454 1157 1454 c 0
 1111 1454 1079 1488 1079 1531 c 0
 1079 1595.03 1138.57 1640 1189 1640 c 0
EndSplineSet
LCarets2: 1 0 
Ligature2: "'liga' Standard Ligatures lookup 3" uni04E8 uni0308
EndChar

StartChar: uni04EB
Encoding: 1259 1259 126
Width: 991
VWidth: 2047
Flags: HW
HStem: -21 73<420.071 673.525> 419 80<348.428 849.124> 840 68<532.456 790.051> 1079 186<501.211 640.977 828.673 970.327>
VStem: 156 175<204.462 404.478> 476.5 188<1102.64 1240.19> 805.5 188<1102.69 1241.31> 865 165<499.582 700.997>
LayerCount: 2
Fore
SplineSet
849.124 419 m 1
 334.149 419 l 1
 332.008 396.926 331 373.589 331 350 c 0
 331 290 339 229 356 184 c 0
 392 92 474 52 536 52 c 0
 601 52 671.609 77.3389 745 162 c 0
 800.703 226.257 825.963 315.008 840 376 c 0
 843.431 390.907 846.463 405.228 849.124 419 c 1
836 728 m 0
 822 766 781 840 666 840 c 0
 588 840 515 811 452 736 c 0
 396.296 668.227 368.174 581.492 348.428 499 c 1
 861.245 499 l 1
 863.835 523.709 865 546.263 865 567 c 0
 865 642 850 692 836 728 c 0
772 81 m 0
 705 27 584 -21 485 -21 c 0
 354 -21 275.046 25.0294 219 112 c 0
 179.033 174.021 156 242 156 321 c 0
 156 356 161 393 170 433 c 0
 202 572 289.213 718.709 418 813 c 0
 505.144 876.803 597 908 703 908 c 0
 835 908 924 865 975 776 c 0
 1013 712 1030 644 1030 569 c 0
 1030 529 1025 486 1015 442 c 0
 983 303 882 171 772 81 c 0
586.5 1264 m 0
 632.5 1264 664.5 1230 664.5 1187 c 0
 664.5 1122.65 603.89 1078 553.5 1078 c 0
 508.5 1078 476.5 1111 476.5 1155 c 0
 476.5 1218.55 535.471 1264 586.5 1264 c 0
915.5 1265 m 0
 961.5 1265 993.5 1231 993.5 1188 c 0
 993.5 1123.97 933.933 1079 883.5 1079 c 0
 837.5 1079 805.5 1113 805.5 1156 c 0
 805.5 1220.03 865.067 1265 915.5 1265 c 0
EndSplineSet
LCarets2: 1 0 
Ligature2: "'liga' Standard Ligatures lookup 3" uni04E9 uni0308
EndChar

StartChar: uni04EF
Encoding: 1263 1263 127
Width: 1062
VWidth: 2047
Flags: HW
HStem: -440 112<60.1683 248.693> 823 55<229 335.217 503.242 618.97 887.61 982.993 1076.84 1210.73> 1077 90<485.268 497 538 998 1039 1053.99>
DStem2: 388 -136 458 -152 0.550056 0.835128<-246.279 161.717 389.434 1108.84>
LayerCount: 2
Fore
SplineSet
627 839 m 2
 624 829 610 823 601 823 c 2
 564 823 l 2
 523 822 508 813 503 792 c 0
 499 777 499 754 504 731 c 2
 598 192 l 1
 945 722 l 2
 958.825 743.116 978 777 981 789 c 0
 982 793 983 797 983 800 c 0
 983 814 973 823 933 823 c 2
 899 823 l 2
 889 823 881 831 882 838 c 2
 891 876 l 1
 897 882 l 1
 897 882 1008 878 1080 878 c 0
 1137 878 1222 882 1222 882 c 1
 1226 878 l 1
 1217 839 l 2
 1214 829 1206 823 1191 823 c 2
 1177 823 l 2
 1109 823 1074.35 783.774 1033 721 c 2
 458 -152 l 2
 362 -297 261 -440 106 -440 c 0
 71 -440 6 -421 6 -363 c 0
 6 -357 7 -350 9 -343 c 0
 23 -282 79 -264 112 -264 c 0
 133 -264 153 -276 164 -292 c 0
 177 -313 189 -328 212 -328 c 0
 264 -328 315 -251 388 -136 c 2
 474 1 l 1
 342 758 l 2
 336 791 312 823 245 823 c 2
 230 823 l 2
 218 823 212 830 213 838 c 2
 223 878 l 1
 229 882 l 1
 229 882 326 878 389 878 c 0
 483 878 633 882 633 882 c 1
 635 876 l 1
 627 839 l 2
998 1077 m 2
 497 1077 l 2
 483 1077 478 1087 478 1098 c 0
 478 1101 478 1104 479 1107 c 0
 485 1131 514 1167 538 1167 c 2
 1039 1167 l 2
 1055 1167 1061 1157 1061 1145 c 0
 1061 1142 1061 1140 1060 1137 c 0
 1055 1113 1024 1077 998 1077 c 2
EndSplineSet
LCarets2: 1 0 
Ligature2: "'liga' Standard Ligatures lookup 3" afii10085 uni0304
EndChar

StartChar: uni04F1
Encoding: 1265 1265 128
Width: 1072
VWidth: 2047
Flags: HW
HStem: -440 112<60.1683 248.693> 823 55<229 335.217 503.242 618.97 887.61 982.993 1076.84 1210.73> 1079 186<587.711 727.477 915.173 1056.83>
VStem: 563 188<1102.64 1240.19> 892 188<1102.69 1241.31>
DStem2: 388 -136 458 -152 0.550056 0.835128<-246.279 161.717 389.434 1108.84>
LayerCount: 2
Fore
SplineSet
627 839 m 2
 624 829 610 823 601 823 c 2
 564 823 l 2
 523 822 508 813 503 792 c 0
 499 777 499 754 504 731 c 2
 598 192 l 1
 945 722 l 2
 958.825 743.116 978 777 981 789 c 0
 982 793 983 797 983 800 c 0
 983 814 973 823 933 823 c 2
 899 823 l 2
 889 823 881 831 882 838 c 2
 891 876 l 1
 897 882 l 1
 897 882 1008 878 1080 878 c 0
 1137 878 1222 882 1222 882 c 1
 1226 878 l 1
 1217 839 l 2
 1214 829 1206 823 1191 823 c 2
 1177 823 l 2
 1109 823 1074.35 783.774 1033 721 c 2
 458 -152 l 2
 362 -297 261 -440 106 -440 c 0
 71 -440 6 -421 6 -363 c 0
 6 -357 7 -350 9 -343 c 0
 23 -282 79 -264 112 -264 c 0
 133 -264 153 -276 164 -292 c 0
 177 -313 189 -328 212 -328 c 0
 264 -328 315 -251 388 -136 c 2
 474 1 l 1
 342 758 l 2
 336 791 312 823 245 823 c 2
 230 823 l 2
 218 823 212 830 213 838 c 2
 223 878 l 1
 229 882 l 1
 229 882 326 878 389 878 c 0
 483 878 633 882 633 882 c 1
 635 876 l 1
 627 839 l 2
673 1264 m 0
 719 1264 751 1230 751 1187 c 0
 751 1122.65 690.39 1078 640 1078 c 0
 595 1078 563 1111 563 1155 c 0
 563 1218.55 621.971 1264 673 1264 c 0
1002 1265 m 0
 1048 1265 1080 1231 1080 1188 c 0
 1080 1123.97 1020.43 1079 970 1079 c 0
 924 1079 892 1113 892 1156 c 0
 892 1220.03 951.567 1265 1002 1265 c 0
EndSplineSet
LCarets2: 1 0 
Ligature2: "'liga' Standard Ligatures lookup 3" afii10085 uni0308
EndChar

StartChar: uni04F3
Encoding: 1267 1267 129
Width: 1072
VWidth: 2047
Flags: HW
HStem: -440 112<60.1683 248.693> 823 55<229 335.217 503.242 618.97 887.61 982.993 1076.84 1210.73> 1301 20G<778.5 791>
DStem2: 388 -136 458 -152 0.550056 0.835128<-246.279 161.717 389.434 1108.84>
LayerCount: 2
Fore
SplineSet
627 839 m 2
 624 829 610 823 601 823 c 2
 564 823 l 2
 523 822 508 813 503 792 c 0
 499 777 499 754 504 731 c 2
 598 192 l 1
 945 722 l 2
 958.825 743.116 978 777 981 789 c 0
 982 793 983 797 983 800 c 0
 983 814 973 823 933 823 c 2
 899 823 l 2
 889 823 881 831 882 838 c 2
 891 876 l 1
 897 882 l 1
 897 882 1008 878 1080 878 c 0
 1137 878 1222 882 1222 882 c 1
 1226 878 l 1
 1217 839 l 2
 1214 829 1206 823 1191 823 c 2
 1177 823 l 2
 1109 823 1074.35 783.774 1033 721 c 2
 458 -152 l 2
 362 -297 261 -440 106 -440 c 0
 71 -440 6 -421 6 -363 c 0
 6 -357 7 -350 9 -343 c 0
 23 -282 79 -264 112 -264 c 0
 133 -264 153 -276 164 -292 c 0
 177 -313 189 -328 212 -328 c 0
 264 -328 315 -251 388 -136 c 2
 474 1 l 1
 342 758 l 2
 336 791 312 823 245 823 c 2
 230 823 l 2
 218 823 212 830 213 838 c 2
 223 878 l 1
 229 882 l 1
 229 882 326 878 389 878 c 0
 483 878 633 882 633 882 c 1
 635 876 l 1
 627 839 l 2
1096 1291 m 0
 1107 1281 1113 1265 1113 1250 c 0
 1113 1245 1112 1239 1111 1234 c 0
 1108 1222 1102 1207 1088 1195 c 2
 802 971 l 1
 798 966 793 965 789 965 c 0
 779 965 762 976 766 993 c 1
 767 995 767 999 770 1001 c 1
 995 1285 l 2
 1010 1303 1026 1309 1050 1309 c 0
 1068 1309 1084 1303 1096 1291 c 0
824 1307 m 0
 838 1297 845 1281 845 1263 c 0
 845 1258 844 1252 843 1246 c 0
 841 1236 836 1224 825 1214 c 2
 559 966 l 2
 554 962 547 960 542 960 c 0
 531 960 519 968 519 982 c 0
 519 986 520 989 522 993 c 2
 722 1292 l 2
 740.042 1318.97 774 1321 783 1321 c 0
 799 1321 811 1316 824 1307 c 0
EndSplineSet
LCarets2: 1 0 
Ligature2: "'liga' Standard Ligatures lookup 3" afii10085 uni030B
EndChar

StartChar: uni1E00
Encoding: 7680 7680 130
Width: 1425
VWidth: 2047
Flags: HW
HStem: -424 61<571.723 663.467> -143 60<642.649 735.324> 3 54<16.7899 174.219 296.023 445 905.79 1079.43 1277.75 1406> 500 80<592.938 998> 1336 20G<959.5 984.5>
VStem: 478.36 62<-319.474 -253.539> 766.36 63<-252.484 -185.343>
LayerCount: 2
Fore
SplineSet
313 147 m 2
 304.341 133.531 296 114.118 296 101 c 0
 296 72 327 57 383 57 c 2
 442 57 l 2
 451 57 456 50.25 456 40 c 1
 449 2 l 1
 445 -2 l 1
 445 -2 243 3 193 3 c 0
 141 3 9 -2 9 -2 c 1
 5 2 l 1
 12 40 l 2
 14.0255 50.9953 21 57 31 57 c 2
 55 57 l 2
 139 57 182 97 224 166 c 2
 900 1287 l 2
 930.111 1336.93 951 1356 968 1356 c 0
 1001 1356 1015 1340 1026 1287 c 2
 1249 177 l 2
 1265.07 97.0139 1299 57 1380 57 c 2
 1403 57 l 2
 1412 57 1420 50 1420 40 c 1
 1413 2 l 1
 1406 -2 l 1
 1406 -2 1251 3 1171 3 c 0
 1098 3 898 -2 898 -2 c 1
 894 2 l 1
 901 40 l 2
 903.025 50.9952 910 57 920 57 c 2
 977 57 l 2
 1037.96 57 1084.09 77.667 1084.09 125.333 c 0
 1084.09 132.246 1083.23 139.623 1082 147 c 2
 1013 500 l 1
 583 500 l 2
 532 500 515.173 487.898 501 464 c 2
 313 147 l 2
633 580 m 2
 998 580 l 1
 893 1126 l 1
 590 616 l 2
 586 609 584 604 584 599 c 0
 584 587 597 580 633 580 c 2
692.36 -83 m 0
 740.36 -83 776.36 -100 801.36 -133 c 0
 820.36 -157 829.36 -184 829.36 -214 c 0
 829.36 -227 828.36 -240 825.36 -253 c 0
 814.36 -300 787.36 -341 746.36 -374 c 0
 705.36 -407 661.36 -424 613.36 -424 c 0
 566.36 -424 530.36 -407 505.36 -374 c 0
 487.36 -351 478.36 -324 478.36 -294 c 0
 478.36 -281 480.371 -267.002 483.36 -253 c 0
 493.395 -206.007 520.36 -166 560.36 -133 c 0
 601.36 -100 645.36 -83 692.36 -83 c 0
678.36 -143 m 0
 647.36 -143 618.36 -154 593.36 -175 c 0
 567.36 -196 550.36 -222 543.36 -253 c 0
 541.36 -262 540.36 -270 540.36 -279 c 0
 540.36 -298 546.39 -314.978 557.36 -330 c 0
 573.404 -351.968 596.36 -363 627.36 -363 c 0
 658.36 -363 687.36 -352 713.36 -330 c 0
 739.36 -309 756.36 -283 763.36 -253 c 0
 765.36 -244 766.36 -235 766.36 -227 c 0
 766.36 -207 760.36 -190 749.36 -175 c 0
 732.36 -154 709.36 -143 678.36 -143 c 0
EndSplineSet
LCarets2: 1 0 
Ligature2: "'liga' Standard Ligatures in Latin lookup 2" A uni0325
EndChar

StartChar: uni1E01
Encoding: 7681 7681 131
Width: 1033
VWidth: 2047
Flags: HW
HStem: -447 61<455.723 547.467> -166 60<526.649 619.324> -25 86<361.91 524.026> 841 64<578.316 784.296>
VStem: 160 161<100.472 476.191> 362.36 62<-342.474 -276.539> 650.36 63<-275.484 -208.343> 702 161<26.0234 145.422>
LayerCount: 2
Fore
SplineSet
1043 904 m 1
 886 242 l 2
 877 202 863 136 863 116 c 0
 863 93 884 88 889 88 c 0
 915 88 954 129 1014 201 c 1
 1052 179 l 1
 1004 112 976 75 928 34 c 0
 878 -7 832 -25 789 -25 c 0
 719 -25 702 29 702 68 c 0
 702 106 712 173 738 253 c 1
 616 49 480 -25 394 -25 c 0
 214 -25 160 152 160 266 c 0
 160 587 466 905 685 905 c 0
 764 905 844 855 868 793 c 1
 889 889 l 1
 1043 904 l 1
766 393 m 0
 810.806 507.076 835 646 835 677 c 0
 835 762 780 841 692 841 c 0
 503 841 321 521 321 304 c 0
 321 189 323 61 474 61 c 0
 550 61 697.704 219.116 766 393 c 0
576.36 -106 m 0
 624.36 -106 660.36 -123 685.36 -156 c 0
 704.36 -180 713.36 -207 713.36 -237 c 0
 713.36 -250 712.36 -263 709.36 -276 c 0
 698.36 -323 671.36 -364 630.36 -397 c 0
 589.36 -430 545.36 -447 497.36 -447 c 0
 450.36 -447 414.36 -430 389.36 -397 c 0
 371.36 -374 362.36 -347 362.36 -317 c 0
 362.36 -304 364.371 -290.002 367.36 -276 c 0
 377.395 -229.007 404.36 -189 444.36 -156 c 0
 485.36 -123 529.36 -106 576.36 -106 c 0
562.36 -166 m 0
 531.36 -166 502.36 -177 477.36 -198 c 0
 451.36 -219 434.36 -245 427.36 -276 c 0
 425.36 -285 424.36 -293 424.36 -302 c 0
 424.36 -321 430.39 -337.978 441.36 -353 c 0
 457.404 -374.968 480.36 -386 511.36 -386 c 0
 542.36 -386 571.36 -375 597.36 -353 c 0
 623.36 -332 640.36 -306 647.36 -276 c 0
 649.36 -267 650.36 -258 650.36 -250 c 0
 650.36 -230 644.36 -213 633.36 -198 c 0
 616.36 -177 593.36 -166 562.36 -166 c 0
EndSplineSet
LCarets2: 1 0 
Ligature2: "'liga' Standard Ligatures in Latin lookup 2" a uni0325
EndChar

StartChar: uni1E02
Encoding: 7682 7682 132
Width: 1214
VWidth: 2047
Flags: HW
HStem: -3 70<405.393 684.721 545.057 795.878> -2 57<46.7488 228.062> 693 70<517 885.831> 1252 72<610.256 961.292> 1270 55<269 426.834> 1428 196<806.05 953.922>
VStem: 781 198<1452.25 1599.96> 1019 181<271.367 581.697> 1032 159<911.415 1185.08>
DStem2: 243 149 408 148 0.174003 0.984745<-1.92224 581.116 652.31 1077.53>
LayerCount: 2
Fore
SplineSet
1200 441 m 0
 1200 225 1057 -3 601 -3 c 0
 454 -3 359 2 298 2 c 2
 35 -2 l 1
 42 39 l 2
 44 46 48 55 60 55 c 2
 121 55 l 2
 202 55 231 77 243 149 c 2
 425 1177 l 2
 427 1190 428 1201 428 1211 c 0
 428 1254 404 1270 335 1270 c 2
 274 1270 l 2
 263 1271 260 1276 261 1284 c 2
 269 1325 l 1
 271 1325 466 1319 531 1319 c 0
 598 1319 718 1324 790 1324 c 0
 1116 1324 1191 1195 1191 1071 c 0
 1191 869 1007 762 947 735 c 1
 1123 694 1200 587 1200 441 c 0
576 67 m 0
 916 67 1019 291 1019 440 c 0
 1019 591 910 693 697 693 c 2
 504 693 l 1
 408 148 l 2
 406.06 136.989 405 127 405 118 c 0
 405 76 437 67 576 67 c 0
679 763 m 2
 961 763 1032 939 1032 1064 c 0
 1032 1222 895 1252 792 1252 c 0
 615 1252 602 1245 590 1178 c 2
 517 763 l 1
 679 763 l 2
895 1624 m 0
 941 1624 979 1592 979 1541 c 0
 979 1479 925 1428 867 1428 c 0
 815 1428 781 1465 781 1511 c 0
 781 1568 829 1624 895 1624 c 0
EndSplineSet
LCarets2: 1 0 
Ligature2: "'liga' Standard Ligatures in Latin lookup 2" B uni0307
EndChar

StartChar: uni1E03
Encoding: 7683 7683 133
Width: 980
VWidth: 2047
Flags: HW
HStem: -25 57<345.564 609.122> 816 89<585.347 804.122> 1071 196<752.985 900.857> 1312 62<316 374.933> 1406 20G<527 624>
VStem: 727.935 198<1095.25 1242.96> 869 163<393.568 746.99>
DStem2: 174 143 320 110 0.225076 0.974341<0.707804 631.888 696.648 1144.14>
LayerCount: 2
Fore
SplineSet
317 1374 m 1
 350 1374 475 1385 579 1426 c 1
 624 1426 l 1
 477 788 l 1
 559 859 659 905 763 905 c 0
 939 905 1032 756 1032 606 c 0
 1032 500 977.395 194.144 665 29 c 0
 604.884 -2.77976 534 -25 455 -25 c 0
 368 -25 302 2 254 54 c 1
 230 32 198 -2 172 -25 c 1
 132 -15 l 1
 148 33 155.455 63.1247 174 143 c 2
 415 1181 l 2
 422 1213 426 1240 426 1260 c 0
 426 1300 412 1319 386 1319 c 0
 377 1319 326 1312 316 1312 c 0
 312 1312 309 1316 309 1320 c 0
 309 1322 314 1356 317 1374 c 1
869 585 m 0
 869 706 811 816 700 816 c 0
 653 816 573 808 462 725 c 1
 320 110 l 1
 349 60 395 32 458 32 c 0
 728 32 869 397 869 585 c 0
841.935 1267 m 0
 887.935 1267 925.935 1235 925.935 1184 c 0
 925.935 1122 871.935 1071 813.935 1071 c 0
 761.935 1071 727.935 1108 727.935 1154 c 0
 727.935 1211 775.935 1267 841.935 1267 c 0
EndSplineSet
LCarets2: 1 0 
Ligature2: "'liga' Standard Ligatures in Latin lookup 2" b uni0307
EndChar

StartChar: uni1E04
Encoding: 7684 7684 134
Width: 1214
VWidth: 2047
Flags: HW
HStem: -334 196<481.417 619.26> -3 70<405.393 684.721 545.057 795.878> -2 57<46.7488 228.062> 693 70<517 885.831> 1252 72<610.256 961.292> 1270 55<269 426.834>
VStem: 449.4 201<-302.275 -169.784> 1019 181<271.367 581.697> 1032 159<911.415 1185.08>
DStem2: 243 149 408 148 0.174003 0.984745<-1.92224 581.116 652.31 1077.53>
LayerCount: 2
Fore
SplineSet
1200 441 m 0
 1200 225 1057 -3 601 -3 c 0
 454 -3 359 2 298 2 c 2
 35 -2 l 1
 42 39 l 2
 44 46 48 55 60 55 c 2
 121 55 l 2
 202 55 231 77 243 149 c 2
 425 1177 l 2
 427 1190 428 1201 428 1211 c 0
 428 1254 404 1270 335 1270 c 2
 274 1270 l 2
 263 1271 260 1276 261 1284 c 2
 269 1325 l 1
 271 1325 466 1319 531 1319 c 0
 598 1319 718 1324 790 1324 c 0
 1116 1324 1191 1195 1191 1071 c 0
 1191 869 1007 762 947 735 c 1
 1123 694 1200 587 1200 441 c 0
576 67 m 0
 916 67 1019 291 1019 440 c 0
 1019 591 910 693 697 693 c 2
 504 693 l 1
 408 148 l 2
 406.06 136.989 405 127 405 118 c 0
 405 76 437 67 576 67 c 0
679 763 m 2
 961 763 1032 939 1032 1064 c 0
 1032 1222 895 1252 792 1252 c 0
 615 1252 602 1245 590 1178 c 2
 517 763 l 1
 679 763 l 2
572.4 -138 m 0
 619.4 -138 650.4 -171 650.4 -215 c 0
 650.4 -278.407 587.348 -334 527.4 -334 c 0
 481.4 -334 449.4 -302 449.4 -259 c 0
 449.4 -201.759 504.65 -138 572.4 -138 c 0
EndSplineSet
LCarets2: 1 0 
Ligature2: "'liga' Standard Ligatures in Latin lookup 2" B dotbelowcomb
EndChar

StartChar: uni1E05
Encoding: 7685 7685 135
Width: 980
VWidth: 2047
Flags: HW
HStem: -334 196<380.969 518.812> -25 57<345.564 609.122> 816 89<585.347 804.122> 1312 62<316 374.933> 1406 20G<527 624>
VStem: 348.952 201<-302.275 -169.784> 869 163<393.568 746.99>
DStem2: 174 143 320 110 0.225076 0.974341<0.707804 631.888 696.648 1144.14>
LayerCount: 2
Fore
SplineSet
317 1374 m 1
 350 1374 475 1385 579 1426 c 1
 624 1426 l 1
 477 788 l 1
 559 859 659 905 763 905 c 0
 939 905 1032 756 1032 606 c 0
 1032 500 977.395 194.144 665 29 c 0
 604.884 -2.77976 534 -25 455 -25 c 0
 368 -25 302 2 254 54 c 1
 230 32 198 -2 172 -25 c 1
 132 -15 l 1
 148 33 155.455 63.1247 174 143 c 2
 415 1181 l 2
 422 1213 426 1240 426 1260 c 0
 426 1300 412 1319 386 1319 c 0
 377 1319 326 1312 316 1312 c 0
 312 1312 309 1316 309 1320 c 0
 309 1322 314 1356 317 1374 c 1
869 585 m 0
 869 706 811 816 700 816 c 0
 653 816 573 808 462 725 c 1
 320 110 l 1
 349 60 395 32 458 32 c 0
 728 32 869 397 869 585 c 0
471.952 -138 m 0
 518.952 -138 549.952 -171 549.952 -215 c 0
 549.952 -278.407 486.9 -334 426.952 -334 c 0
 380.952 -334 348.952 -302 348.952 -259 c 0
 348.952 -201.759 404.202 -138 471.952 -138 c 0
EndSplineSet
LCarets2: 1 0 
Ligature2: "'liga' Standard Ligatures in Latin lookup 2" b dotbelowcomb
EndChar

StartChar: uni1E06
Encoding: 7686 7686 136
Width: 1214
VWidth: 2047
Flags: HW
HStem: -224 80<274 868> -3 70<405.393 684.721 545.057 795.878> -2 57<46.7488 228.062> 693 70<517 885.831> 1252 72<610.256 961.292> 1270 55<269 426.834>
VStem: 1019 181<271.367 581.697> 1032 159<911.415 1185.08>
DStem2: 243 149 408 148 0.174003 0.984745<-1.92224 581.116 652.31 1077.53>
LayerCount: 2
Fore
SplineSet
1200 441 m 0
 1200 225 1057 -3 601 -3 c 0
 454 -3 359 2 298 2 c 2
 35 -2 l 1
 42 39 l 2
 44 46 48 55 60 55 c 2
 121 55 l 2
 202 55 231 77 243 149 c 2
 425 1177 l 2
 427 1190 428 1201 428 1211 c 0
 428 1254 404 1270 335 1270 c 2
 274 1270 l 2
 263 1271 260 1276 261 1284 c 2
 269 1325 l 1
 271 1325 466 1319 531 1319 c 0
 598 1319 718 1324 790 1324 c 0
 1116 1324 1191 1195 1191 1071 c 0
 1191 869 1007 762 947 735 c 1
 1123 694 1200 587 1200 441 c 0
576 67 m 0
 916 67 1019 291 1019 440 c 0
 1019 591 910 693 697 693 c 2
 504 693 l 1
 408 148 l 2
 406.06 136.989 405 127 405 118 c 0
 405 76 437 67 576 67 c 0
679 763 m 2
 961 763 1032 939 1032 1064 c 0
 1032 1222 895 1252 792 1252 c 0
 615 1252 602 1245 590 1178 c 2
 517 763 l 1
 679 763 l 2
868 -224 m 1
 253 -224 l 1
 249 -216 247 -208 247 -201 c 0
 247 -171 274 -146 274 -144 c 1
 887 -144 l 1
 890 -156 891 -166 891 -174 c 0
 891 -195 882 -206 868 -224 c 1
EndSplineSet
LCarets2: 1 0 
Ligature2: "'liga' Standard Ligatures in Latin lookup 2" B uni0331
EndChar

StartChar: uni1E07
Encoding: 7687 7687 137
Width: 1020
VWidth: 2047
Flags: HW
HStem: -225 80<159 753> -25 57<385.564 649.122> 816 89<625.347 844.122> 1312 62<356 414.933> 1406 20G<567 664>
VStem: 909 163<393.568 746.99>
DStem2: 214 143 360 110 0.225076 0.974341<0.707804 631.888 696.648 1144.14>
LayerCount: 2
Fore
SplineSet
357 1374 m 1
 390 1374 515 1385 619 1426 c 1
 664 1426 l 1
 517 788 l 1
 599 859 699 905 803 905 c 0
 979 905 1072 756 1072 606 c 0
 1072 500 1017.4 194.145 705 29 c 0
 644.884 -2.77956 574 -25 495 -25 c 0
 408 -25 342 2 294 54 c 1
 270 32 238 -2 212 -25 c 1
 172 -15 l 1
 188 33 195.455 63.1247 214 143 c 2
 455 1181 l 2
 462 1213 466 1240 466 1260 c 0
 466 1300 452 1319 426 1319 c 0
 417 1319 366 1312 356 1312 c 0
 352 1312 349 1316 349 1320 c 0
 349 1322 354 1356 357 1374 c 1
909 585 m 0
 909 706 851 816 740 816 c 0
 693 816 613 808 502 725 c 1
 360 110 l 1
 389 60 435 32 498 32 c 0
 768 32 909 397 909 585 c 0
753 -225 m 1
 138 -225 l 1
 134 -217 132 -209 132 -202 c 0
 132 -172 159 -147 159 -145 c 1
 772 -145 l 1
 775 -157 776 -167 776 -175 c 0
 776 -196 767 -207 753 -225 c 1
EndSplineSet
LCarets2: 1 0 
Ligature2: "'liga' Standard Ligatures in Latin lookup 2" b uni0331
EndChar

StartChar: uni1E08
Encoding: 7688 7688 138
Width: 1403
VWidth: 2047
Flags: HW
HStem: -380 52<587.75 770.126> -172 64<672.121 788.734> -32.9782 86.9782<771.66 996.599> 1275 70<782.776 1168.62> 1428 21G<843 860.5>
VStem: 181 183<327.268 630.43> 791 112<-239.219 -177.211> 1343 64<934 1082.18> 1360 64<1283.39 1335>
LayerCount: 2
Fore
SplineSet
851 1428 m 0
 835 1428 827 1434 827 1450 c 0
 827 1468 840 1483 869 1501 c 2
 1157 1674 l 1
 1291 1580 l 1
 945 1452 l 2
 901 1437 870 1428 851 1428 c 0
718 -172 m 0
 679 -172 658 -175 623 -186 c 1
 612 -173 l 1
 702.441 -30.5348 l 1
 353.972 -2.94115 181 252.168 181 526 c 0
 181 564 184.14 602.975 191 641 c 0
 266.541 1059.72 621 1345 963 1345 c 0
 1216 1345 1287 1261 1328 1261 c 0
 1345 1261 1353 1272 1355 1283 c 0
 1357 1291 1361 1323 1360 1335 c 1
 1424 1344 l 1
 1407 934 l 1
 1343 927 l 1
 1343 945 l 2
 1343 1017 1324.77 1085.79 1264 1152 c 0
 1191.73 1230.75 1121 1275 977 1275 c 0
 780 1275 460.834 1151.67 374 670 c 0
 367.145 631.974 364 593 364 555 c 0
 364 303 504 54 780 54 c 0
 970 54 1097 108 1263 278 c 1
 1305 248 l 1
 1151.31 69.5264 991.73 -31.2813 771.66 -32.9782 c 1
 724 -114 l 1
 741 -110 759 -108 778 -108 c 0
 852 -108 903 -147 903 -212 c 0
 903 -220 902 -227 901 -235 c 0
 885 -322 782 -380 657 -380 c 0
 591 -380 558 -368 510 -345 c 1
 536 -308 l 1
 591 -325 604 -328 652 -328 c 0
 714 -328 780 -299 790 -244 c 0
 791 -240 791 -235 791 -231 c 0
 791 -195 760 -172 718 -172 c 0
EndSplineSet
LCarets2: 1 0 
Ligature2: "'liga' Standard Ligatures in Latin lookup 2" Ccedilla acutecomb
EndChar

StartChar: uni1E09
Encoding: 7689 7689 139
Width: 901
VWidth: 2047
Flags: HW
HStem: -385 52<316.247 501.138> -177 64<410.977 524.516> 841 64<561.017 757.634> 1328 20G<856 897>
VStem: 180 167<152.379 531.336> 527 113<-304.293 -180.747> 799 142<665.849 820.937>
LayerCount: 2
Fore
SplineSet
456 -177 m 0
 416 -177 397 -181 361 -191 c 1
 351 -178 l 1
 456.591 -23.941 l 1
 289.19 -8.03753 180 183.39 180 306 c 0
 180 646 447 905 683 905 c 0
 878 905 941 785 941 705 c 0
 941 635 875 613 854 613 c 0
 798 613 779 646 779 677 c 0
 779 691 783 713 789 721 c 0
 795 730 799 747 799 759 c 0
 799 828 717 841 689 841 c 0
 532 841 347 656 347 351 c 0
 347 106 472 65 542 65 c 0
 601 65 717 86 806 195 c 1
 842 164 l 1
 807.039 110.639 706.902 -4.51267 527.572 -22.5905 c 1
 466 -119 l 1
 483 -115 501 -113 520 -113 c 0
 586 -113 640 -144 640 -209 c 0
 640 -314 521 -385 384 -385 c 0
 321 -385 287 -373 239 -350 c 1
 267 -313 l 1
 322 -331 336 -333 382 -333 c 0
 452 -333 527 -296 527 -232 c 0
 527 -199 497 -177 456 -177 c 0
843 1346 m 1
 847 1347 853 1348 859 1348 c 0
 935 1348 970 1289 978 1283 c 1
 980 1260 l 1
 715 1074 l 2
 682 1052 666 1043 654 1043 c 0
 635 1043 624 1059 624 1069 c 0
 624 1079 628 1098 644 1116 c 2
 843 1346 l 1
EndSplineSet
LCarets2: 1 0 
Ligature2: "'liga' Standard Ligatures in Latin lookup 2" ccedilla acutecomb
EndChar

StartChar: uni1E0A
Encoding: 7690 7690 140
Width: 1428
VWidth: 2047
Flags: HW
HStem: -2 70<406.132 887.953> -2 59<46.9024 226.158> 1255 69<604.089 1008.03> 1265 59<269 427.35> 1427.01 196<870.239 1018.11>
VStem: 845.189 198.001<1451.26 1598.97> 1269 193<495.057 977.775>
DStem2: 243 149 408 148 0.173567 0.984822<3.82122 1076.5>
LayerCount: 2
Fore
SplineSet
408 148 m 2
 406 139 405 131 405 124 c 0
 405 78 445 68 619 68 c 0
 1139 68 1269 431 1269 743 c 0
 1269 1008 1143 1255 777 1255 c 0
 675 1255 602 1248 589 1175 c 2
 408 148 l 2
41 39 m 2
 43 49 50 57 60 57 c 2
 121 57 l 2
 198 57 231 83 243 149 c 2
 424 1174 l 2
 427 1189 428 1199 428 1210 c 0
 428 1253 404 1265 335 1265 c 2
 277 1265 l 2
 267.4 1265 261.619 1270.33 261.619 1279 c 0
 261.619 1280.88 266.269 1308.98 269 1324 c 1
 529 1320 l 2
 645.75 1320 769 1324 866 1324 c 0
 1219 1324 1462 1074 1462 750 c 0
 1462 353 1171 -2 668 -2 c 0
 458 -2 372 2 297 2 c 2
 34 -2 l 1
 41 39 l 2
959.189 1623.01 m 0
 1005.19 1623.01 1043.19 1591.01 1043.19 1540.01 c 0
 1043.19 1478.01 989.189 1427.01 931.189 1427.01 c 0
 879.189 1427.01 845.189 1464.01 845.189 1510.01 c 0
 845.189 1567.01 893.189 1623.01 959.189 1623.01 c 0
EndSplineSet
LCarets2: 1 0 
Ligature2: "'liga' Standard Ligatures in Latin lookup 2" D uni0307
EndChar

StartChar: uni1E0B
Encoding: 7691 7691 141
Width: 1070
VWidth: 2047
Flags: HW
HStem: -25 114<776 934.622> -25 86<382.255 548.613> 841 64<575.745 799.461> 1071 196<504.634 652.506> 1319 55<867 937.242> 1406 20G<1077.5 1174>
VStem: 163 165<112.743 507.695> 479.584 198<1095.25 1242.96> 724 154<26.0234 149>
DStem2: 747 222 901 243 0.22486 0.974391<-71.9247 0 592.58 1061.99>
LayerCount: 2
Fore
SplineSet
696 905 m 0
 775 905 858 861 882 799 c 1
 965 1181 l 2
 971.955 1213.01 976 1240 976 1260 c 0
 976 1300 962 1319 936 1319 c 2
 868 1312 l 2
 862 1311 858 1315 859 1322 c 2
 867 1374 l 1
 900 1374 1026 1385 1129 1426 c 1
 1174 1426 l 1
 901 243 l 2
 886 178 878 137 878 117 c 0
 878 94 899 89 904 89 c 0
 933 89 967 128 1029 202 c 1
 1075 170 l 1
 965 20 887 -25 811 -25 c 0
 741 -25 724 29 724 68 c 0
 724 106 732 157 747 222 c 1
 606 17 482 -25 418 -25 c 0
 179 -25 163 194 163 289 c 0
 163 641 493 905 696 905 c 0
849 683 m 0
 849 768 791 841 703 841 c 0
 489 841 328 558 328 312 c 0
 328 197 339 61 490 61 c 0
 556 61 712 199 775 362 c 0
 818 477 849 652 849 683 c 0
593.584 1267 m 0
 639.584 1267 677.584 1235 677.584 1184 c 0
 677.584 1122 623.584 1071 565.584 1071 c 0
 513.584 1071 479.584 1108 479.584 1154 c 0
 479.584 1211 527.584 1267 593.584 1267 c 0
EndSplineSet
LCarets2: 1 0 
Ligature2: "'liga' Standard Ligatures in Latin lookup 2" d uni0307
EndChar

StartChar: uni1E0C
Encoding: 7692 7692 142
Width: 1428
VWidth: 2047
Flags: HW
HStem: -334 196<616.467 754.31> -2 70<406.132 887.953> -2 59<46.9024 226.158> 1255 69<604.089 1008.03> 1265 59<269 427.35>
VStem: 584.45 201<-302.275 -169.784> 1269 193<495.057 977.775>
DStem2: 243 149 408 148 0.173567 0.984822<3.82122 1076.5>
LayerCount: 2
Fore
SplineSet
408 148 m 2
 406 139 405 131 405 124 c 0
 405 78 445 68 619 68 c 0
 1139 68 1269 431 1269 743 c 0
 1269 1008 1143 1255 777 1255 c 0
 675 1255 602 1248 589 1175 c 2
 408 148 l 2
41 39 m 2
 43 49 50 57 60 57 c 2
 121 57 l 2
 198 57 231 83 243 149 c 2
 424 1174 l 2
 427 1189 428 1199 428 1210 c 0
 428 1253 404 1265 335 1265 c 2
 277 1265 l 2
 267.4 1265 261.619 1270.33 261.619 1279 c 0
 261.619 1280.88 266.269 1308.98 269 1324 c 1
 529 1320 l 2
 645.75 1320 769 1324 866 1324 c 0
 1219 1324 1462 1074 1462 750 c 0
 1462 353 1171 -2 668 -2 c 0
 458 -2 372 2 297 2 c 2
 34 -2 l 1
 41 39 l 2
707.45 -138 m 0
 754.45 -138 785.45 -171 785.45 -215 c 0
 785.45 -278.407 722.398 -334 662.45 -334 c 0
 616.45 -334 584.45 -302 584.45 -259 c 0
 584.45 -201.759 639.7 -138 707.45 -138 c 0
EndSplineSet
LCarets2: 1 0 
Ligature2: "'liga' Standard Ligatures in Latin lookup 2" D dotbelowcomb
EndChar

StartChar: uni1E0D
Encoding: 7693 7693 143
Width: 1070
VWidth: 2047
Flags: HW
HStem: -334 196<419.969 557.812> -25 114<776 934.622> -25 86<382.255 548.613> 841 64<575.745 799.461> 1319 55<867 937.242> 1406 20G<1077.5 1174>
VStem: 163 165<112.743 507.695> 387.952 201<-302.275 -169.784> 724 154<26.0234 149>
DStem2: 747 222 901 243 0.22486 0.974391<-71.9247 0 592.58 1061.99>
LayerCount: 2
Fore
SplineSet
696 905 m 0
 775 905 858 861 882 799 c 1
 965 1181 l 2
 971.955 1213.01 976 1240 976 1260 c 0
 976 1300 962 1319 936 1319 c 2
 868 1312 l 2
 862 1311 858 1315 859 1322 c 2
 867 1374 l 1
 900 1374 1026 1385 1129 1426 c 1
 1174 1426 l 1
 901 243 l 2
 886 178 878 137 878 117 c 0
 878 94 899 89 904 89 c 0
 933 89 967 128 1029 202 c 1
 1075 170 l 1
 965 20 887 -25 811 -25 c 0
 741 -25 724 29 724 68 c 0
 724 106 732 157 747 222 c 1
 606 17 482 -25 418 -25 c 0
 179 -25 163 194 163 289 c 0
 163 641 493 905 696 905 c 0
849 683 m 0
 849 768 791 841 703 841 c 0
 489 841 328 558 328 312 c 0
 328 197 339 61 490 61 c 0
 556 61 712 199 775 362 c 0
 818 477 849 652 849 683 c 0
510.952 -138 m 0
 557.952 -138 588.952 -171 588.952 -215 c 0
 588.952 -278.407 525.9 -334 465.952 -334 c 0
 419.952 -334 387.952 -302 387.952 -259 c 0
 387.952 -201.759 443.202 -138 510.952 -138 c 0
EndSplineSet
LCarets2: 1 0 
Ligature2: "'liga' Standard Ligatures in Latin lookup 2" d dotbelowcomb
EndChar

StartChar: uni1E0E
Encoding: 7694 7694 144
Width: 1428
VWidth: 2047
Flags: HW
HStem: -224 80<356 950> -2 70<406.132 887.953> -2 59<46.9024 226.158> 1255 69<604.089 1008.03> 1265 59<269 427.35>
VStem: 1269 193<495.057 977.775>
DStem2: 243 149 408 148 0.173567 0.984822<3.82122 1076.5>
LayerCount: 2
Fore
SplineSet
408 148 m 2
 406 139 405 131 405 124 c 0
 405 78 445 68 619 68 c 0
 1139 68 1269 431 1269 743 c 0
 1269 1008 1143 1255 777 1255 c 0
 675 1255 602 1248 589 1175 c 2
 408 148 l 2
41 39 m 2
 43 49 50 57 60 57 c 2
 121 57 l 2
 198 57 231 83 243 149 c 2
 424 1174 l 2
 427 1189 428 1199 428 1210 c 0
 428 1253 404 1265 335 1265 c 2
 277 1265 l 2
 267.4 1265 261.619 1270.33 261.619 1279 c 0
 261.619 1280.88 266.269 1308.98 269 1324 c 1
 529 1320 l 2
 645.75 1320 769 1324 866 1324 c 0
 1219 1324 1462 1074 1462 750 c 0
 1462 353 1171 -2 668 -2 c 0
 458 -2 372 2 297 2 c 2
 34 -2 l 1
 41 39 l 2
950 -224 m 1
 335 -224 l 1
 331 -216 329 -208 329 -201 c 0
 329 -171 356 -146 356 -144 c 1
 969 -144 l 1
 972 -156 973 -166 973 -174 c 0
 973 -195 964 -206 950 -224 c 1
EndSplineSet
LCarets2: 1 0 
Ligature2: "'liga' Standard Ligatures in Latin lookup 2" D uni0331
EndChar

StartChar: uni1E0F
Encoding: 7695 7695 145
Width: 1070
VWidth: 2047
Flags: HW
HStem: -227 80<223 817> -25 86<382.255 548.613> 841 64<575.745 799.461> 1319 55<867 937.242> 1406 20G<1077.5 1174>
VStem: 163 165<112.743 507.695> 724 154<26.0234 149>
DStem2: 747 222 901 243 0.22486 0.974391<-71.9247 0 592.58 1061.99>
LayerCount: 2
Fore
SplineSet
696 905 m 0
 775 905 858 861 882 799 c 1
 965 1181 l 2
 971.955 1213.01 976 1240 976 1260 c 0
 976 1300 962 1319 936 1319 c 2
 868 1312 l 2
 862 1311 858 1315 859 1322 c 2
 867 1374 l 1
 900 1374 1026 1385 1129 1426 c 1
 1174 1426 l 1
 901 243 l 2
 886 178 878 137 878 117 c 0
 878 94 899 89 904 89 c 0
 933 89 967 128 1029 202 c 1
 1075 170 l 1
 965 20 887 -25 811 -25 c 0
 741 -25 724 29 724 68 c 0
 724 106 732 157 747 222 c 1
 606 17 482 -25 418 -25 c 0
 179 -25 163 194 163 289 c 0
 163 641 493 905 696 905 c 0
849 683 m 0
 849 768 791 841 703 841 c 0
 489 841 328 558 328 312 c 0
 328 197 339 61 490 61 c 0
 556 61 712 199 775 362 c 0
 818 477 849 652 849 683 c 0
817 -227 m 1
 202 -227 l 1
 198 -219 196 -211 196 -204 c 0
 196 -174 223 -149 223 -147 c 1
 836 -147 l 1
 839 -159 840 -169 840 -177 c 0
 840 -198 831 -209 817 -227 c 1
EndSplineSet
LCarets2: 1 0 
Ligature2: "'liga' Standard Ligatures in Latin lookup 2" d uni0331
EndChar

StartChar: uni1E10
Encoding: 7696 7696 146
Width: 1428
VWidth: 2047
Flags: HW
HStem: -375.167 52<84.4666 269.358> -167.167 64<179.197 292.737> -2 70<406.132 887.953> 1.06018 55.9398<46.9024 226.158> 1255 69<604.089 1008.03> 1265 59<269 427.35>
VStem: 295.22 113<-294.46 -170.914> 1269 193<495.057 977.775>
DStem2: 243 149 408 148 0.173567 0.984822<3.82122 1076.5>
LayerCount: 2
Fore
SplineSet
408 148 m 2
 406 139 405 131 405 124 c 0
 405 78 445 68 619 68 c 0
 1139 68 1269 431 1269 743 c 0
 1269 1008 1143 1255 777 1255 c 0
 675 1255 602 1248 589 1175 c 2
 408 148 l 2
224.22 -167.167 m 0
 184.22 -167.167 165.22 -171.167 129.22 -181.167 c 1
 119.22 -168.167 l 1
 235.207 1.06018 l 1
 34 -2 l 1
 41 39 l 2
 43 49 50 57 60 57 c 2
 121 57 l 2
 198 57 231 83 243 149 c 2
 424 1174 l 2
 427 1189 428 1199 428 1210 c 0
 428 1253 404 1265 335 1265 c 2
 277 1265 l 2
 267.4 1265 261.619 1270.33 261.619 1279 c 0
 261.619 1280.88 266.269 1308.98 269 1324 c 1
 529 1320 l 2
 645.75 1320 769 1324 866 1324 c 0
 1219 1324 1462 1074 1462 750 c 0
 1462 353 1171 -2 668 -2 c 0
 465.615 -2 378.4 1.71518 305.207 1.9846 c 1
 234.22 -109.167 l 1
 251.22 -105.167 269.22 -103.167 288.22 -103.167 c 0
 354.22 -103.167 408.22 -134.167 408.22 -199.167 c 0
 408.22 -304.167 289.22 -375.167 152.22 -375.167 c 0
 89.2197 -375.167 55.2197 -363.167 7.21973 -340.167 c 1
 35.2197 -303.167 l 1
 90.2197 -321.167 104.22 -323.167 150.22 -323.167 c 0
 220.22 -323.167 295.22 -286.167 295.22 -222.167 c 0
 295.22 -189.167 265.22 -167.167 224.22 -167.167 c 0
EndSplineSet
LCarets2: 1 0 
Ligature2: "'liga' Standard Ligatures in Latin lookup 2" D uni0327
EndChar

StartChar: uni1E11
Encoding: 7697 7697 147
Width: 1082
VWidth: 2047
Flags: HW
HStem: -385 52<240.247 425.138> -177 64<334.977 448.517> -25 114<788 946.622> 841 64<587.745 811.461> 1319 55<879 949.242> 1406 20G<1089.5 1186>
VStem: 175 165<110.464 507.695> 451 113<-304.293 -180.747> 736 154<26.0234 149>
DStem2: 759 222 913 243 0.22486 0.974391<-71.9247 0 592.58 1061.99>
LayerCount: 2
Fore
SplineSet
861 683 m 0
 861 768 803 841 715 841 c 0
 501 841 340 558 340 312 c 0
 340 197 351 61 502 61 c 0
 568 61 724 199 787 362 c 0
 830 477 861 652 861 683 c 0
380 -177 m 0
 340 -177 321 -181 285 -191 c 1
 275 -178 l 1
 382.081 -21.7669 l 1
 188.794 5.68163 175 200.792 175 289 c 0
 175 641 505 905 708 905 c 0
 787 905 870 861 894 799 c 1
 977 1181 l 2
 983.955 1213.01 988 1240 988 1260 c 0
 988 1300 974 1319 948 1319 c 2
 880 1312 l 2
 874 1311 870 1315 871 1322 c 2
 879 1374 l 1
 912 1374 1038 1385 1141 1426 c 1
 1186 1426 l 1
 913 243 l 2
 898 178 890 137 890 117 c 0
 890 94 911 89 916 89 c 0
 945 89 979 128 1041 202 c 1
 1087 170 l 1
 977 20 899 -25 823 -25 c 0
 753 -25 736 29 736 68 c 0
 736 106 744 157 759 222 c 1
 632.072 37.4592 518.92 -14.9932 450.912 -23.6247 c 1
 390 -119 l 1
 407 -115 425 -113 444 -113 c 0
 510 -113 564 -144 564 -209 c 0
 564 -314 445 -385 308 -385 c 0
 245 -385 211 -373 163 -350 c 1
 191 -313 l 1
 246 -331 260 -333 306 -333 c 0
 376 -333 451 -296 451 -232 c 0
 451 -199 421 -177 380 -177 c 0
EndSplineSet
LCarets2: 1 0 
Ligature2: "'liga' Standard Ligatures in Latin lookup 2" d uni0327
EndChar

StartChar: uni1E12
Encoding: 7698 7698 148
Width: 1428
VWidth: 2047
Flags: HW
HStem: -2 70<406.132 887.953> -2 59<46.9024 226.158> 1255 69<604.089 1008.03> 1265 59<269 427.35>
VStem: 1269 193<495.057 977.775>
DStem2: 243 149 408 148 0.173567 0.984822<3.82122 1076.5>
LayerCount: 2
Fore
SplineSet
408 148 m 2
 406 139 405 131 405 124 c 0
 405 78 445 68 619 68 c 0
 1139 68 1269 431 1269 743 c 0
 1269 1008 1143 1255 777 1255 c 0
 675 1255 602 1248 589 1175 c 2
 408 148 l 2
41 39 m 2
 43 49 50 57 60 57 c 2
 121 57 l 2
 198 57 231 83 243 149 c 2
 424 1174 l 2
 427 1189 428 1199 428 1210 c 0
 428 1253 404 1265 335 1265 c 2
 277 1265 l 2
 267.4 1265 261.619 1270.33 261.619 1279 c 0
 261.619 1280.88 266.269 1308.98 269 1324 c 1
 529 1320 l 2
 645.75 1320 769 1324 866 1324 c 0
 1219 1324 1462 1074 1462 750 c 0
 1462 353 1171 -2 668 -2 c 0
 458 -2 372 2 297 2 c 2
 34 -2 l 1
 41 39 l 2
717.472 -177 m 1
 761.472 -252 817.472 -314 879.472 -370 c 1
 837.472 -412 l 1
 765.472 -377 704.472 -337 648.472 -286 c 1
 561.472 -341 486.472 -378 400.472 -412 c 1
 381.472 -370 l 1
 470.472 -312 551.472 -246 629.472 -177 c 1
 717.472 -177 l 1
EndSplineSet
LCarets2: 1 0 
Ligature2: "'liga' Standard Ligatures in Latin lookup 2" D uni032D
EndChar

StartChar: uni1E13
Encoding: 7699 7699 149
Width: 1101
VWidth: 2047
Flags: HW
HStem: -25 114<807.545 966.167> -25 86<413.8 580.158> 841 64<607.29 831.006> 1319 55<898.545 968.786> 1406 20G<1109.04 1205.54>
VStem: 194.545 165<112.743 507.695> 755.545 154<26.0234 149>
DStem2: 778.545 222 932.545 243 0.224856 0.974392<-71.9253 0 592.58 1061.99>
LayerCount: 2
Fore
SplineSet
727.545 905 m 0
 806.545 905 889.545 861 913.545 799 c 1
 996.545 1181 l 2
 1003.5 1213.01 1007.54 1240 1007.54 1260 c 0
 1007.54 1300 993.545 1319 967.545 1319 c 2
 899.545 1312 l 2
 893.545 1311 889.545 1315 890.545 1322 c 2
 898.545 1374 l 1
 931.545 1374 1057.54 1385 1160.54 1426 c 1
 1205.54 1426 l 1
 932.545 243 l 2
 917.545 178 909.545 137 909.545 117 c 0
 909.545 94 930.545 89 935.545 89 c 0
 964.545 89 998.545 128 1060.54 202 c 1
 1106.54 170 l 1
 996.545 20 918.545 -25 842.545 -25 c 0
 772.545 -25 755.545 29 755.545 68 c 0
 755.545 106 763.545 157 778.545 222 c 1
 637.545 17 513.545 -25 449.545 -25 c 0
 210.545 -25 194.545 194 194.545 289 c 0
 194.545 641 524.545 905 727.545 905 c 0
880.545 683 m 0
 880.545 768 822.545 841 734.545 841 c 0
 520.545 841 359.545 558 359.545 312 c 0
 359.545 197 370.545 61 521.545 61 c 0
 587.545 61 743.545 199 806.545 362 c 0
 849.545 477 880.545 652 880.545 683 c 0
536 -118 m 1
 573 -214 630 -302 682 -384 c 1
 634 -411 l 1
 567 -352 510 -301 458 -227 c 1
 364 -305 285 -356 197 -411 c 1
 163 -384 l 1
 254 -303 353 -212 434 -118 c 1
 536 -118 l 1
EndSplineSet
LCarets2: 1 0 
Ligature2: "'liga' Standard Ligatures in Latin lookup 2" d uni032D
EndChar

